<svg width="33" height="35" viewBox="0 0 33 35" fill="none" xmlns="http://www.w3.org/2000/svg">
<path d="M2.81451 26.5419C2.34744 26.7203 2.3474 26.7202 2.34736 26.7201L2.34728 26.7199L2.34712 26.7195L2.34681 26.7187L2.34617 26.717L2.34488 26.7135L2.34224 26.7061C2.34047 26.701 2.33865 26.6955 2.33683 26.6897C2.33321 26.6781 2.32944 26.6645 2.32597 26.6493C2.31928 26.6199 2.3125 26.5788 2.3125 26.5295C2.3125 26.4244 2.34352 26.3221 2.40111 26.2351L2.40201 26.2338L5.5954 21.4438C5.89996 20.9869 6.0625 20.4501 6.0625 19.901V14.375C6.0625 10.4745 9.22448 7.3125 13.125 7.3125C17.0255 7.3125 20.1875 10.4745 20.1875 14.375V19.901C20.1875 20.4501 20.3501 20.9869 20.6546 21.4438C20.6546 21.4438 20.6546 21.4438 20.6546 21.4439L23.8469 26.2323C23.9088 26.3243 23.9375 26.4287 23.9375 26.5295C23.9375 26.5626 23.9343 26.5891 23.9329 26.5998C23.932 26.6068 23.9311 26.6128 23.9303 26.6175L23.9292 26.6241L23.9288 26.6269L23.9285 26.6281L23.9284 26.6287L23.9284 26.629L23.9283 26.6292L23.9283 26.6293L23.4366 26.5387L23.9283 26.6293L23.9209 26.6697L23.9069 26.7084L23.9058 26.7115L23.8949 26.7417L23.8802 26.7703L23.4354 26.5419C23.8802 26.7703 23.8802 26.7704 23.8801 26.7704L23.8801 26.7705L23.88 26.7707L23.8798 26.7712L23.8793 26.772L23.8784 26.7739L23.8763 26.7779L23.8711 26.7873C23.8694 26.7903 23.8674 26.7938 23.8651 26.7977C23.8624 26.8023 23.8593 26.8074 23.8559 26.8129C23.8482 26.825 23.8231 26.8645 23.7813 26.9063C23.7395 26.9481 23.7 26.9732 23.6879 26.9809C23.6778 26.9872 23.6689 26.9924 23.6623 26.9961L23.6529 27.0013L23.6489 27.0034L23.647 27.0043L23.6462 27.0048L23.6457 27.005L23.6455 27.0051L23.6454 27.0051C23.6454 27.0052 23.6453 27.0052 23.4169 26.5604M2.81451 26.5419C2.37219 26.775 2.37221 26.7751 2.37224 26.7751L2.37229 26.7752L2.37239 26.7754L2.37259 26.7758L2.37301 26.7766L2.37388 26.7782L2.37584 26.7818L2.3806 26.7904C2.38407 26.7965 2.38882 26.8045 2.39471 26.8138C2.40198 26.8253 2.42809 26.8664 2.47115 26.9088L2.82216 26.5527L2.46373 26.9014C2.50706 26.9459 2.5492 26.9727 2.56209 26.9809C2.57195 26.9871 2.58055 26.9921 2.5871 26.9958L2.59629 27.0008L2.60019 27.0029L2.60198 27.0038L2.60283 27.0043L2.60325 27.0045L2.60346 27.0046L2.60356 27.0047C2.60361 27.0047 2.60366 27.0047 2.83307 26.5604M2.81451 26.5419L2.34744 26.7203L2.35817 26.7484L2.37219 26.775L2.81451 26.5419ZM23.4169 26.5604C23.5996 27.0258 23.5995 27.0259 23.5994 27.0259L23.5992 27.026L23.5988 27.0262L23.5979 27.0265L23.5962 27.0272L23.5927 27.0285L23.5851 27.0313C23.58 27.0331 23.5744 27.035 23.5684 27.0369C23.5566 27.0407 23.5428 27.0447 23.5273 27.0483C23.4972 27.0553 23.4551 27.0625 23.4045 27.0625H2.84548C2.79502 27.0625 2.75297 27.0554 2.72303 27.0484C2.70753 27.0448 2.69376 27.0408 2.68196 27.0371C2.67602 27.0352 2.67045 27.0333 2.66529 27.0315L2.65781 27.0287L2.65427 27.0274L2.65255 27.0267L2.6517 27.0264L2.65128 27.0262L2.65107 27.0261C2.65096 27.0261 2.65086 27.0261 2.83307 26.5604M23.4169 26.5604L23.6453 27.0052L23.623 27.0167L23.5996 27.0258L23.4169 26.5604ZM2.83307 26.5604L2.65086 27.0261L2.62671 27.0166L2.60366 27.0047L2.83307 26.5604ZM4.25 14.375C4.25 9.47348 8.22348 5.5 13.125 5.5C18.0265 5.5 22 9.47348 22 14.375V19.901C22 20.0922 22.0566 20.2793 22.1628 20.4386L25.356 25.2285C25.6129 25.6138 25.75 26.0665 25.75 26.5295C25.75 27.825 24.7 28.875 23.4045 28.875H2.84548C1.5501 28.875 0.5 27.825 0.5 26.5295C0.5 26.0665 0.637056 25.6138 0.893925 25.2285L4.08729 20.4384C4.19338 20.2793 4.25 20.0923 4.25 19.901V14.375ZM16.3368 31.75C16.0966 33.3073 14.7497 34.5 13.125 34.5C11.5003 34.5 10.1534 33.3073 9.91314 31.75H16.3368Z" fill="#24292E" stroke="black"/>
<circle cx="29.5" cy="3.5" r="3.5" fill="#E82127"/>
</svg>
