<svg width="251" height="238" viewBox="0 0 251 238" fill="none" xmlns="http://www.w3.org/2000/svg">
<path d="M37.1151 218.312C85.9288 243.813 165.07 243.813 213.89 218.312C262.709 192.811 262.698 151.468 213.89 125.962C165.082 100.455 85.9288 100.466 37.1096 125.962C-11.7097 151.457 -11.6986 192.811 37.1151 218.312Z" fill="#F5F5F5"/>
<path d="M219.454 179.964C231.845 179.964 241.889 175.177 241.889 169.272C241.889 163.366 231.845 158.579 219.454 158.579C207.064 158.579 197.02 163.366 197.02 169.272C197.02 175.177 207.064 179.964 219.454 179.964Z" fill="#E0E0E0"/>
<path d="M38.9809 191.734C51.3713 191.734 61.4158 186.947 61.4158 181.041C61.4158 175.136 51.3713 170.349 38.9809 170.349C26.5904 170.349 16.5459 175.136 16.5459 181.041C16.5459 186.947 26.5904 191.734 38.9809 191.734Z" fill="#E0E0E0"/>
<path d="M122.427 223.168L65.626 190.396C65.4325 190.27 65.2714 190.1 65.1556 189.9C65.0398 189.701 64.9726 189.476 64.9595 189.246V188.385C64.9726 188.154 65.0398 187.93 65.1556 187.731C65.2714 187.531 65.4325 187.361 65.626 187.235L134.881 147.242C135.086 147.138 135.314 147.084 135.544 147.084C135.775 147.084 136.002 147.138 136.208 147.242L193.009 180.014C193.202 180.14 193.362 180.31 193.477 180.51C193.592 180.71 193.658 180.934 193.67 181.164V182.03C193.658 182.261 193.592 182.485 193.477 182.684C193.362 182.884 193.202 183.054 193.009 183.18L123.755 223.168C123.549 223.272 123.322 223.326 123.091 223.326C122.86 223.326 122.633 223.272 122.427 223.168Z" fill="#EBEBEB"/>
<path d="M193.011 180.768L123.751 220.761C123.546 220.868 123.318 220.923 123.087 220.923C122.856 220.923 122.628 220.868 122.423 220.761L65.6276 187.989C65.5479 187.961 65.4787 187.91 65.4298 187.841C65.3808 187.772 65.3545 187.69 65.3545 187.606C65.3545 187.521 65.3808 187.439 65.4298 187.37C65.4787 187.302 65.5479 187.25 65.6276 187.222L134.882 147.229C135.088 147.125 135.315 147.071 135.546 147.071C135.777 147.071 136.004 147.125 136.21 147.229L193.011 180.002C193.091 180.029 193.16 180.081 193.209 180.149C193.258 180.218 193.284 180.3 193.284 180.385C193.284 180.469 193.258 180.551 193.209 180.62C193.16 180.689 193.091 180.741 193.011 180.768Z" fill="#FAFAFA"/>
<path d="M193.011 180.768L123.751 220.761C123.546 220.868 123.318 220.923 123.087 220.923C122.856 220.923 122.628 220.868 122.423 220.761L65.6276 187.989C65.5479 187.961 65.4787 187.91 65.4298 187.841C65.3808 187.772 65.3545 187.69 65.3545 187.606C65.3545 187.521 65.3808 187.439 65.4298 187.37C65.4787 187.302 65.5479 187.25 65.6276 187.222L134.882 147.229C135.088 147.125 135.315 147.071 135.546 147.071C135.777 147.071 136.004 147.125 136.21 147.229L193.011 180.002C193.091 180.029 193.16 180.081 193.209 180.149C193.258 180.218 193.284 180.3 193.284 180.385C193.284 180.469 193.258 180.551 193.209 180.62C193.16 180.689 193.091 180.741 193.011 180.768Z" fill="#FAFAFA"/>
<path d="M123.088 221.138V223.31C122.858 223.314 122.63 223.258 122.427 223.149L65.626 190.377C65.4319 190.252 65.2703 190.082 65.1544 189.882C65.0386 189.682 64.9717 189.458 64.9595 189.227V188.366C64.9728 188.16 65.0291 187.958 65.1247 187.774C65.2204 187.591 65.3533 187.429 65.5149 187.3C65.2761 187.511 65.315 187.8 65.6371 187.983L122.438 220.755C122.493 220.786 122.55 220.81 122.61 220.827L123.088 221.138Z" fill="#E0E0E0"/>
<path d="M88.8386 184.645C88.843 184.672 88.843 184.7 88.8386 184.728L88.7775 184.811L88.4609 184.939L81.0733 185.317C80.9589 185.336 80.8499 185.379 80.754 185.444C80.6581 185.51 80.5775 185.595 80.5179 185.694C80.4012 185.894 80.4623 186.055 80.6567 186.067L87.6222 186.422L87.7833 186.55C87.777 186.579 87.7658 186.608 87.7499 186.633C87.7162 186.688 87.6698 186.733 87.6147 186.766C87.5596 186.799 87.4974 186.818 87.4333 186.822L80.4068 186.461C80.0124 186.461 79.8846 186.105 80.1179 185.694C80.2442 185.486 80.4155 185.309 80.6192 185.175C80.823 185.041 81.054 184.955 81.2955 184.922L88.7442 184.539C88.8053 184.539 88.8386 184.578 88.8386 184.645Z" fill="#455A64"/>
<path d="M153.927 180.166C153.924 180.21 153.909 180.252 153.883 180.288C153.846 180.34 153.798 180.382 153.742 180.412C153.686 180.442 153.624 180.458 153.56 180.46C153.56 180.46 151.716 180.244 148.345 179.955C148.245 179.955 148.217 179.849 148.289 179.738C148.324 179.686 148.371 179.642 148.426 179.611C148.481 179.581 148.543 179.563 148.606 179.561C151.983 179.849 153.816 180.066 153.833 180.066C153.858 180.067 153.882 180.079 153.9 180.097C153.917 180.116 153.927 180.14 153.927 180.166Z" fill="#455A64"/>
<path d="M147.795 190.816C147.802 190.839 147.802 190.865 147.795 190.888C147.766 190.946 147.724 190.997 147.671 191.035C147.619 191.074 147.559 191.099 147.495 191.11C147.495 191.11 145.39 191.332 141.679 191.632C141.563 191.632 141.513 191.56 141.568 191.455C141.598 191.397 141.642 191.347 141.695 191.309C141.748 191.272 141.809 191.247 141.874 191.238C145.579 190.938 147.656 190.716 147.678 190.716C147.7 190.716 147.795 190.749 147.795 190.816Z" fill="#455A64"/>
<path d="M139.941 179.021C139.939 179.061 139.928 179.099 139.907 179.133C139.871 179.185 139.823 179.229 139.767 179.261C139.712 179.293 139.649 179.311 139.585 179.316C136.503 179.127 133.275 178.966 129.993 178.827C115.023 178.222 110.04 178.772 105.497 179.499C100.564 180.288 88.0166 184.854 86.9445 185.681C87.0667 186.504 94.371 191.047 98.3981 191.819C102.114 192.536 106.469 193.075 122.166 192.419C125.599 192.275 129.021 192.103 132.342 191.903C132.453 191.903 132.498 191.98 132.442 192.086C132.411 192.143 132.368 192.191 132.315 192.228C132.261 192.265 132.201 192.288 132.137 192.297C128.804 192.497 125.388 192.669 121.955 192.814C106.213 193.475 101.842 192.93 98.1037 192.214C94.4932 191.514 85.9447 186.698 86.5279 185.681C87.1112 184.665 101.231 179.816 105.652 179.105C110.224 178.377 115.228 177.822 130.237 178.433C133.52 178.566 136.752 178.733 139.841 178.922C139.854 178.92 139.868 178.921 139.881 178.925C139.894 178.93 139.906 178.937 139.916 178.947C139.925 178.956 139.933 178.968 139.937 178.981C139.941 178.994 139.943 179.008 139.941 179.021Z" fill="#455A64"/>
<path d="M111.862 182.345C111.49 181.484 110.602 181.006 109.374 181.006C107.916 181.081 106.506 181.553 105.297 182.372C104.617 182.803 103.988 183.308 103.42 183.878C102.888 184.411 102.426 185.008 102.042 185.655C101.526 186.457 101.285 187.404 101.353 188.355C101.525 189.577 102.525 190.304 104.019 190.299C105.478 190.226 106.889 189.754 108.096 188.932C109.423 188.107 110.538 186.983 111.351 185.649C111.767 184.979 112.012 184.215 112.062 183.428C112.074 183.056 112.006 182.687 111.862 182.345ZM110.952 185.649C110.209 186.871 109.189 187.901 107.974 188.655C106.871 189.402 105.584 189.834 104.253 189.904C102.875 189.904 101.964 189.238 101.814 188.127C101.791 187.986 101.782 187.842 101.786 187.699C101.835 186.974 102.06 186.273 102.442 185.655C103.185 184.436 104.203 183.407 105.414 182.65C106.519 181.902 107.808 181.472 109.141 181.406C110.252 181.406 111.079 181.839 111.424 182.628C111.768 183.417 111.613 184.5 110.952 185.649Z" fill="#455A64"/>
<path d="M111.423 182.616C111.079 181.827 110.273 181.394 109.14 181.394C107.807 181.46 106.518 181.89 105.413 182.638C104.202 183.395 103.185 184.424 102.441 185.643C102.059 186.26 101.834 186.962 101.786 187.687C101.781 187.83 101.79 187.973 101.814 188.115C101.964 189.226 102.875 189.892 104.252 189.892C105.583 189.822 106.87 189.39 107.974 188.642C109.189 187.889 110.209 186.859 110.951 185.637C111.612 184.499 111.773 183.427 111.423 182.616ZM109.946 185.648C108.907 187.442 106.613 188.909 104.808 188.909C103.025 188.909 102.408 187.443 103.436 185.654C104.463 183.865 106.768 182.399 108.568 182.393C109.801 182.393 110.479 183.082 110.451 184.06C110.415 184.623 110.241 185.168 109.946 185.648Z" fill="#FF725E"/>
<path d="M98.5364 181.038C98.5127 181.029 98.4872 181.023 98.4615 181.023C98.4357 181.023 98.4102 181.029 98.3865 181.038C94.8649 182.149 86.9829 184.871 86.5108 185.688C86.0386 186.504 90.7933 189.204 93.0374 190.309C93.0894 190.328 93.1465 190.328 93.1985 190.309C93.2634 190.283 93.3221 190.243 93.3707 190.192C96.1146 187.182 97.8699 184.144 98.5753 181.166V181.133C98.5802 181.115 98.5791 181.096 98.572 181.079C98.565 181.062 98.5525 181.048 98.5364 181.038Z" fill="#455A64"/>
<path d="M98.0758 181.505C97.3759 184.282 95.754 187.059 93.2433 189.881C89.8383 188.187 86.9999 186.221 86.9277 185.704C87.5943 185.165 92.7267 183.171 98.0758 181.505Z" fill="#FF725E"/>
<path d="M153.994 180.699C153.93 181.515 153.721 182.312 153.377 183.055C153.349 183.114 153.307 183.165 153.255 183.205C153.203 183.244 153.142 183.271 153.077 183.282C152.961 183.282 152.9 183.227 152.944 183.121C153.677 181.355 153.544 180.627 153.499 180.455C153.211 180.422 151.994 180.283 149.95 180.1C149.753 181.357 149.343 182.573 148.739 183.693C148.708 183.751 148.665 183.8 148.612 183.837C148.559 183.875 148.498 183.9 148.434 183.91C148.317 183.91 148.273 183.838 148.323 183.732C149.289 181.738 149.495 180.572 149.511 179.966C149.518 179.925 149.532 179.886 149.554 179.851C149.576 179.815 149.605 179.785 149.639 179.761C149.703 179.704 149.786 179.672 149.872 179.672C152.438 179.9 153.822 180.066 153.838 180.066C153.855 180.068 153.871 180.073 153.886 180.082C153.9 180.09 153.912 180.102 153.922 180.116C153.99 180.302 154.015 180.502 153.994 180.699Z" fill="#455A64"/>
<path d="M150.495 188.008C150.487 188.055 150.468 188.099 150.439 188.136C148.817 190.358 147.662 191.03 147.606 191.058C147.564 191.084 147.517 191.101 147.468 191.108C147.468 191.108 145.879 191.28 143.024 191.519C142.946 191.519 142.896 191.519 142.891 191.424C142.894 191.385 142.905 191.347 142.924 191.312C142.943 191.278 142.97 191.248 143.002 191.224C144.204 190.112 145.259 188.85 146.14 187.469C146.175 187.415 146.222 187.37 146.278 187.338C146.334 187.306 146.398 187.288 146.462 187.286C146.562 187.286 146.59 187.392 146.518 187.503C145.677 188.802 144.698 190.005 143.596 191.091C145.851 190.897 147.229 190.752 147.556 190.719C148.53 189.976 149.378 189.082 150.067 188.069C150.104 188.019 150.153 187.978 150.209 187.95C150.265 187.922 150.327 187.908 150.389 187.908C150.403 187.905 150.418 187.906 150.431 187.91C150.445 187.914 150.458 187.921 150.468 187.931C150.478 187.941 150.486 187.953 150.491 187.966C150.496 187.98 150.497 187.994 150.495 188.008Z" fill="#455A64"/>
<path d="M157.56 195.737L143.39 196.692L141.979 191.305C141.975 191.288 141.966 191.274 141.953 191.263C141.94 191.252 141.924 191.245 141.907 191.243C139.208 190.51 135.958 190.738 132.253 191.916C132.174 191.944 132.104 191.992 132.048 192.054C132.026 192.079 132.01 192.108 132.001 192.14C131.992 192.172 131.991 192.205 131.998 192.238L135.231 200.747C135.238 200.767 135.252 200.784 135.27 200.795C135.288 200.806 135.31 200.811 135.331 200.808L140.885 200.903H140.957L157.427 196.137C157.484 196.12 157.537 196.091 157.582 196.052C157.627 196.012 157.663 195.964 157.688 195.909C157.69 195.891 157.69 195.872 157.688 195.854C157.716 195.776 157.643 195.732 157.56 195.737ZM141.052 200.503L135.631 200.414L132.503 192.177C135.947 191.132 138.98 190.943 141.518 191.621L142.935 197.031C142.935 197.076 142.996 197.104 143.063 197.098L155.788 196.243L141.052 200.503Z" fill="#455A64"/>
<path d="M155.81 196.237L141.052 200.503L135.631 200.414L132.503 192.176C135.947 191.132 138.98 190.943 141.519 191.621L142.935 197.031C142.935 197.075 142.996 197.103 143.063 197.098L155.81 196.237Z" fill="#FF725E"/>
<path d="M169.574 175.011L158.57 170.284H158.509L152.849 170.395C152.787 170.399 152.727 170.42 152.677 170.456L139.629 178.988C139.56 179.032 139.505 179.096 139.473 179.172C139.461 179.197 139.459 179.226 139.467 179.252C139.476 179.279 139.494 179.302 139.518 179.316C141.873 180.482 144.861 180.699 148.405 179.96C148.457 179.946 148.506 179.924 148.55 179.894L156.171 174.495L169.274 175.394C169.333 175.391 169.39 175.375 169.442 175.347C169.494 175.32 169.539 175.281 169.574 175.233C169.607 175.196 169.626 175.149 169.629 175.1C169.631 175.081 169.626 175.062 169.616 175.047C169.606 175.031 169.591 175.018 169.574 175.011ZM156.332 174.084C156.257 174.083 156.184 174.109 156.126 174.156L148.466 179.577C145.134 180.255 142.356 180.077 140.09 179.022L152.716 170.779L158.27 170.673L168.113 174.9L156.332 174.084Z" fill="#455A64"/>
<path d="M168.097 174.901L156.332 174.084C156.257 174.084 156.184 174.109 156.126 174.157L148.467 179.578C145.134 180.255 142.357 180.078 140.09 179.022L152.716 170.779L158.27 170.674L168.097 174.901Z" fill="#FF725E"/>
<path d="M169.041 185.314L155.232 182.614H155.171L134.591 185.392C134.534 185.404 134.479 185.427 134.43 185.46C134.382 185.494 134.34 185.536 134.308 185.586C134.247 185.686 134.275 185.769 134.364 185.786L151.755 188.563H151.822L168.819 185.708C168.876 185.696 168.931 185.672 168.979 185.638C169.027 185.603 169.067 185.559 169.096 185.508C169.113 185.479 169.122 185.447 169.124 185.414C169.126 185.39 169.118 185.366 169.103 185.347C169.087 185.329 169.065 185.317 169.041 185.314ZM152.011 188.169L135.902 185.597L154.988 183.036L167.797 185.525L152.011 188.169Z" fill="#455A64"/>
<path d="M167.775 185.521L152.011 188.165L135.88 185.593L154.966 183.032L167.775 185.521Z" fill="#FF725E"/>
<path d="M151.172 197.574L149.578 198.041L147.967 198.513L146.167 199.035C145.515 199.23 144.915 199.571 144.414 200.032C143.913 200.493 143.523 201.062 143.273 201.696C142.962 202.807 143.718 203.457 145.001 203.184L146.701 202.823H146.751L148.323 202.49L149.867 202.162C150.705 201.951 151.355 200.64 151.655 199.585C151.765 199.213 151.83 198.829 151.85 198.441C151.877 197.846 151.7 197.441 151.172 197.574ZM151.216 199.685C150.922 200.74 150.367 201.674 149.994 201.768L148.884 202.001L148.356 202.112L147.245 202.346L146.739 202.457L145.101 202.801C144.201 202.99 143.618 202.618 143.634 201.935C143.64 201.814 143.66 201.695 143.696 201.579C143.898 201.062 144.216 200.598 144.625 200.223C145.035 199.848 145.524 199.571 146.056 199.413L147.723 198.918L148.239 198.769L149.35 198.441L149.906 198.28L151.017 197.952C151.444 197.863 151.516 198.641 151.216 199.685Z" fill="#455A64"/>
<path d="M149.939 198.28C149.916 198.225 149.882 198.174 149.839 198.132C149.796 198.09 149.745 198.057 149.689 198.035C149.649 198.025 149.607 198.025 149.567 198.035L147.956 198.508C147.861 198.537 147.779 198.597 147.723 198.68C147.667 198.758 147.667 198.835 147.723 198.869C147.739 198.881 147.752 198.896 147.762 198.913C147.951 199.141 147.928 199.785 147.706 200.579C147.536 201.27 147.213 201.913 146.762 202.462L146.69 202.535C146.656 202.56 146.629 202.593 146.61 202.63C146.59 202.668 146.58 202.709 146.579 202.751C146.585 202.776 146.601 202.798 146.622 202.812C146.644 202.827 146.67 202.833 146.695 202.829H146.745L148.317 202.496C148.361 202.483 148.403 202.463 148.439 202.435C148.604 202.318 148.75 202.178 148.873 202.018C149.314 201.43 149.636 200.763 149.822 200.052C149.936 199.682 150.001 199.299 150.017 198.913C150.039 198.699 150.012 198.482 149.939 198.28ZM149.384 200.146C149.209 200.878 148.854 201.554 148.351 202.113L147.24 202.346C147.642 201.775 147.941 201.138 148.123 200.463C148.313 199.919 148.357 199.335 148.251 198.769L149.361 198.441C149.634 198.596 149.634 199.28 149.384 200.146Z" fill="#455A64"/>
<path d="M149.383 200.147C149.209 200.878 148.854 201.554 148.35 202.113L147.239 202.346C147.642 201.775 147.941 201.138 148.122 200.463C148.313 199.92 148.357 199.335 148.25 198.769L149.361 198.441C149.633 198.597 149.633 199.28 149.383 200.147Z" fill="#FF725E"/>
<path d="M168.963 168.991L167.785 168.668L166.602 168.341L165.275 167.974C164.308 167.707 162.792 168.368 161.831 169.474C160.87 170.579 160.792 171.746 161.664 172.129L162.858 172.645L163.931 173.112L164.991 173.573C165.186 173.64 165.575 173.573 166.319 173.018C166.853 172.58 167.347 172.097 167.797 171.573C168.228 171.091 168.609 170.566 168.935 170.007C169.063 169.797 169.144 169.562 169.174 169.318C169.185 169.247 169.169 169.175 169.131 169.114C169.092 169.054 169.032 169.01 168.963 168.991ZM168.524 170.018C168.224 170.534 167.872 171.018 167.474 171.462C167.061 171.944 166.606 172.389 166.113 172.79C165.736 173.09 165.447 173.234 165.325 173.195L164.58 172.873L164.214 172.712L163.469 172.39L163.131 172.24L162.02 171.751C161.309 171.44 161.364 170.49 162.153 169.585C162.942 168.679 164.175 168.141 164.969 168.363L166.219 168.707L166.591 168.807L167.43 169.035L167.83 169.146L168.657 169.374C168.763 169.418 168.719 169.652 168.524 170.018Z" fill="#455A64"/>
<path d="M167.853 168.729C167.849 168.713 167.84 168.699 167.828 168.688C167.816 168.677 167.802 168.67 167.786 168.667L166.603 168.34C166.515 168.334 166.428 168.36 166.357 168.413C166.287 168.466 166.238 168.542 166.22 168.629C166.22 168.629 166.22 168.673 166.22 168.701C165.934 169.398 165.517 170.033 164.992 170.573C164.467 171.222 163.843 171.784 163.142 172.239L163.048 172.283C162.956 172.32 162.88 172.386 162.831 172.472C162.792 172.55 162.804 172.617 162.865 172.645L163.937 173.111C163.976 173.125 164.019 173.125 164.059 173.111C164.255 173.058 164.442 172.975 164.614 172.867C165.327 172.366 165.971 171.774 166.531 171.106C167.075 170.527 167.519 169.863 167.847 169.14C167.879 169.048 167.898 168.953 167.903 168.856C167.895 168.811 167.878 168.767 167.853 168.729ZM166.186 171C165.645 171.69 164.978 172.271 164.22 172.711L163.476 172.389C164.147 171.896 164.759 171.325 165.298 170.689C165.815 170.128 166.248 169.494 166.581 168.806L167.419 169.034C167.436 169.328 166.919 170.145 166.181 171H166.186Z" fill="#455A64"/>
<path d="M167.413 169.035C167.413 169.33 166.919 170.146 166.18 171.002C165.639 171.692 164.972 172.272 164.214 172.712L163.47 172.39C164.142 171.897 164.753 171.327 165.292 170.691C165.809 170.129 166.242 169.495 166.575 168.808L167.413 169.035Z" fill="#FF725E"/>
<path d="M108.569 182.394C106.775 182.394 104.47 183.86 103.437 185.654C102.404 187.448 103.026 188.909 104.809 188.909C106.609 188.909 108.908 187.443 109.947 185.649C110.234 185.175 110.404 184.64 110.441 184.088C110.502 183.082 109.802 182.394 108.569 182.394ZM109.558 185.649C108.647 187.226 106.631 188.509 105.048 188.509C103.465 188.509 102.926 187.232 103.837 185.654C104.748 184.077 106.764 182.799 108.342 182.793C109.919 182.788 110.463 184.071 109.558 185.649Z" fill="#455A64"/>
<path d="M208.196 78.1897C205.879 81.2725 201.203 86.7993 198.881 89.7155C197.651 91.2388 196.986 93.1403 196.998 95.0979C196.998 96.5476 197.414 97.7585 198.831 97.142C199.858 96.692 200.497 96.1644 202.008 94.6868C203.352 93.3593 211.129 83.5277 211.129 83.5277C211.129 83.5277 211.767 78.0175 213.778 77.4176C215.789 76.8177 213.056 75.1514 213.056 75.1514C212.206 75.2458 210.534 75.0792 208.196 78.1897Z" fill="#9A4A4D"/>
<path d="M179.745 151.906L165.226 168.481C165.132 168.585 165.009 168.657 164.873 168.688C164.737 168.719 164.595 168.707 164.466 168.653C164.337 168.599 164.228 168.507 164.154 168.388C164.08 168.27 164.045 168.131 164.053 167.992L165.498 145.879L179.745 151.906Z" fill="#FFA8A7"/>
<path d="M164.053 167.992C164.045 168.132 164.08 168.27 164.154 168.389C164.228 168.507 164.337 168.6 164.466 168.654C164.595 168.707 164.737 168.72 164.873 168.689C165.009 168.658 165.132 168.585 165.226 168.481L168.058 165.243C167.38 165.313 166.695 165.195 166.08 164.901C165.464 164.607 164.942 164.148 164.57 163.576L164.359 163.26L164.053 167.992Z" fill="#263238"/>
<path d="M201.042 59.9766L200.264 61.8651L199.314 64.1369L165.492 145.873C166.385 148.194 168.124 150.091 170.358 151.183C173.691 152.96 177.685 153.282 179.729 151.899L213.262 70.7636L215.061 66.4143C213.762 69.1638 199.736 62.7539 201.042 59.9766Z" fill="#FF725E"/>
<path d="M198.036 67.1436L196.303 71.3595C195.747 72.5648 198.036 74.4201 200.93 75.9254C204.762 77.9417 209.673 79.3414 210.373 77.7473L211.656 74.6422L212.094 73.5313C211.372 75.1255 206.462 73.7313 202.624 71.715C199.847 70.2652 197.625 68.4878 197.969 67.2713C197.98 67.2237 198.003 67.1797 198.036 67.1436Z" fill="#EBEBEB"/>
<path d="M197.615 68.1928C196.349 70.9701 210.43 77.3745 211.696 74.5806L213.446 70.3646C212.179 73.1419 198.098 66.7764 199.365 63.9824L197.615 68.1928Z" fill="#FF725E"/>
<path d="M201.041 59.9766L199.314 64.1369C198.036 66.8698 211.595 73.1909 213.261 70.7636C213.297 70.7171 213.326 70.6668 213.35 70.6136L215.061 66.4143C213.761 69.1638 199.736 62.7539 201.041 59.9766Z" fill="#EBEBEB"/>
<path opacity="0.1" d="M213.262 70.7646L215.061 66.4154C214.461 67.6596 211.273 67.0264 208.074 65.71L173.052 152.273L165.226 168.481L179.745 151.906L213.262 70.7646Z" fill="black"/>
<path d="M208.34 42.3356L201.041 59.9769C200.486 61.1656 202.708 63.0153 205.596 64.5261C209.423 66.5536 214.344 67.9922 215.1 66.4147L222.149 49.4288C224.115 45.6072 217.333 40.797 212.461 40.5415C210.617 40.4193 209.073 40.9081 208.34 42.3356Z" fill="#FFA8A7"/>
<path d="M215.083 48.1572L208.095 65.7042C210.945 66.8762 213.772 67.5038 214.761 66.7484C214.833 66.6892 214.899 66.6242 214.961 66.554C214.994 66.504 215.033 66.4651 215.061 66.4151L222.309 48.9238C221.41 51.0234 215.083 48.1572 215.083 48.1572Z" fill="#F28F8F"/>
<path d="M236.973 164.426L232.968 165.62L231.235 159.783L235.329 158.383L236.973 164.426Z" fill="#B16668"/>
<path d="M232.38 163.643L232.208 163.088C231.874 163.365 231.774 166.909 230.836 168.953C229.814 171.175 228.731 172.775 228.275 173.78C227.664 175.124 230.041 175.835 232.669 174.541C233.969 173.897 236.057 172.219 236.39 171.142C236.724 170.064 236.607 168.67 236.896 167.864C237.185 167.059 238.084 166.004 238.123 165.165C237.99 164.431 237.698 163.735 237.268 163.126C236.874 162.477 236.44 161.754 236.218 161.893C236.218 161.982 236.346 162.332 236.346 162.332C235.961 163.027 235.382 163.594 234.68 163.965C234.052 164.287 232.591 164.337 232.38 163.643Z" fill="#263238"/>
<path d="M227.047 97.8542C229.463 100.954 229.897 104.153 229.369 113.213C228.841 122.272 228.68 129.876 228.813 130.36C228.947 130.843 231.791 134.509 232.702 137.825C233.613 141.141 236.107 159.927 236.107 159.927C235.56 160.602 234.864 161.14 234.074 161.499C233.283 161.857 232.419 162.027 231.552 161.993C231.552 161.993 221.47 134.542 220.793 132.498C220.115 130.454 215.793 108.991 215.793 108.991L216.449 96.8711L227.047 97.8542Z" fill="#37474F"/>
<path d="M216.539 71.1655H219.872C221.969 71.1655 223.98 70.3329 225.463 68.8508C226.946 67.3686 227.78 65.3582 227.781 63.2613C227.781 60.7201 226.772 58.283 224.975 56.4861C223.178 54.6892 220.741 53.6797 218.2 53.6797C215.659 53.6797 213.221 54.6892 211.425 56.4861C209.628 58.283 208.618 60.7201 208.618 63.2613C208.618 64.3007 208.823 65.3299 209.221 66.29C209.62 67.2501 210.203 68.1222 210.939 68.8563C211.675 69.5905 212.548 70.1724 213.509 70.5686C214.47 70.9649 215.5 71.1677 216.539 71.1655Z" fill="#263238"/>
<path d="M211.511 156.762L207.334 156.707L207.253 162.794L211.43 162.85L211.511 156.762Z" fill="#B16668"/>
<path d="M208.595 108.276C208.967 104.093 209.862 96.8445 209.862 96.8445L220.56 96.2168C222.293 98.9163 221.537 103.438 221.065 107.47L214.955 131.422C215.077 132.572 216.133 135.004 214.955 141.17C213.639 148.058 211.684 157.928 211.684 157.928C211.684 157.928 208.634 159.461 207.129 157.789C207.129 157.789 206.323 135.404 206.89 129.461C207.495 122.995 208.345 111.142 208.595 108.276Z" fill="#37474F"/>
<path d="M207.296 160.716V160.116C206.896 160.283 205.74 163.638 204.241 165.31C202.602 167.137 201.091 168.331 200.352 169.154C199.375 170.264 201.43 171.642 204.318 171.187C205.757 170.964 208.251 169.976 208.884 169.054C209.517 168.131 209.829 166.754 210.345 166.076C210.862 165.399 212.011 164.649 212.317 163.854C212.412 163.107 212.34 162.348 212.106 161.633C211.923 160.894 211.723 160.077 211.473 160.144C211.473 160.233 211.473 160.599 211.473 160.599C210.893 161.147 210.168 161.515 209.384 161.66C208.707 161.799 207.29 161.444 207.296 160.716Z" fill="#263238"/>
<path d="M211.134 88.4624C210.867 90.9064 209.29 101.521 209.29 101.521C217.355 105.82 227.359 102.971 228.886 101.199C227.503 96.6332 226.009 94.0336 224.87 92.8227L226.592 86.1128C226.592 86.1128 222.704 81.9691 226.164 75.4424L221.887 75.0925L215.611 74.9092C214.111 74.9925 213.039 75.1369 213.039 75.1369C211.892 77.0405 210.909 79.038 210.101 81.1081C209.478 82.73 208.817 85.1018 211.134 88.4624Z" fill="#F0F0F0"/>
<path d="M212.051 57.8525C211.04 58.4524 209.79 60.9964 209.912 66.3344C210.018 70.8558 211.484 71.9723 212.217 72.2945C212.95 72.6166 214.372 72.4222 215.756 72.1889V74.9051C215.756 74.9051 213.845 77.1269 213.967 78.3656C214.089 79.6043 216.744 79.9042 218.505 78.6878C219.796 77.6863 220.908 76.473 221.793 75.0995L221.76 68.8617C221.76 68.8617 222.577 69.6505 223.954 68.4451C225.065 67.4509 225.471 65.7789 224.587 64.8791C224.357 64.665 224.08 64.5087 223.778 64.4229C223.476 64.3371 223.157 64.3243 222.849 64.3856C222.541 64.4469 222.252 64.5805 222.006 64.7754C221.759 64.9703 221.563 65.221 221.432 65.5068C221.432 65.5068 219.21 65.5845 216.305 63.9737C215.165 63.3601 214.185 62.486 213.445 61.4223C212.706 60.3587 212.228 59.1356 212.051 57.8525Z" fill="#B16668"/>
<path d="M214.961 65.1929C214.952 65.2708 214.96 65.3497 214.984 65.4243C215.008 65.4989 215.048 65.5676 215.1 65.6258C215.153 65.6841 215.217 65.7305 215.289 65.7622C215.36 65.7938 215.438 65.81 215.516 65.8095C215.633 65.8159 215.749 65.7877 215.849 65.7283C215.949 65.6689 216.03 65.581 216.08 65.4758C216.13 65.3706 216.148 65.2529 216.132 65.1374C216.115 65.022 216.064 64.9142 215.986 64.8275C215.908 64.7409 215.806 64.6793 215.693 64.6508C215.58 64.6222 215.461 64.6278 215.351 64.667C215.241 64.7061 215.146 64.777 215.076 64.8706C215.007 64.9643 214.967 65.0764 214.961 65.1929Z" fill="#263238"/>
<path d="M214.811 69.0273L213.489 69.4495C213.514 69.5379 213.555 69.6206 213.612 69.6927C213.669 69.7648 213.739 69.8249 213.819 69.8694C213.899 69.9139 213.988 69.9419 214.079 69.9518C214.17 69.9618 214.262 69.9534 214.35 69.9272C214.527 69.8639 214.673 69.7356 214.759 69.5685C214.844 69.4013 214.863 69.2078 214.811 69.0273Z" fill="#9A4A4D"/>
<path d="M210.3 63.4488L211.45 62.6489C211.402 62.5716 211.338 62.5049 211.263 62.4529C211.188 62.4009 211.104 62.3647 211.014 62.3465C210.925 62.3283 210.833 62.3285 210.743 62.3471C210.654 62.3656 210.569 62.4022 210.495 62.4545C210.342 62.5642 210.236 62.7283 210.2 62.9131C210.164 63.0979 210.2 63.2895 210.3 63.4488Z" fill="#263238"/>
<path d="M210.562 64.7833C210.562 64.8911 210.594 64.9966 210.653 65.0867C210.713 65.1769 210.797 65.2478 210.896 65.2908C210.995 65.3339 211.104 65.3472 211.211 65.3291C211.317 65.311 211.416 65.2624 211.495 65.1891C211.574 65.1157 211.63 65.021 211.656 64.9163C211.682 64.8117 211.678 64.7016 211.642 64.5997C211.607 64.4977 211.543 64.4083 211.457 64.3422C211.372 64.2762 211.269 64.2364 211.162 64.2278C211.009 64.2233 210.861 64.2789 210.748 64.3828C210.636 64.4867 210.569 64.6305 210.562 64.7833Z" fill="#263238"/>
<path d="M213.245 64.4619L213.156 67.8835L211.356 67.3281L213.245 64.4619Z" fill="#9A4A4D"/>
<path d="M215.755 72.1867C217.211 71.9978 220.199 71.1369 220.666 69.9648C220.479 70.564 220.112 71.0914 219.616 71.4757C218.722 72.2422 215.755 73.1032 215.755 73.1032V72.1867Z" fill="#9A4A4D"/>
<path d="M227.703 64.7504L229.741 63.2563C229.65 63.1181 229.532 62.9999 229.393 62.9088C229.255 62.8176 229.1 62.7554 228.937 62.7258C228.774 62.6962 228.607 62.6999 228.445 62.7367C228.284 62.7734 228.131 62.8425 227.997 62.9396C227.726 63.1464 227.544 63.4495 227.489 63.7864C227.434 64.1232 227.511 64.4683 227.703 64.7504Z" fill="#263238"/>
<path d="M217.704 118.441L215.955 109.648C214.409 109.1 212.941 108.353 211.589 107.426C212.453 108.519 213.484 109.47 214.644 110.242L217.704 118.441Z" fill="#263238"/>
<path d="M226.592 71.2041C224.737 70.2653 224.993 68.5101 225.931 66.6493C226.87 64.7885 228.125 63.5387 229.986 64.4719C230.846 64.9406 231.49 65.7254 231.782 66.6603C232.073 67.5951 231.99 68.6068 231.549 69.4813C231.108 70.3558 230.344 71.0245 229.419 71.346C228.494 71.6675 227.48 71.6166 226.592 71.2041Z" fill="#263238"/>
<path d="M196.665 98.9883C197.598 99.2327 198.503 99.1549 199.792 99.5993C200.648 99.9708 201.582 100.129 202.514 100.06C203.725 99.9825 206.885 98.4883 209.69 96.7831C212.768 94.7849 215.479 92.2729 217.705 89.3566C220.244 85.7628 223.054 80.0916 224.399 77.9253C225.743 75.759 226.204 75.4424 226.204 75.4424C227.959 75.5146 229.703 77.1088 228.537 81.408C227.57 84.9518 224.976 89.5455 221.782 93.4115C219.356 96.2698 216.475 98.7094 213.256 100.632C210.29 102.443 207.702 103.343 204.369 104.448C203.469 104.748 202.88 105.193 201.236 105.97C200.574 106.329 199.863 106.589 199.125 106.742C198.204 106.875 197.269 106.875 196.348 106.742C195.178 106.581 194.072 106.107 193.149 105.37C192.643 104.968 192.237 104.452 191.965 103.865C191.696 103.27 191.645 102.6 191.821 101.971C191.853 101.844 191.919 101.727 192.01 101.632C192.106 101.563 192.215 101.514 192.33 101.488C192.446 101.461 192.565 101.457 192.682 101.477C194.028 101.61 195.379 101.675 196.731 101.671C197.842 101.593 198.614 101.382 198.453 101.227C198.292 101.071 197.648 101.16 196.759 100.777C195.87 100.394 195.287 99.5493 195.532 99.1105C195.776 98.6717 195.731 98.7439 196.665 98.9883Z" fill="#B16668"/>
<path d="M190.532 85.3402C191.818 84.7823 193.236 84.605 194.62 84.8292C195.731 85.0125 195.731 88.7174 192.159 89.9005C189.832 90.6615 188.432 90.3227 187.682 92.239C187.682 92.239 186.172 92.039 186.516 89.9005C186.894 87.6921 187.885 85.6344 189.376 83.9627C190.399 82.7518 190.487 81.7408 190.971 82.0741C191.454 82.4074 191.276 83.5905 191.276 83.5905L190.532 85.3402Z" fill="#B16668"/>
<path d="M46.3281 88.0465C48.8055 91.0071 53.3214 96.6561 55.6432 99.5723C56.8752 101.094 57.5408 102.997 57.5262 104.955C57.5262 106.404 57.1151 107.615 55.6932 106.999C54.6711 106.549 54.0268 106.021 52.5215 104.544C51.1773 103.216 46.4115 97.4893 46.4115 97.4893C46.4115 97.4893 42.7565 87.8743 40.7458 87.2633C39.6488 86.9019 38.4942 86.7474 37.3408 86.8079C39.7682 85.9691 43.1842 84.3027 46.3281 88.0465Z" fill="#F28F8F"/>
<path d="M36.1416 84.8877C38.6245 83.0213 42.8071 83.5046 45.1511 86.3152C46.8564 88.3759 50.9057 93.4029 50.9057 93.4029C50.4115 94.5037 49.692 95.4887 48.7936 96.2942C47.8952 97.0998 46.8379 97.7081 45.6899 98.0798L36.1416 84.8877Z" fill="#E0E0E0"/>
<path d="M83.6625 151.21C83.6625 151.21 76.6859 125.92 66.8488 102.08C57.0894 78.4672 42.042 54.5103 39.5258 50.8943L39.4924 50.8498L39.4536 50.7943C39.2133 50.4752 38.8788 50.2398 38.4975 50.1211C38.1161 50.0025 37.7071 50.0067 37.3282 50.1332C36.9494 50.2597 36.6199 50.5021 36.3863 50.826C36.1527 51.15 36.0268 51.5391 36.0264 51.9385C36.0259 52.0844 36.0427 52.2298 36.0764 52.3718C36.0764 52.3718 42.7419 85.0772 52.368 108.301C61.994 131.525 75.1417 154.765 75.1417 154.765C75.3553 155.071 75.6361 155.323 75.9626 155.503C76.289 155.683 76.6524 155.786 77.0247 155.804C78.164 155.89 79.3075 155.707 80.3631 155.27C81.4187 154.833 82.3567 154.154 83.1015 153.287C83.3473 153.007 83.5257 152.674 83.6229 152.314C83.7201 151.954 83.7337 151.576 83.6625 151.21Z" fill="#FF725E"/>
<path opacity="0.1" d="M36.0195 51.9619C36.0191 52.1078 36.0358 52.2532 36.0695 52.3951C36.0695 52.3951 42.735 85.1005 52.3611 108.324C58.8211 123.949 66.8808 139.574 71.4689 148.134L76.5013 144.946C76.5013 144.946 36.4361 50.7732 37.9303 50.0566C37.6797 50.0559 37.4313 50.1047 37.1995 50.2001C36.9677 50.2955 36.757 50.4357 36.5795 50.6127C36.402 50.7897 36.2612 51 36.1651 51.2315C36.069 51.463 36.0195 51.7112 36.0195 51.9619Z" fill="black"/>
<path d="M75.1126 154.787C74.3017 158.869 72.8908 164.113 75.457 170.923C78.351 178.655 87.1217 180.788 91.332 180.793C97.2032 180.793 100.919 178.616 100.919 178.616C100.919 178.616 97.8809 177.449 96.6255 173.061C96.3762 172.105 96.2236 171.126 96.1701 170.139C95.8979 166.584 95.7813 162.713 92.6762 158.419C90.4248 155.201 87.2982 152.695 83.6667 151.198L75.1126 154.787Z" fill="#EBEBEB"/>
<path d="M96.6145 173.061C96.3651 172.105 96.2125 171.126 96.159 170.14C96.159 170.167 95.0981 174.772 92.5041 174.5C89.9101 174.228 89.1713 171.467 85.7219 171.467C81.5282 171.467 80.084 174.989 76.4902 173.089C80.0896 179.138 87.505 180.788 91.321 180.793C97.1922 180.793 100.908 178.616 100.908 178.616C100.908 178.616 97.8809 177.449 96.6145 173.061Z" fill="#FF725E"/>
<path opacity="0.1" d="M85.6608 174.544C78.8731 169.839 80.1507 157.325 80.3506 155.286L75.1126 154.786C74.3017 158.869 72.8908 164.112 75.457 170.922C78.351 178.654 87.1217 180.787 91.332 180.793C97.2032 180.793 100.919 178.615 100.919 178.615C100.919 178.615 93.6094 180.059 85.6608 174.544Z" fill="black"/>
<path d="M75.1131 154.787C75.3267 155.093 75.6075 155.345 75.9339 155.526C76.2604 155.706 76.6237 155.808 76.9961 155.826C78.1354 155.912 79.2789 155.73 80.3345 155.292C81.3901 154.855 82.3281 154.176 83.0728 153.31C83.3274 153.03 83.5136 152.694 83.6167 152.33C83.7198 151.966 83.7371 151.582 83.6672 151.21C82.6785 147.7 81.5398 143.895 80.3011 139.896C80.5455 140.673 80.3011 141.629 79.5735 142.606C78.6349 143.702 77.4511 144.561 76.1182 145.113C74.7853 145.665 73.341 145.894 71.9026 145.783C70.6472 145.622 69.8029 145.078 69.4419 144.334C71.6193 148.405 73.6523 152.21 75.1131 154.787Z" fill="#455A64"/>
<path d="M76.5018 144.944C75.0741 145.639 73.4835 145.929 71.9026 145.783C70.6472 145.622 69.8029 145.077 69.4419 144.333C71.6082 148.405 73.6523 152.209 75.1131 154.787C75.3267 155.092 75.6075 155.345 75.9339 155.525C76.2604 155.705 76.6237 155.808 76.9961 155.825C78.1361 155.925 79.2827 155.734 80.3289 155.27L80.39 155.164L76.5018 144.927V144.944Z" fill="#37474F"/>
<path d="M41.0309 76.0713C44.2703 75.3068 46.2766 72.0608 45.512 68.8214C44.7474 65.5819 41.5015 63.5756 38.262 64.3402C35.0226 65.1048 33.0163 68.3507 33.7809 71.5902C34.5455 74.8296 37.7914 76.8359 41.0309 76.0713Z" fill="#263238"/>
<path d="M25.2265 179.411H29.4702V172.146H25.2265V179.411Z" fill="#FFA8A7"/>
<path d="M39.9351 171.757L44.1788 171.901L44.3898 164.214L40.1517 164.069L39.9351 171.757Z" fill="#FFA8A7"/>
<path d="M25.5157 114.557C25.5157 118.611 24.9602 143.168 24.9602 143.168C24.8603 144.335 23.7716 146.501 24.0049 150.945C24.327 157.027 24.8547 172.846 24.8547 172.846C24.8547 172.846 26.8432 174.818 29.6539 172.846C29.6539 172.846 33.4976 150.967 34.2531 144.935C34.9585 139.691 36.0694 125.41 36.0694 125.41L40.0021 142.235C40.0021 142.235 39.3077 146.19 39.1578 148.978C39.0078 151.767 39.8743 166.386 39.8743 166.386C40.5624 166.816 41.3512 167.059 42.162 167.089C42.9729 167.119 43.7775 166.936 44.4957 166.559C44.4957 166.559 47.9007 144.513 48.3395 141.991C48.7783 139.469 45.3567 114.568 45.3567 114.568L25.5157 114.557Z" fill="#37474F"/>
<path d="M29.581 85.2445C28.6765 85.4024 27.8392 85.825 27.1748 86.4587C26.5104 87.0925 26.0488 87.9089 25.8483 88.805C25.6177 89.8633 25.5023 90.9434 25.5039 92.0266V114.556C28.4756 117.794 38.8349 119.3 45.3504 114.556C45.3504 114.556 45.2227 94.6595 44.7339 91.3878C43.8896 85.7055 41.1734 83.6836 38.4405 83.8947L31.8917 84.8612L29.581 85.2445Z" fill="#F0F0F0"/>
<path d="M29.2373 74.4873C29.2373 74.4873 30.2149 79.0754 30.6037 79.8308C30.8667 80.2934 31.2956 80.6388 31.8035 80.7973L31.7369 77.5701L29.2373 74.4873Z" fill="#263238"/>
<path d="M30.4648 67.9131C30.1231 67.874 29.777 67.9132 29.4527 68.0277C29.1283 68.1423 28.8343 68.3291 28.5929 68.5741C27.7875 69.3962 28.2375 71.968 29.2373 74.4842L31.0758 74.6953L30.4648 67.9131Z" fill="#263238"/>
<path d="M31.626 74.7014C31.2594 74.9181 30.7317 74.2126 30.2763 73.7349C29.8208 73.2572 28.3377 72.624 27.5989 74.1682C26.8602 75.7124 28.2544 77.862 29.4208 78.2286C31.4372 78.8618 31.7371 77.5676 31.7371 77.5676L31.8926 84.8608C32.3371 85.8352 33.0162 86.6841 33.8693 87.3317C34.7223 87.9792 35.7227 88.4051 36.7807 88.5712C40.3523 89.0545 39.6191 86.1105 38.447 84.683V82.4612C39.3448 82.6048 40.2553 82.6533 41.1632 82.6056C42.6463 82.3723 43.5795 81.2059 44.0238 79.6006C44.7459 77.0288 45.0237 74.9458 44.4071 69.8856C43.7406 64.331 37.2806 64.2755 33.7979 66.4695C30.3151 68.6636 31.626 74.7014 31.626 74.7014Z" fill="#FFA8A7"/>
<path d="M31.625 75.3183C31.4417 75.3183 30.7363 74.1518 30.2753 73.7352C29.642 73.1798 30.4641 67.914 30.4641 67.914C30.2958 67.461 30.264 66.9686 30.3726 66.4977C30.4812 66.0268 30.7254 65.598 31.0751 65.2645C31.9472 64.3091 33.4025 64.198 35.891 63.8092C37.1907 63.6037 39.1682 63.2537 40.4735 62.9982C42.0288 62.7094 43.3174 62.4039 44.4117 63.3593C44.8405 63.7335 45.144 64.2304 45.2811 64.7828C45.4182 65.3351 45.3823 65.9163 45.1782 66.4476C45.0642 66.689 44.9144 66.9119 44.7338 67.1086C44.4384 67.4585 44.0549 67.7231 43.6229 67.8751C43.6229 67.8751 42.9453 68.4806 40.5846 68.7639C38.4063 68.9275 36.2175 68.8866 34.0468 68.6417C33.3636 68.5472 33.2192 69.1971 32.847 71.0246C32.5193 72.641 32.2471 75.3072 31.625 75.3183Z" fill="#263238"/>
<path d="M30.4655 68.325L28.2437 67.1252C28.3151 66.978 28.4153 66.8465 28.5383 66.7386C28.6613 66.6306 28.8046 66.5483 28.9599 66.4966C29.1151 66.4448 29.2792 66.4246 29.4423 66.4372C29.6055 66.4498 29.7645 66.4949 29.91 66.5698C30.2106 66.7348 30.436 67.0093 30.5394 67.3361C30.6428 67.663 30.6164 68.0172 30.4655 68.325Z" fill="#263238"/>
<path d="M38.435 82.428C38.435 82.428 35.1022 81.767 33.9913 81.1504C33.3111 80.7956 32.7536 80.2439 32.3916 79.5674C32.5629 80.2437 32.8689 80.8785 33.2914 81.4337C34.1357 82.5169 38.4405 83.3112 38.4405 83.3112L38.435 82.428Z" fill="#F28F8F"/>
<path d="M37.6411 73.873C37.6378 74.0029 37.5963 74.1291 37.5217 74.2356C37.4471 74.342 37.3428 74.4242 37.2217 74.4716C37.1007 74.5191 36.9684 74.5299 36.8413 74.5025C36.7142 74.4752 36.5979 74.4109 36.5072 74.3178C36.4164 74.2248 36.3551 74.107 36.3309 73.9793C36.3067 73.8515 36.3207 73.7195 36.3712 73.5997C36.4217 73.4798 36.5064 73.3776 36.6147 73.3057C36.723 73.2337 36.8501 73.1954 36.9801 73.1953C37.0681 73.196 37.1551 73.2142 37.2361 73.2487C37.317 73.2832 37.3904 73.3334 37.4518 73.3964C37.5133 73.4594 37.5616 73.534 37.5941 73.6158C37.6266 73.6976 37.6426 73.785 37.6411 73.873Z" fill="#263238"/>
<path d="M36.9418 71.3748L35.5142 72.1524C35.4183 71.9601 35.3987 71.7386 35.4595 71.5325C35.5203 71.3264 35.657 71.1509 35.8419 71.0415C35.9353 70.9879 36.0386 70.9539 36.1456 70.9416C36.2525 70.9294 36.3609 70.9392 36.4639 70.9704C36.5669 71.0016 36.6625 71.0536 36.7447 71.1232C36.8268 71.1927 36.8939 71.2784 36.9418 71.3748Z" fill="#263238"/>
<path d="M38.1353 78.4502L39.6517 79.0057C39.6186 79.107 39.5655 79.2007 39.4955 79.2811C39.4254 79.3616 39.3399 79.4271 39.244 79.4737C39.1481 79.5204 39.0438 79.5472 38.9373 79.5527C38.8308 79.5582 38.7243 79.5421 38.6241 79.5056C38.4229 79.4258 38.26 79.2719 38.169 79.0755C38.078 78.8791 38.066 78.6552 38.1353 78.4502Z" fill="#F28F8F"/>
<path d="M43.5515 71.9242L42.2573 70.93C42.3179 70.8444 42.3951 70.7719 42.4843 70.7168C42.5734 70.6616 42.6728 70.6249 42.7764 70.6089C42.88 70.5928 42.9857 70.5977 43.0874 70.6233C43.1891 70.6489 43.2846 70.6946 43.3682 70.7578C43.5428 70.8914 43.6593 71.0871 43.6934 71.3043C43.7276 71.5215 43.6768 71.7435 43.5515 71.9242Z" fill="#263238"/>
<path d="M43.152 73.6868C43.1465 73.8162 43.1032 73.9412 43.0273 74.0462C42.9515 74.1512 42.8464 74.2315 42.7253 74.2773C42.6041 74.3231 42.4722 74.3323 42.3458 74.3038C42.2195 74.2752 42.1043 74.2102 42.0147 74.1167C41.925 74.0233 41.8647 73.9055 41.8414 73.7781C41.818 73.6507 41.8327 73.5193 41.8834 73.4001C41.9341 73.2809 42.0188 73.1793 42.1268 73.1078C42.2348 73.0363 42.3615 72.9982 42.491 72.998C42.5799 72.9987 42.6679 73.0172 42.7496 73.0524C42.8313 73.0877 42.9051 73.1389 42.9667 73.203C43.0283 73.2672 43.0764 73.3431 43.1083 73.4262C43.1401 73.5093 43.1549 73.5979 43.152 73.6868Z" fill="#263238"/>
<path d="M39.7803 73.0566L39.9969 77.0393L42.0743 76.3338L39.7803 73.0566Z" fill="#F28F8F"/>
<path d="M29.4654 177.312V176.706C29.8764 176.884 30.8151 180.483 32.5037 182.016C33.8424 183.238 35.6643 184.649 36.1309 186.01C36.5975 187.371 33.5869 188.232 32.3371 187.987C30.8818 187.726 28.3656 186.704 27.7323 185.766C27.0991 184.827 26.8047 183.422 26.2937 182.727C25.7827 182.033 24.594 181.255 24.3163 180.45C24.1607 180.005 24.3163 179.039 24.5607 178.228C24.8051 177.417 24.9662 176.651 25.2217 176.723C25.2217 176.812 25.2217 177.184 25.2217 177.184C25.8251 177.66 26.5748 177.913 27.3435 177.9C27.9656 177.911 29.4709 177.784 29.4654 177.312Z" fill="#263238"/>
<path d="M44.2238 170.59C44.4459 170.59 44.6237 170.912 45.1069 171.435C45.8343 172.169 46.6791 172.777 47.6065 173.234C49.1951 174.029 52.2835 175.251 53.6832 175.884C54.5553 176.273 54.5164 177.328 53.611 177.933C52.7056 178.539 50.5282 178.961 47.912 178.378C46.4845 178.061 44.6292 176.745 43.4683 176.811C42.3074 176.878 40.0911 176.867 39.2246 176.256C38.3581 175.645 38.7025 174.379 38.9525 173.284C39.2191 172.084 39.6023 170.251 39.9967 170.335V170.712C40.5077 171.485 43.1017 171.823 44.2238 171.229V170.59Z" fill="#263238"/>
<path d="M36.0693 125.41C38.263 124.725 40.2802 123.569 41.9794 122.021C41.9794 122.021 40.8352 124.154 37.4469 126.143L38.7189 136.991L36.0693 125.41Z" fill="#263238"/>
<path d="M59.8144 109.565C58.8812 109.803 57.9813 109.726 56.6927 110.17C55.8349 110.544 54.8985 110.703 53.9654 110.631C52.76 110.559 49.5939 109.059 46.7889 107.359C43.7202 105.356 41.0169 102.842 38.7958 99.9274C36.2574 96.3336 33.4467 90.6679 32.1303 88.5016C30.8139 86.3353 29.5141 86.102 28.0199 86.1687C26.2647 86.2409 25.1426 87.8351 26.6868 91.1678C28.8916 95.7131 31.5968 99.9981 34.7521 103.943C37.1766 106.802 40.0554 109.241 43.2728 111.164C46.2389 112.981 48.8274 113.875 52.1601 114.98C53.06 115.28 53.6543 115.725 55.2985 116.502C55.9585 116.863 56.6677 117.125 57.4037 117.28C58.3245 117.415 59.2601 117.415 60.181 117.28C61.351 117.121 62.4563 116.649 63.3804 115.913C63.8894 115.51 64.2966 114.992 64.5691 114.403C64.8365 113.807 64.8857 113.137 64.7079 112.509C64.6762 112.382 64.6132 112.265 64.5246 112.17C64.3287 112.034 64.0882 111.978 63.8525 112.014C62.5052 112.15 61.1518 112.217 59.7977 112.214C58.6868 112.131 57.9202 111.925 58.0758 111.77C58.2313 111.614 58.8867 111.703 59.7755 111.32C60.6642 110.937 61.2419 110.087 61.003 109.653C60.7642 109.22 60.7475 109.326 59.8144 109.565Z" fill="#FFA8A7"/>
<path d="M28.5649 85.5479C27.2152 85.6145 25.471 86.4366 25.5044 88.7417C25.5377 91.0469 29.076 97.7402 31.8033 101.562C31.8033 101.562 36.0636 101.29 38.2966 98.079C38.2966 98.079 34.3195 91.7523 33.2419 89.7471C32.2699 87.9197 30.5146 85.4479 28.5649 85.5479Z" fill="#E0E0E0"/>
<path d="M63.8431 95.126C62.6163 94.6082 61.2655 94.4577 59.9548 94.6927C58.8439 94.876 58.8439 98.581 62.4155 99.7641C64.7429 100.525 66.1427 100.192 66.8925 102.103C66.8925 102.103 68.3978 101.903 68.059 99.7641C67.6854 97.5587 66.7022 95.5019 65.2206 93.8262C64.193 92.6153 64.1097 91.6044 63.6209 91.9432C63.1321 92.2821 63.1376 93.5263 63.1376 93.5263L63.8431 95.126Z" fill="#FFA8A7"/>
<path d="M161.383 110.51L140.998 110.232L140.82 126.896C140.82 128.401 141.781 129.918 143.758 131.09C147.719 133.434 154.173 133.501 158.2 131.245C160.222 130.107 161.233 128.596 161.227 127.074L161.383 110.51Z" fill="#37474F"/>
<path d="M144.03 106.105C140.025 108.366 139.986 112.093 143.941 114.437C147.896 116.781 154.35 116.848 158.355 114.592C162.36 112.337 162.404 108.61 158.449 106.261C154.494 103.911 148.034 103.85 144.03 106.105Z" fill="#455A64"/>
<path d="M160.494 110.444C160.489 110.716 160.441 110.986 160.35 111.244C160.044 112.199 159.211 113.082 157.911 113.815C155.801 114.849 153.478 115.374 151.129 115.349C148.779 115.324 146.468 114.749 144.38 113.671C143.125 112.927 142.303 112.005 142.014 111.099C141.917 110.825 141.868 110.535 141.87 110.244C141.87 109.005 142.803 107.805 144.458 106.911C146.569 105.882 148.892 105.359 151.241 105.384C153.59 105.409 155.9 105.981 157.989 107.055C159.633 107.994 160.494 109.199 160.494 110.444Z" fill="#263238"/>
<path d="M160.361 111.243C160.055 112.198 159.222 113.082 157.922 113.815C155.812 114.848 153.489 115.373 151.14 115.348C148.79 115.323 146.479 114.748 144.391 113.67C143.136 112.926 142.314 112.004 142.025 111.099C142.489 109.968 143.361 109.054 144.469 108.538C146.577 107.498 148.901 106.969 151.252 106.994C153.602 107.019 155.914 107.598 158 108.682C159.072 109.22 159.912 110.131 160.361 111.243Z" fill="#FF725E"/>
<path d="M155.535 116.75C155.985 116.5 156.34 116.711 156.335 117.222C156.317 117.501 156.233 117.772 156.092 118.013C155.95 118.254 155.753 118.459 155.518 118.61C155.068 118.86 154.713 118.649 154.718 118.138C154.736 117.859 154.82 117.588 154.961 117.347C155.103 117.106 155.3 116.901 155.535 116.75Z" fill="#263238"/>
<path d="M140.964 113.188C139.853 115.41 137.631 120.654 140.509 122.798C140.631 122.887 140.742 122.964 140.864 123.042V124.103C140.575 123.931 140.275 123.731 139.987 123.52C135.66 120.309 140.542 112.083 140.753 111.739C140.807 111.646 140.895 111.579 140.997 111.55L140.964 113.188Z" fill="#E0E0E0"/>
<path d="M155.917 117.886C155.795 118.141 152.645 124.162 147.463 125.373C146.877 125.515 146.277 125.585 145.674 125.584C143.956 125.552 142.283 125.028 140.853 124.074V123.013C142.992 124.496 145.147 125.007 147.252 124.518C152.034 123.407 155.095 117.53 155.117 117.475C155.144 117.423 155.181 117.377 155.226 117.339C155.271 117.302 155.322 117.273 155.378 117.256C155.434 117.238 155.492 117.232 155.551 117.237C155.609 117.242 155.665 117.259 155.717 117.286C155.771 117.311 155.819 117.346 155.859 117.39C155.898 117.434 155.928 117.486 155.947 117.542C155.966 117.599 155.973 117.658 155.968 117.717C155.962 117.776 155.945 117.834 155.917 117.886Z" fill="#E0E0E0"/>
<path d="M129.538 77.3721H82.8799L88.0956 120.298C88.3345 122.786 90.0731 125.23 93.3614 127.13C100.455 131.224 111.947 131.224 119.035 127.13C122.323 125.23 124.067 122.786 124.306 120.298L129.538 77.3721Z" fill="#37474F"/>
<path d="M89.7354 67.8407C98.8504 62.5805 113.62 62.5805 122.741 67.8407C131.861 73.1008 131.856 81.6382 122.741 86.8984C113.626 92.1586 98.856 92.1586 89.7354 86.8984C80.6147 81.6382 80.6203 73.1064 89.7354 67.8407Z" fill="#455A64"/>
<path d="M106.237 88.1377C100.471 88.1377 95.0886 86.8657 91.0893 84.5549C87.551 82.5109 85.6069 79.9613 85.6069 77.3673C85.6069 74.7733 87.551 72.2293 91.0893 70.1852C95.0886 67.8745 100.471 66.6025 106.237 66.6025C112.002 66.6025 117.385 67.8745 121.384 70.1852C124.922 72.2293 126.866 74.7789 126.866 77.3673C126.866 79.9558 124.922 82.5109 121.384 84.5494C117.385 86.8657 112.002 88.1377 106.237 88.1377Z" fill="#263238"/>
<path d="M119.157 112.63L110.547 129.016C110.495 129.123 110.41 129.211 110.304 129.266C110.199 129.321 110.078 129.341 109.96 129.322C109.843 129.303 109.734 129.247 109.651 129.162C109.567 129.077 109.514 128.968 109.497 128.85L106.342 110.52L119.157 112.63Z" fill="#FFA8A7"/>
<path d="M119.157 112.63L110.547 129.016C110.495 129.123 110.41 129.211 110.304 129.266C110.199 129.321 110.078 129.341 109.96 129.322C109.843 129.303 109.734 129.247 109.651 129.162C109.567 129.077 109.514 128.968 109.497 128.85L106.342 110.52L119.157 112.63Z" fill="#FFA8A7"/>
<path d="M109.497 128.833C109.513 128.951 109.567 129.061 109.651 129.146C109.734 129.231 109.843 129.287 109.96 129.306C110.078 129.324 110.198 129.305 110.304 129.25C110.41 129.195 110.495 129.107 110.547 129L112.213 125.801C111.673 125.991 111.091 126.029 110.53 125.91C109.97 125.792 109.453 125.521 109.036 125.128L108.803 124.906L109.497 128.833Z" fill="#263238"/>
<path d="M118.501 33.3496L118.24 35.016L117.907 37.0545L106.337 110.481C107.516 112.199 109.302 113.407 111.336 113.863C114.391 114.669 117.729 114.141 119.112 112.608L130.633 39.754L131.249 35.8658C130.71 38.3543 117.996 35.8714 118.501 33.3496Z" fill="#FF725E"/>
<path d="M117.469 39.7881L116.88 43.5708C116.674 44.6817 118.896 45.7315 121.557 46.398C125.078 47.2868 129.367 47.4701 129.644 46.0259L130.083 43.2486L130.222 42.2488C129.944 43.693 125.656 43.5152 122.135 42.6265C119.585 41.9821 117.43 40.9601 117.458 39.9214C117.445 39.877 117.449 39.8298 117.469 39.7881Z" fill="#EBEBEB"/>
<path d="M117.329 40.7368C116.84 43.2641 129.599 45.7359 130.105 43.1863L130.705 39.4037C130.221 41.931 117.462 39.4814 117.929 36.9541L117.329 40.7368Z" fill="#FF725E"/>
<path d="M118.501 33.3496L117.907 37.0878C117.412 39.5707 129.705 42.087 130.632 39.7596C130.654 39.7157 130.668 39.6689 130.677 39.6207L131.232 35.8547C130.71 38.3543 117.995 35.8714 118.501 33.3496Z" fill="#EBEBEB"/>
<path opacity="0.1" d="M130.633 39.7534L131.25 35.8652C131.005 36.9762 128.273 37.1095 125.401 36.6595L113.764 114.224L110.548 128.999L119.157 112.613L130.633 39.7534Z" fill="black"/>
<path d="M121.018 17.5026L118.502 33.3499C118.285 34.4275 120.485 35.4995 123.118 36.1716C126.64 37.077 130.944 37.2825 131.25 35.8494L133.666 20.6076C134.521 17.0972 128.039 14.4976 124.001 15.2253C122.496 15.4697 121.34 16.1918 121.018 17.5026Z" fill="#FFA8A7"/>
<path d="M91.361 109.022L91.1277 107.322L90.8333 105.278L80.5352 31.6855C81.4905 32.6687 83.9623 33.1908 86.6452 32.902C89.7835 32.5631 92.6775 31.2745 93.3662 29.7803L103.587 102.829L104.142 106.745C103.653 104.228 90.9 106.489 91.361 109.022Z" fill="#FF725E"/>
<path d="M90.439 102.561L89.9169 98.7723C89.728 97.6614 91.9721 96.6449 94.6383 96.0283C98.1821 95.1951 102.47 95.0896 102.72 96.5393L103.115 99.3166L103.237 100.316C102.981 98.8667 98.6931 98.9722 95.1493 99.7999C92.5942 100.4 90.4223 101.383 90.4334 102.422C90.4208 102.467 90.4227 102.516 90.439 102.561Z" fill="#EBEBEB"/>
<path d="M90.3165 101.618C89.8721 99.0742 102.67 96.8468 103.092 99.3964L103.647 103.19C103.203 100.652 90.4054 102.879 90.8719 105.412L90.3165 101.618Z" fill="#FF725E"/>
<path d="M91.3613 109.022L90.8336 105.278C90.3781 102.784 102.715 100.512 103.609 102.828C103.626 102.873 103.639 102.92 103.648 102.967L104.153 106.744C103.654 104.228 90.9002 106.489 91.3613 109.022Z" fill="#EBEBEB"/>
<path d="M85.7952 17.209C83.9288 17.6922 83.2678 17.3034 83.2678 17.3034L80.5405 31.6842C82.0292 33.8227 85.6563 34.2671 88.728 33.3506L88.6336 32.6452L85.7952 17.209Z" fill="#FFA8A7"/>
<path d="M93.3881 29.7802L86.6948 16.4492L93.3881 29.7802Z" fill="#FAFAFA"/>
<path d="M86.6893 16.4704L85.0674 13.2432L86.6893 16.4704Z" fill="#E0E0E0"/>
<path d="M84.0124 13.3938L83.2681 17.282C83.2681 17.282 83.9013 17.7319 85.7954 17.1875L85.0678 13.2216C85.0358 13.1558 84.9911 13.0971 84.9363 13.0486C84.8816 13.0002 84.8178 12.963 84.7486 12.9393C84.6795 12.9155 84.6063 12.9057 84.5334 12.9103C84.4604 12.9149 84.3891 12.9338 84.3234 12.9661C84.2401 13.0059 84.1681 13.0658 84.1137 13.1405C84.0594 13.2152 84.0246 13.3022 84.0124 13.3938Z" fill="#455A64"/>
<path opacity="0.1" d="M103.604 102.828L93.3833 29.7959C92.6612 31.5345 90.8226 32.7676 88.7285 33.373L98.3157 105.844C101.199 105.444 103.926 105.605 104.148 106.744L103.604 102.828Z" fill="black"/>
<path d="M93.3827 29.7958L86.6838 16.4648C86.4816 16.8083 86.1651 17.0698 85.7896 17.2036L88.6335 32.6453L88.7279 33.3619C90.822 32.7675 92.6606 31.5344 93.3827 29.7958Z" fill="#F28F8F"/>
<path d="M85.795 17.2091C85.9903 17.1617 86.1722 17.0706 86.3271 16.9426C86.482 16.8146 86.6059 16.6532 86.6893 16.4704L85.0674 13.2432L85.795 17.2091Z" fill="#37474F"/>
<path d="M93.599 124.908L91.3772 109.022C91.1827 107.939 93.3935 106.906 96.0374 106.278C99.5813 105.434 103.886 105.3 104.164 106.745L106.319 122.031C107.113 125.552 100.587 128.035 96.5651 127.241C95.0432 126.963 93.8989 126.224 93.599 124.908Z" fill="#F28F8F"/>
<path d="M102.093 25.041C102.093 25.041 99.6101 44.9597 99.5879 64.6841C99.5879 84.2362 103.182 105.582 103.904 108.876C103.904 108.876 103.904 108.876 103.904 108.915C103.906 108.934 103.906 108.952 103.904 108.971C103.977 109.272 104.144 109.542 104.381 109.742C104.618 109.942 104.912 110.062 105.221 110.083C105.531 110.105 105.839 110.028 106.101 109.863C106.364 109.698 106.567 109.453 106.681 109.165C106.724 109.062 106.754 108.954 106.77 108.843C106.77 108.843 111.614 83.7474 111.652 64.5285C111.691 45.3097 109.186 25.0188 109.186 25.0188C109.12 24.7452 108.993 24.4899 108.816 24.2716C108.638 24.0534 108.413 23.8779 108.159 23.7579C107.379 23.3617 106.517 23.1553 105.642 23.1553C104.768 23.1553 103.906 23.3617 103.126 23.7579C102.866 23.877 102.638 24.055 102.458 24.2777C102.279 24.5003 102.154 24.7617 102.093 25.041Z" fill="#FF725E"/>
<path opacity="0.1" d="M106.686 109.164C106.729 109.061 106.759 108.953 106.775 108.842C106.775 108.842 111.613 83.7465 111.652 64.5276C111.652 51.591 110.541 38.1822 109.808 30.7891L105.32 31.5667C105.32 31.5667 106.042 109.886 104.764 109.953C104.942 110.028 105.133 110.068 105.326 110.069C105.519 110.07 105.711 110.033 105.89 109.96C106.068 109.886 106.231 109.778 106.368 109.642C106.504 109.505 106.613 109.343 106.686 109.164Z" fill="black"/>
<path d="M105.631 23.1304C106.253 21.9639 109.647 15.665 108.552 10.5326C107.869 10.514 107.196 10.3709 106.564 10.1104C104.125 9.09947 104.414 6.93318 102.676 5.9778C100.937 5.02241 98.8319 7.96634 98.8153 7.99411C97.9654 10.5825 96.9101 13.3543 97.8488 17.3036C98.5012 20.235 99.9796 22.9181 102.109 25.0356H109.202C109.647 24.3746 110.136 23.6691 110.619 22.9026C110.136 23.6691 109.647 24.3746 109.202 25.0356L105.631 23.1304Z" fill="#F0F0F0"/>
<path opacity="0.1" d="M113.568 11.6658C112.057 9.84947 110.507 10.5993 108.569 10.5549C109.68 15.6873 106.269 21.9862 105.647 23.1527L109.202 25.0357C109.646 24.3747 110.135 23.6693 110.618 22.9027C110.741 22.7139 110.863 22.5139 110.985 22.314C111.229 21.914 111.468 21.4919 111.696 21.0531C112.06 20.3616 112.379 19.6473 112.651 18.9146C112.835 18.4035 113.007 17.8703 113.151 17.3037C113.476 16.0712 113.663 14.8061 113.707 13.5322C113.716 12.9072 113.669 12.2826 113.568 11.6658Z" fill="black"/>
<path d="M113.562 11.6374C113.512 11.3208 113.451 11.0152 113.379 10.7097V10.6209C113.318 10.3931 113.251 10.1654 113.179 9.94877L113.096 9.69326C113.096 9.6266 113.04 9.55995 113.018 9.49329L112.879 9.14335C112.818 8.99894 112.757 8.86007 112.69 8.72676C112.534 8.41309 112.36 8.1089 112.168 7.81581C111.996 7.52142 111.812 7.26035 111.613 6.9604C111.413 6.66046 111.218 6.40495 111.007 6.1661C109.694 4.59547 108.088 3.29397 106.28 2.33344L105.886 2.13347L105.775 2.07792L105.319 1.87796C104.378 1.48328 103.404 1.17105 102.409 0.944789C101.964 0.844806 101.542 0.772596 101.148 0.711495C100.753 0.650395 100.387 0.617068 100.037 0.59485L99.5591 0.561523H99.1369H98.4593C98.0871 0.561523 97.9038 0.605959 97.9038 0.605959C97.9038 0.605959 99.7146 2.32233 99.3147 5.78839C99.2048 6.54582 99.0187 7.29021 98.7592 8.01022C98.7592 8.01022 100.87 5.04407 102.62 5.99391C104.369 6.94374 104.086 9.11558 106.508 10.1265C107.139 10.387 107.813 10.5301 108.496 10.5487C110.452 10.6153 112.001 9.86545 113.496 11.6596L113.562 11.6374Z" fill="#FF725E"/>
<path opacity="0.1" d="M97.9205 0.605959C97.9205 0.605959 103.514 1.71688 107.519 7.95467C108.017 8.74367 108.367 9.61712 108.552 10.532C110.507 10.5987 112.057 9.84879 113.551 11.6429C113.501 11.3263 113.44 11.0208 113.368 10.7153V10.6264C113.307 10.3987 113.24 10.171 113.168 9.95432L113.084 9.69881C113.084 9.63216 113.029 9.5655 113.007 9.49885L112.868 9.14891C112.807 9.00449 112.746 8.86563 112.679 8.73232C112.525 8.41821 112.354 8.11229 112.168 7.81581C111.996 7.52142 111.812 7.26035 111.613 6.9604C111.413 6.66045 111.218 6.40495 111.007 6.1661C109.694 4.59547 108.088 3.29397 106.28 2.33343L105.886 2.13347L105.775 2.07792L105.319 1.87796C104.378 1.48328 103.404 1.17105 102.409 0.944789C101.964 0.844806 101.542 0.772596 101.148 0.711495C100.753 0.650395 100.387 0.617068 100.037 0.59485L99.5591 0.561523H99.1369H98.4593C98.0871 0.561523 97.9038 0.605959 97.9038 0.605959H97.9205Z" fill="black"/>
<path d="M109.185 25.0132C109.118 24.7408 108.991 24.4867 108.813 24.2696C108.636 24.0524 108.412 23.8776 108.158 23.7579C107.378 23.3617 106.516 23.1553 105.642 23.1553C104.767 23.1553 103.905 23.3617 103.125 23.7579C102.862 23.8785 102.632 24.0596 102.452 24.2865C102.273 24.5134 102.149 24.7795 102.092 25.0632C101.759 27.8405 101.448 30.8622 101.148 34.0505C101.213 33.6816 101.366 33.3339 101.594 33.0369C101.822 32.74 102.119 32.5027 102.459 32.3453C103.443 31.8456 104.532 31.5852 105.636 31.5852C106.74 31.5852 107.829 31.8456 108.813 32.3453C109.161 32.5032 109.463 32.7454 109.693 33.0501C109.923 33.3547 110.073 33.712 110.13 34.0894C109.791 30.5567 109.463 27.2684 109.185 25.0132Z" fill="#455A64"/>
<path d="M105.319 31.5661C106.539 31.489 107.755 31.7504 108.835 32.3215C109.183 32.4794 109.485 32.7217 109.715 33.0263C109.945 33.331 110.095 33.6883 110.152 34.0657C109.813 30.5552 109.485 27.2669 109.208 25.0117C109.138 24.7371 109.007 24.4817 108.826 24.2644C108.644 24.0471 108.416 23.8735 108.158 23.7564C107.38 23.3439 106.51 23.1374 105.63 23.1565L105.553 23.212L105.319 31.5939V31.5661Z" fill="#37474F"/>
<path d="M131.249 35.8506L133.666 20.6089C133.704 20.4541 133.726 20.2959 133.732 20.1367C132.721 22.7418 127.722 21.4087 127.722 21.4087L125.384 36.6394C128.278 37.0893 131.005 36.9838 131.249 35.8506Z" fill="#F28F8F"/>
</svg>
