<svg width="21" height="20" viewBox="0 0 21 20" fill="none" xmlns="http://www.w3.org/2000/svg">
<path d="M16.0009 7H6.00085C5.73563 7 5.48128 7.10536 5.29374 7.29289C5.1062 7.48043 5.00085 7.73478 5.00085 8C5.00085 8.2652 5.1062 8.5196 5.29374 8.7071C5.48128 8.8946 5.73563 9 6.00085 9H16.0009C16.2661 9 16.5204 8.8946 16.708 8.7071C16.8955 8.5196 17.0009 8.2652 17.0009 8C17.0009 7.73478 16.8955 7.48043 16.708 7.29289C16.5204 7.10536 16.2661 7 16.0009 7ZM12.0009 11H6.00085C5.73563 11 5.48128 11.1054 5.29374 11.2929C5.1062 11.4804 5.00085 11.7348 5.00085 12C5.00085 12.2652 5.1062 12.5196 5.29374 12.7071C5.48128 12.8946 5.73563 13 6.00085 13H12.0009C12.2661 13 12.5204 12.8946 12.708 12.7071C12.8955 12.5196 13.0009 12.2652 13.0009 12C13.0009 11.7348 12.8955 11.4804 12.708 11.2929C12.5204 11.1054 12.2661 11 12.0009 11ZM11.0009 0C9.68758 0 8.38727 0.25866 7.17401 0.7612C5.96076 1.26375 4.85836 2.00035 3.92978 2.92893C2.05441 4.8043 1.00085 7.34784 1.00085 10C0.992097 12.3091 1.79164 14.5485 3.26085 16.33L1.26085 18.33C1.12209 18.4706 1.02809 18.6492 0.990717 18.8432C0.953337 19.0372 0.974267 19.2379 1.05085 19.42C1.1339 19.5999 1.26855 19.7511 1.43769 19.8544C1.60684 19.9577 1.80285 20.0083 2.00085 20H11.0009C13.653 20 16.1966 18.9464 18.0719 17.0711C19.9473 15.1957 21.0009 12.6522 21.0009 10C21.0009 7.34784 19.9473 4.8043 18.0719 2.92893C16.1966 1.05357 13.653 0 11.0009 0ZM11.0009 18H4.41085L5.34085 17.07C5.5271 16.8826 5.63164 16.6292 5.63164 16.365C5.63164 16.1008 5.5271 15.8474 5.34085 15.66C4.03143 14.352 3.21602 12.6305 3.03354 10.7888C2.85105 8.947 3.31279 7.09901 4.34007 5.55952C5.36736 4.02004 6.89664 2.88436 8.66736 2.34597C10.4381 1.80759 12.3407 1.8998 14.0511 2.60691C15.7614 3.31402 17.1737 4.59227 18.0473 6.22389C18.9209 7.85551 19.2017 9.7395 18.842 11.555C18.4823 13.3705 17.5042 15.005 16.0744 16.1802C14.6446 17.3554 12.8516 17.9985 11.0009 18Z" fill="white"/>
</svg>
