<svg width="180" height="180" viewBox="0 0 180 180" fill="none" xmlns="http://www.w3.org/2000/svg">
<circle cx="90" cy="90" r="88.5" fill="#C4C4C4" stroke="white" stroke-width="3"/>
<path d="M67.5 76.4999C67.5 74.1129 68.4482 71.8238 70.136 70.136C71.8238 68.4482 74.1129 67.5 76.4999 67.5H103.499C105.886 67.5 108.175 68.4482 109.863 70.136C111.551 71.8238 112.499 74.1129 112.499 76.4999V103.499C112.499 105.886 111.551 108.175 109.863 109.863C108.175 111.551 105.886 112.499 103.499 112.499H76.4999C74.1129 112.499 71.8238 111.551 70.136 109.863C68.4482 108.175 67.5 105.886 67.5 103.499V76.4999Z" stroke="white" stroke-width="3" stroke-linecap="round" stroke-linejoin="round"/>
<path d="M82.1249 87.7498C85.2315 87.7498 87.7498 85.2315 87.7498 82.1249C87.7498 79.0184 85.2315 76.5 82.1249 76.5C79.0184 76.5 76.5 79.0184 76.5 82.1249C76.5 85.2315 79.0184 87.7498 82.1249 87.7498Z" stroke="white" stroke-width="3" stroke-linecap="round" stroke-linejoin="round"/>
<path d="M95.6832 91.3969L76.5 112.499H103.799C106.106 112.499 108.319 111.583 109.951 109.951C111.583 108.319 112.499 106.106 112.499 103.799V103.499C112.499 102.451 112.106 102.048 111.397 101.272L102.33 91.3834C101.907 90.9224 101.393 90.5546 100.82 90.3034C100.248 90.0522 99.6288 89.9231 99.0034 89.9243C98.378 89.9256 97.7598 90.0572 97.1881 90.3108C96.6165 90.5643 96.1039 90.9342 95.6832 91.3969V91.3969Z" stroke="white" stroke-width="3" stroke-linecap="round" stroke-linejoin="round"/>
</svg>
