<svg width="13" height="13" viewBox="0 0 13 13" fill="none" xmlns="http://www.w3.org/2000/svg">
<path fill-rule="evenodd" clip-rule="evenodd" d="M1.31979 5.97683V1.68471C1.31979 1.62808 1.34296 1.57376 1.38421 1.53371C1.42547 1.49367 1.48142 1.47117 1.53975 1.47117H5.96104C5.98995 1.47112 6.01858 1.4766 6.04531 1.4873C6.07203 1.498 6.09631 1.51371 6.11678 1.53353L11.6159 6.87199C11.6364 6.89182 11.6527 6.91539 11.6638 6.94133C11.6748 6.96728 11.6805 6.99509 11.6805 7.02317C11.6805 7.05126 11.6748 7.07907 11.6638 7.10502C11.6527 7.13096 11.6364 7.15452 11.6159 7.17436L7.1946 11.4665C7.17417 11.4864 7.1499 11.5022 7.12318 11.5129C7.09645 11.5237 7.0678 11.5292 7.03887 11.5292C7.00994 11.5292 6.98129 11.5237 6.95456 11.5129C6.92784 11.5022 6.90356 11.4864 6.88313 11.4665L1.38402 6.12802C1.3636 6.10815 1.34742 6.08458 1.3364 6.05864C1.32538 6.03269 1.31974 6.00489 1.31979 5.97683ZM4.20864e-09 5.97683V1.68471C4.20864e-09 0.859598 0.689809 0.189941 1.53975 0.189941H5.96104C6.3693 0.189941 6.76171 0.347106 7.05031 0.628122L12.5494 5.96658C12.8379 6.24687 13 6.62692 13 7.02317C13 7.41942 12.8379 7.79947 12.5494 8.07976L8.12726 12.3727C7.83853 12.6528 7.44704 12.8102 7.03887 12.8102C6.63069 12.8102 6.23921 12.6528 5.95048 12.3727L0.451367 7.03428C0.308259 6.89545 0.194739 6.7306 0.117285 6.54916C0.0398399 6.36772 -1.49534e-05 6.17324 4.20864e-09 5.97683ZM4.39929 3.60656C4.16594 3.60656 3.94215 3.69655 3.77714 3.85673C3.61214 4.01692 3.51943 4.23417 3.51943 4.46071C3.51943 4.68725 3.61214 4.9045 3.77714 5.06469C3.94215 5.22487 4.16594 5.31486 4.39929 5.31486C4.63265 5.31486 4.85644 5.22487 5.02145 5.06469C5.18645 4.9045 5.27915 4.68725 5.27915 4.46071C5.27915 4.23417 5.18645 4.01692 5.02145 3.85673C4.85644 3.69655 4.63265 3.60656 4.39929 3.60656Z" fill="black"/>
</svg>
