<svg width="80" height="81" viewBox="0 0 80 81" fill="none" xmlns="http://www.w3.org/2000/svg">
<circle cx="40" cy="40.0493" r="40" fill="#F9E000"/>
<path d="M39.9076 22.1545C28.9122 22.1545 20 29.1878 20 37.8634C20 43.2408 23.4234 47.9862 28.645 50.8182L27.2064 58.4757C27.1357 58.856 27.5582 59.1369 27.8844 58.9223L36.4351 53.3323C36.4351 53.3323 38.7226 53.5722 39.9056 53.5722C50.901 53.5722 59.8132 46.539 59.8132 37.8634C59.8152 29.1878 50.903 22.1545 39.9076 22.1545Z" fill="#3C1E1E"/>
<path d="M31.858 33.5049H26.1545C25.6171 33.5049 25.1833 33.9426 25.1833 34.4819C25.1833 35.0231 25.6171 35.4608 26.1545 35.4608H28.0087V42.3484C28.0087 42.5985 28.1103 42.8427 28.2882 43.0225C28.4621 43.2003 28.7063 43.3019 28.9544 43.3019H29.1616C29.4097 43.3019 29.652 43.2003 29.8279 43.0245C30.0057 42.8447 30.1073 42.6005 30.1073 42.3504V35.4627H31.86C32.3973 35.4627 32.8311 35.025 32.8311 34.4838C32.8291 33.9426 32.3953 33.5049 31.858 33.5049Z" fill="#3C1E1E"/>
<path d="M45.2075 41.4614H42.5561V34.4272C42.5561 33.841 42.0832 33.3662 41.5029 33.3662C40.9226 33.3662 40.4497 33.841 40.4497 34.4272V42.0085C40.4497 42.0671 40.4497 42.2898 40.4497 42.3485C40.4497 42.8389 40.8444 43.2375 41.3309 43.2375H45.2075C45.696 43.2375 46.0888 42.8389 46.0888 42.3485C46.0888 41.86 45.696 41.4614 45.2075 41.4614Z" fill="#3C1E1E"/>
<path d="M53.7207 41.7858L50.7644 37.8721L53.4354 35.1796C53.7969 34.8162 53.7969 34.2241 53.4354 33.8607C53.0739 33.4953 52.4858 33.4953 52.1243 33.8607L48.8163 37.1921V34.4293C48.8163 33.8431 48.3454 33.3683 47.7631 33.3683C47.1828 33.3683 46.71 33.8431 46.71 34.4293V42.2431C46.71 42.8292 47.1828 43.306 47.7631 43.306C48.3434 43.306 48.8163 42.8312 48.8163 42.2431V39.8319L49.4181 39.2262L52.2142 42.925C52.5249 43.3431 53.1169 43.4291 53.5311 43.1126C53.9493 42.798 54.0333 42.204 53.7207 41.7858Z" fill="#3C1E1E"/>
<path d="M39.8202 42.0379L36.9772 34.2007C36.9772 34.2007 36.9694 34.1948 36.9675 34.1928C36.7857 33.7161 36.2601 33.3683 35.6349 33.3683C35.4805 33.3683 35.3262 33.3898 35.1796 33.4328C35.0409 33.4738 34.9061 33.5324 34.7849 33.6125C34.6696 33.6868 34.5661 33.7786 34.4781 33.8861C34.4215 33.9564 34.3707 34.0346 34.3316 34.1166C34.2964 34.1889 34.1577 34.5895 34.1108 34.7145C34.0952 34.7575 34.0776 34.8025 34.062 34.8455C34.0424 34.8982 34.0229 34.949 34.0033 35.0018C33.9818 35.0623 33.9584 35.121 33.9369 35.1815C33.9115 35.248 33.8881 35.3164 33.8627 35.3828C33.8353 35.457 33.8079 35.5313 33.7806 35.6036C33.7513 35.6837 33.722 35.7638 33.6927 35.842C33.6614 35.9279 33.6301 36.012 33.5989 36.0979C33.5657 36.1878 33.5324 36.2777 33.4992 36.3676C33.4641 36.4614 33.4308 36.5552 33.3957 36.6489C33.3605 36.7466 33.3234 36.8424 33.2882 36.9401C33.2511 37.0397 33.2139 37.1394 33.1768 37.239C33.1397 37.3406 33.1006 37.4422 33.0635 37.5439C33.0244 37.6474 32.9873 37.751 32.9482 37.8545C32.9091 37.9581 32.872 38.0636 32.8329 38.1672C32.7938 38.2707 32.7548 38.3762 32.7176 38.4798C32.6786 38.5833 32.6414 38.6869 32.6024 38.7924C32.5652 38.896 32.5262 38.9976 32.489 39.1011C32.4519 39.2027 32.4148 39.3043 32.3777 39.404C32.3405 39.5036 32.3054 39.6013 32.2682 39.701C32.2331 39.7967 32.1979 39.8925 32.1627 39.9882C32.1295 40.0801 32.0943 40.1719 32.0611 40.2637C32.0279 40.3517 31.9966 40.4396 31.9634 40.5275C31.9322 40.6096 31.9029 40.6936 31.8716 40.7757C31.8423 40.8538 31.8149 40.93 31.7856 41.0082C31.7602 41.0785 31.7329 41.1508 31.7075 41.2212C31.684 41.2856 31.6606 41.3501 31.6352 41.4146C31.6137 41.4713 31.5922 41.5279 31.5726 41.5846C31.5551 41.6334 31.5375 41.6823 31.5179 41.7311C31.5023 41.7702 31.4886 41.8112 31.473 41.8503C31.4613 41.8816 31.4495 41.9109 31.4398 41.9422C31.432 41.9637 31.4241 41.9832 31.4163 42.0047C31.4124 42.0145 31.4085 42.0242 31.4046 42.0379C31.2327 42.5342 31.4906 43.0754 31.981 43.2493C32.4734 43.4232 33.0107 43.1634 33.1846 42.6671L33.6692 41.2759H37.5595L38.0441 42.6671C38.216 43.1634 38.7553 43.4232 39.2458 43.2493C39.7342 43.0754 39.9922 42.5342 39.8202 42.0379ZM34.2828 39.5017L35.5899 35.7423C35.6056 35.7423 35.6173 35.7462 35.6329 35.7462L36.9382 39.5017H34.2828Z" fill="#3C1E1E"/>
</svg>
