<svg width="75" height="28" viewBox="0 0 75 28" fill="none" xmlns="http://www.w3.org/2000/svg">
<path d="M13.5 26.375C20.4035 26.375 26 20.7785 26 13.875C26 6.97144 20.4035 1.375 13.5 1.375C6.5965 1.375 1 6.97144 1 13.875C1 20.7785 6.5965 26.375 13.5 26.375Z" stroke="#FF511B" stroke-width="2" stroke-linecap="round" stroke-linejoin="round"/>
<path d="M8.5 16.375C8.5 16.375 10.375 18.875 13.5 18.875C16.625 18.875 18.5 16.375 18.5 16.375" stroke="#FF511B" stroke-width="2" stroke-linecap="round" stroke-linejoin="round"/>
<path d="M17.25 10.125H17.2625" stroke="#FF511B" stroke-width="2" stroke-linecap="round" stroke-linejoin="round"/>
<path d="M9.75 10.125H9.7625" stroke="#FF511B" stroke-width="2" stroke-linecap="round" stroke-linejoin="round"/>
<path d="M37.666 12.249C40.144 12.081 41.754 11.297 42.426 10.177C43.098 11.297 44.722 12.081 47.2 12.249L47.774 10.877C45.45 10.737 44.19 10.107 43.812 9.407H47.214V8.007H37.666V9.407H41.04C40.662 10.107 39.402 10.737 37.092 10.877L37.666 12.249ZM42.398 19.403C41.054 19.403 40.382 19.263 40.382 18.927C40.382 18.577 41.054 18.437 42.398 18.437C43.756 18.437 44.442 18.577 44.442 18.927C44.442 19.263 43.756 19.403 42.398 19.403ZM42.398 17.219C39.92 17.219 38.478 17.821 38.478 18.927C38.478 20.033 39.92 20.621 42.398 20.621C44.904 20.621 46.346 20.033 46.346 18.927C46.346 17.821 44.904 17.219 42.398 17.219ZM43.336 14.559H41.488V15.469H37.652V16.841H47.186V15.469H43.336V14.559ZM43.336 12.711V11.535H41.488V12.711H36.602V14.153H48.292V12.711H43.336ZM52.9389 16.113C51.9729 16.113 51.3289 15.091 51.3289 13.173C51.3289 11.269 51.9729 10.247 52.9389 10.247C53.8909 10.247 54.5489 11.269 54.5489 13.173C54.5489 15.091 53.8909 16.113 52.9389 16.113ZM52.9389 8.581C50.9789 8.581 49.5509 10.345 49.5509 13.173C49.5509 16.015 50.9789 17.793 52.9389 17.793C54.8849 17.793 56.3269 16.015 56.3269 13.173C56.3269 10.345 54.8849 8.581 52.9389 8.581ZM61.4509 12.543H59.5749V7.685H57.7269V20.579H59.5749V14.069H61.4509V12.543ZM66.7698 15.119C67.2178 15.203 67.6798 15.245 68.1838 15.245C68.6878 15.245 69.1638 15.203 69.6118 15.119V17.583H66.7698V15.119ZM68.1838 9.771C69.9758 9.771 71.1798 10.499 71.1798 11.787C71.1798 13.061 69.9758 13.803 68.1838 13.803C66.3918 13.803 65.2018 13.061 65.2018 11.787C65.2018 10.499 66.3918 9.771 68.1838 9.771ZM71.4458 17.583V14.433C72.4118 13.831 72.9998 12.907 72.9998 11.787C72.9998 9.673 70.9698 8.315 68.1838 8.315C65.4118 8.315 63.3818 9.673 63.3818 11.787C63.3678 12.907 63.9558 13.831 64.9358 14.433V17.583H62.3598V19.081H74.0358V17.583H71.4458Z" fill="#FF511B"/>
</svg>
