<svg width="81" height="28" viewBox="0 0 81 28" fill="none" xmlns="http://www.w3.org/2000/svg">
<path d="M13.5 26.375C20.4037 26.375 26 20.7785 26 13.875C26 6.9715 20.4037 1.375 13.5 1.375C6.59625 1.375 1 6.9715 1 13.875C1 20.7785 6.59625 26.375 13.5 26.375Z" stroke="#122337" stroke-width="2" stroke-linecap="round" stroke-linejoin="round"/>
<path d="M18.5 18.875C18.5 18.875 16.625 16.375 13.5 16.375C10.375 16.375 8.5 18.875 8.5 18.875" stroke="#122337" stroke-width="2" stroke-linecap="round" stroke-linejoin="round"/>
<path d="M17.25 10.125H17.2625" stroke="#122337" stroke-width="2" stroke-linecap="round" stroke-linejoin="round"/>
<path d="M9.75 10.125H9.76249" stroke="#122337" stroke-width="2" stroke-linecap="round" stroke-linejoin="round"/>
<path d="M44.172 11.447V12.263H42.204V11.447H44.172ZM40.656 12.995H38.556V11.795H40.656V12.995ZM42.204 13.463H44.172V14.531H45.756V8.867H44.172V10.247H42.204V9.311H40.656V10.607H38.556V9.311H36.984V14.231H42.204V13.463ZM40.044 18.551V17.903H45.756V14.951H38.46V16.175H44.184V16.763H38.484V19.775H46.068V18.551H40.044ZM53.3391 17.399V15.755H56.6871V14.483H50.2791V13.247H56.4351V9.563H48.6951V10.823H54.8751V12.011H48.7071V15.755H51.7551V17.399H47.5551V18.695H57.5631V17.399H53.3391ZM63.4181 14.699C63.4541 14.375 63.4781 14.015 63.4781 13.643C63.4781 13.259 63.4541 12.899 63.4061 12.563H64.3781V14.699H63.4181ZM61.0901 16.175C60.4661 16.175 60.1061 15.335 60.1061 13.643C60.1061 11.951 60.4661 11.123 61.0901 11.123C61.7021 11.123 62.0621 11.951 62.0621 13.643C62.0621 15.335 61.7021 16.175 61.0901 16.175ZM64.3781 11.291H63.1061C62.6981 10.223 61.9901 9.635 61.0901 9.635C59.6141 9.635 58.6901 11.147 58.6901 13.643C58.6901 16.151 59.6141 17.663 61.0901 17.663C62.0021 17.663 62.7101 17.051 63.1181 15.983H64.3781V19.403H65.8541V9.035H64.3781V11.291ZM66.5741 8.843V19.895H68.0741V8.843H66.5741ZM73.4132 15.227C73.7972 15.299 74.1932 15.335 74.6252 15.335C75.0572 15.335 75.4652 15.299 75.8492 15.227V17.339H73.4132V15.227ZM74.6252 10.643C76.1612 10.643 77.1932 11.267 77.1932 12.371C77.1932 13.463 76.1612 14.099 74.6252 14.099C73.0892 14.099 72.0692 13.463 72.0692 12.371C72.0692 11.267 73.0892 10.643 74.6252 10.643ZM77.4212 17.339V14.639C78.2492 14.123 78.7532 13.331 78.7532 12.371C78.7532 10.559 77.0132 9.395 74.6252 9.395C72.2492 9.395 70.5092 10.559 70.5092 12.371C70.4972 13.331 71.0012 14.123 71.8412 14.639V17.339H69.6332V18.623H79.6412V17.339H77.4212Z" fill="#122337"/>
</svg>
