<svg width="29" height="30" viewBox="0 0 29 30" fill="none" xmlns="http://www.w3.org/2000/svg">
<path d="M17.1543 29.5837H11.8459C11.5133 29.5837 11.1907 29.4701 10.9316 29.2616C10.6724 29.0531 10.4923 28.7623 10.4211 28.4374L9.82759 25.6899C9.03581 25.343 8.28502 24.9091 7.58905 24.3964L4.9101 25.2495C4.593 25.3506 4.25086 25.3402 3.94048 25.2201C3.6301 25.0999 3.37017 24.8772 3.20385 24.5889L0.543846 19.9937C0.379266 19.7051 0.317487 19.3692 0.368616 19.041C0.419745 18.7128 0.580755 18.4116 0.825304 18.1868L2.90343 16.291C2.80892 15.4322 2.80892 14.5656 2.90343 13.7068L0.825304 11.8153C0.580408 11.5904 0.41918 11.289 0.368042 10.9604C0.316905 10.6319 0.378893 10.2957 0.543846 10.007L3.19801 5.40887C3.36434 5.12058 3.62427 4.89785 3.93465 4.77768C4.24502 4.65751 4.58717 4.64712 4.90426 4.74824L7.58322 5.60137C7.93905 5.33887 8.30947 5.09387 8.69155 4.8722C9.06051 4.66512 9.43968 4.47699 9.82759 4.30928L10.4226 1.5647C10.4934 1.23978 10.6732 0.948829 10.9321 0.740084C11.1909 0.53134 11.5134 0.417342 11.8459 0.416992H17.1543C17.4868 0.417342 17.8093 0.53134 18.0681 0.740084C18.327 0.948829 18.5068 1.23978 18.5776 1.5647L19.1784 4.31074C19.5868 4.49158 19.9863 4.69428 20.3728 4.92033C20.733 5.12887 21.0816 5.35783 21.417 5.60428L24.0974 4.75116C24.4143 4.65041 24.7561 4.66099 25.0662 4.78114C25.3762 4.9013 25.6359 5.12381 25.8022 5.41178L28.4563 10.0099C28.7947 10.6035 28.678 11.3545 28.1749 11.8168L26.0968 13.7126C26.1913 14.5714 26.1913 15.438 26.0968 16.2968L28.1749 18.1926C28.678 18.6564 28.7947 19.406 28.4563 19.9995L25.8022 24.5976C25.6359 24.8859 25.3759 25.1086 25.0655 25.2288C24.7552 25.349 24.413 25.3594 24.0959 25.2582L21.417 24.4051C20.7215 24.9175 19.9712 25.3509 19.1799 25.6972L18.5776 28.4374C18.5065 28.7621 18.3266 29.0527 18.0677 29.2611C17.8089 29.4696 17.4866 29.5834 17.1543 29.5837ZM14.4943 9.16699C12.9472 9.16699 11.4634 9.78157 10.3695 10.8755C9.27551 11.9695 8.66093 13.4532 8.66093 15.0003C8.66093 16.5474 9.27551 18.0312 10.3695 19.1251C11.4634 20.2191 12.9472 20.8337 14.4943 20.8337C16.0414 20.8337 17.5251 20.2191 18.6191 19.1251C19.713 18.0312 20.3276 16.5474 20.3276 15.0003C20.3276 13.4532 19.713 11.9695 18.6191 10.8755C17.5251 9.78157 16.0414 9.16699 14.4943 9.16699Z" fill="#5F5F5F"/>
</svg>
