<svg width="35" height="35" viewBox="0 0 35 35" fill="none" xmlns="http://www.w3.org/2000/svg">
<path d="M31.0229 17.5979C31.0229 25.8805 24.3028 32.5962 16.0114 32.5962C7.72007 32.5962 1 25.8805 1 17.5979C1 9.31535 7.72007 2.59961 16.0114 2.59961C24.3028 2.59961 31.0229 9.31535 31.0229 17.5979Z" fill="white" stroke="white" stroke-width="2"/>
<path d="M30.9584 28.6623C32.7548 26.5026 34.0042 23.9425 34.601 21.1983C35.1977 18.4541 35.1242 15.6067 34.3867 12.897C33.6491 10.1872 32.2692 7.69479 30.3638 5.63057C28.4583 3.56635 26.0832 1.99105 23.4396 1.03794C20.7959 0.0848301 17.9614 -0.218057 15.1758 0.154904C12.3902 0.527864 9.73548 1.5657 7.43621 3.18061C5.13694 4.79553 3.26076 6.94001 1.9664 9.43266C0.672027 11.9253 -0.00245499 14.6928 6.71435e-06 17.501C0.000951356 21.5833 1.44072 25.5348 4.06666 28.6623L4.04164 28.6835C4.12921 28.7885 4.22928 28.8785 4.31934 28.9822C4.43192 29.111 4.55326 29.2322 4.66959 29.3572C5.01984 29.7372 5.3801 30.1021 5.75787 30.4446C5.87295 30.5496 5.99179 30.6471 6.10812 30.7471C6.50841 31.092 6.91995 31.4195 7.3465 31.7244C7.40154 31.7619 7.45158 31.8107 7.50662 31.8494V31.8344C10.4363 33.8944 13.9313 35 17.5138 35C21.0962 35 24.5912 33.8944 27.5209 31.8344V31.8494C27.576 31.8107 27.6247 31.7619 27.681 31.7244C28.1063 31.4182 28.5191 31.092 28.9194 30.7471C29.0357 30.6471 29.1546 30.5483 29.2697 30.4446C29.6474 30.1009 30.0077 29.7372 30.3579 29.3572C30.4743 29.2322 30.5944 29.111 30.7082 28.9822C30.797 28.8785 30.8983 28.7885 30.9859 28.6823L30.9584 28.6623ZM17.5125 7.50202C18.6258 7.50202 19.7141 7.83189 20.6398 8.44991C21.5655 9.06792 22.287 9.94633 22.7131 10.9741C23.1391 12.0018 23.2506 13.1327 23.0334 14.2237C22.8162 15.3147 22.2801 16.3169 21.4928 17.1035C20.7056 17.8901 19.7026 18.4257 18.6107 18.6428C17.5188 18.8598 16.387 18.7484 15.3584 18.3227C14.3298 17.897 13.4507 17.1761 12.8322 16.2512C12.2136 15.3262 11.8835 14.2388 11.8835 13.1264C11.8835 11.6347 12.4766 10.2042 13.5322 9.14937C14.5878 8.09459 16.0196 7.50202 17.5125 7.50202ZM7.51412 28.6623C7.53582 27.0212 8.2033 25.4546 9.37215 24.3014C10.541 23.1483 12.1172 22.5013 13.7598 22.5004H21.2652C22.9078 22.5013 24.484 23.1483 25.6529 24.3014C26.8217 25.4546 27.4892 27.0212 27.5109 28.6623C24.7675 31.1324 21.2055 32.4995 17.5125 32.4995C13.8196 32.4995 10.2575 31.1324 7.51412 28.6623Z" fill="#5F5F5F"/>
</svg>
