<svg width="27" height="30" viewBox="0 0 27 30" fill="none" xmlns="http://www.w3.org/2000/svg">
<mask id="path-1-inside-1" fill="white">
<path fill-rule="evenodd" clip-rule="evenodd" d="M13.125 0C7.94734 0 3.75 4.19734 3.75 9.375V14.901C3.75 14.9936 3.72261 15.0841 3.67127 15.1611L0.4779 19.9511C0.166275 20.4186 0 20.9678 0 21.5295C0 23.1011 1.27397 24.375 2.84548 24.375H23.4045C24.9761 24.375 26.25 23.1011 26.25 21.5295C26.25 20.9678 26.0837 20.4186 25.7721 19.9511L22.5788 15.1611C22.5274 15.0841 22.5 14.9936 22.5 14.901V9.375C22.5 4.19734 18.3026 0 13.125 0ZM6.5625 9.375C6.5625 5.75062 9.50062 2.8125 13.125 2.8125C16.7494 2.8125 19.6875 5.75062 19.6875 9.375V14.901C19.6875 15.5489 19.8793 16.1821 20.2386 16.7212L23.4319 21.5111C23.4356 21.5166 23.4375 21.5229 23.4375 21.5295C23.4375 21.5337 23.4366 21.5387 23.4366 21.5387L23.4354 21.5419C23.4354 21.5419 23.4319 21.5488 23.4277 21.5527C23.4238 21.5569 23.4169 21.5604 23.4169 21.5604C23.4169 21.5604 23.4116 21.5625 23.4045 21.5625H2.84548C2.83834 21.5625 2.83307 21.5604 2.83307 21.5604C2.83307 21.5604 2.82617 21.5569 2.82216 21.5527C2.81816 21.5488 2.81451 21.5419 2.81451 21.5419C2.81451 21.5419 2.8125 21.5366 2.8125 21.5295C2.8125 21.5229 2.81443 21.5166 2.81803 21.5111L6.01142 16.7212C6.37074 16.1821 6.5625 15.5489 6.5625 14.901V9.375Z"/>
<path d="M16.8461 26.7178C16.6158 28.5681 15.0376 30 13.125 30C11.2123 30 9.63415 28.5681 9.40388 26.7178C9.37191 26.4609 9.58485 26.25 9.84374 26.25H16.4062C16.6651 26.25 16.878 26.4609 16.8461 26.7178Z"/>
</mask>
<path fill-rule="evenodd" clip-rule="evenodd" d="M13.125 0C7.94734 0 3.75 4.19734 3.75 9.375V14.901C3.75 14.9936 3.72261 15.0841 3.67127 15.1611L0.4779 19.9511C0.166275 20.4186 0 20.9678 0 21.5295C0 23.1011 1.27397 24.375 2.84548 24.375H23.4045C24.9761 24.375 26.25 23.1011 26.25 21.5295C26.25 20.9678 26.0837 20.4186 25.7721 19.9511L22.5788 15.1611C22.5274 15.0841 22.5 14.9936 22.5 14.901V9.375C22.5 4.19734 18.3026 0 13.125 0ZM6.5625 9.375C6.5625 5.75062 9.50062 2.8125 13.125 2.8125C16.7494 2.8125 19.6875 5.75062 19.6875 9.375V14.901C19.6875 15.5489 19.8793 16.1821 20.2386 16.7212L23.4319 21.5111C23.4356 21.5166 23.4375 21.5229 23.4375 21.5295C23.4375 21.5337 23.4366 21.5387 23.4366 21.5387L23.4354 21.5419C23.4354 21.5419 23.4319 21.5488 23.4277 21.5527C23.4238 21.5569 23.4169 21.5604 23.4169 21.5604C23.4169 21.5604 23.4116 21.5625 23.4045 21.5625H2.84548C2.83834 21.5625 2.83307 21.5604 2.83307 21.5604C2.83307 21.5604 2.82617 21.5569 2.82216 21.5527C2.81816 21.5488 2.81451 21.5419 2.81451 21.5419C2.81451 21.5419 2.8125 21.5366 2.8125 21.5295C2.8125 21.5229 2.81443 21.5166 2.81803 21.5111L6.01142 16.7212C6.37074 16.1821 6.5625 15.5489 6.5625 14.901V9.375Z" fill="#24292E"/>
<path d="M16.8461 26.7178C16.6158 28.5681 15.0376 30 13.125 30C11.2123 30 9.63415 28.5681 9.40388 26.7178C9.37191 26.4609 9.58485 26.25 9.84374 26.25H16.4062C16.6651 26.25 16.878 26.4609 16.8461 26.7178Z" fill="#24292E"/>
<path fill-rule="evenodd" clip-rule="evenodd" d="M13.125 0C7.94734 0 3.75 4.19734 3.75 9.375V14.901C3.75 14.9936 3.72261 15.0841 3.67127 15.1611L0.4779 19.9511C0.166275 20.4186 0 20.9678 0 21.5295C0 23.1011 1.27397 24.375 2.84548 24.375H23.4045C24.9761 24.375 26.25 23.1011 26.25 21.5295C26.25 20.9678 26.0837 20.4186 25.7721 19.9511L22.5788 15.1611C22.5274 15.0841 22.5 14.9936 22.5 14.901V9.375C22.5 4.19734 18.3026 0 13.125 0ZM6.5625 9.375C6.5625 5.75062 9.50062 2.8125 13.125 2.8125C16.7494 2.8125 19.6875 5.75062 19.6875 9.375V14.901C19.6875 15.5489 19.8793 16.1821 20.2386 16.7212L23.4319 21.5111C23.4356 21.5166 23.4375 21.5229 23.4375 21.5295C23.4375 21.5337 23.4366 21.5387 23.4366 21.5387L23.4354 21.5419C23.4354 21.5419 23.4319 21.5488 23.4277 21.5527C23.4238 21.5569 23.4169 21.5604 23.4169 21.5604C23.4169 21.5604 23.4116 21.5625 23.4045 21.5625H2.84548C2.83834 21.5625 2.83307 21.5604 2.83307 21.5604C2.83307 21.5604 2.82617 21.5569 2.82216 21.5527C2.81816 21.5488 2.81451 21.5419 2.81451 21.5419C2.81451 21.5419 2.8125 21.5366 2.8125 21.5295C2.8125 21.5229 2.81443 21.5166 2.81803 21.5111L6.01142 16.7212C6.37074 16.1821 6.5625 15.5489 6.5625 14.901V9.375Z" stroke="black" stroke-width="2" mask="url(#path-1-inside-1)"/>
<path d="M16.8461 26.7178C16.6158 28.5681 15.0376 30 13.125 30C11.2123 30 9.63415 28.5681 9.40388 26.7178C9.37191 26.4609 9.58485 26.25 9.84374 26.25H16.4062C16.6651 26.25 16.878 26.4609 16.8461 26.7178Z" stroke="black" stroke-width="2" mask="url(#path-1-inside-1)"/>
</svg>
