<svg width="19" height="20" viewBox="0 0 19 20" fill="#000" xmlns="http://www.w3.org/2000/svg">
<path d="M1.21886 18.125L0.218858 18.1251C0.218875 18.6773 0.666571 19.125 1.21883 19.125L1.21886 18.125ZM4.75429 18.1251L4.75426 19.1251C5.01949 19.1251 5.27385 19.0198 5.46139 18.8322L4.75429 18.1251ZM17.7179 5.1615L18.425 5.86861C18.6126 5.68107 18.7179 5.42672 18.7179 5.1615C18.7179 4.89628 18.6126 4.64193 18.425 4.45439L17.7179 5.1615ZM14.1824 1.62598L14.8895 0.918868C14.499 0.528346 13.8658 0.528346 13.4753 0.918869L14.1824 1.62598ZM1.21875 14.5896L0.511644 13.8825C0.324099 14.07 0.218742 14.3244 0.21875 14.5896L1.21875 14.5896ZM11.3539 4.45439C10.9634 4.06387 10.3302 4.06387 9.93972 4.45439C9.5492 4.84492 9.5492 5.47808 9.93972 5.86861L11.3539 4.45439ZM13.4753 9.40415C13.8658 9.79467 14.499 9.79467 14.8895 9.40415C15.28 9.01363 15.28 8.38046 14.8895 7.98994L13.4753 9.40415ZM1.21883 19.125L4.75426 19.1251L4.75431 17.1251L1.21888 17.125L1.21883 19.125ZM5.46139 18.8322L18.425 5.86861L17.0108 4.45439L4.04718 17.418L5.46139 18.8322ZM18.425 4.45439L14.8895 0.918868L13.4753 2.33308L17.0108 5.86861L18.425 4.45439ZM13.4753 0.918869L0.511644 13.8825L1.92586 15.2967L14.8895 2.33308L13.4753 0.918869ZM0.21875 14.5896L0.218858 18.1251L2.21886 18.125L2.21875 14.5896L0.21875 14.5896ZM9.93972 5.86861L13.4753 9.40415L14.8895 7.98994L11.3539 4.45439L9.93972 5.86861Z" fill="white"/>
</svg>
