<svg width="30" height="30" viewBox="0 0 30 30" fill="none" xmlns="http://www.w3.org/2000/svg">
<path d="M23.4384 26.25H6.5625C6.31386 26.25 6.0754 26.1512 5.89959 25.9754C5.72377 25.7996 5.625 25.5611 5.625 25.3125V4.6875C5.625 4.43886 5.72377 4.2004 5.89959 4.02459C6.0754 3.84877 6.31386 3.75 6.5625 3.75H17.8134L24.3759 10.3125V25.3125C24.3759 25.4356 24.3517 25.5575 24.3046 25.6713C24.2574 25.785 24.1884 25.8884 24.1013 25.9754C24.0143 26.0625 23.9109 26.1315 23.7972 26.1786C23.6834 26.2258 23.5615 26.25 23.4384 26.25Z" stroke="white" stroke-width="2" stroke-linecap="round" stroke-linejoin="round"/>
<path d="M17.8125 3.75V10.3125H24.3759" stroke="white" stroke-width="2" stroke-linecap="round" stroke-linejoin="round"/>
<path d="M11.25 15.9375H18.75" stroke="white" stroke-width="2" stroke-linecap="round" stroke-linejoin="round"/>
<path d="M11.25 19.6875H18.75" stroke="white" stroke-width="2" stroke-linecap="round" stroke-linejoin="round"/>
</svg>
