<svg width="80" height="81" viewBox="0 0 80 81" fill="none" xmlns="http://www.w3.org/2000/svg">
<circle cx="40" cy="40.0493" r="39" fill="white" stroke="#E6E6E6" stroke-width="2"/>
<path d="M56.8419 40.2994C56.8419 39.1311 56.7384 38.022 56.5609 36.9425H39.8506V43.6119H49.4184C48.9895 45.8005 47.7326 47.649 45.8693 48.9059V53.3423H51.5774C54.9195 50.2516 56.8419 45.697 56.8419 40.2994Z" fill="#4285F4"/>
<path d="M39.8508 57.6457C44.6421 57.6457 48.6496 56.0486 51.5776 53.3424L45.8695 48.906C44.2724 49.9708 42.2465 50.6214 39.8508 50.6214C35.2222 50.6214 31.3034 47.5012 29.8985 43.2866H24.0129V47.8561C26.9262 53.653 32.9153 57.6457 39.8508 57.6457Z" fill="#34A853"/>
<path d="M29.8985 43.2866C29.5288 42.2218 29.3365 41.0831 29.3365 39.9001C29.3365 38.7171 29.5436 37.5784 29.8985 36.5137V31.9442H24.0129C22.8003 34.3399 22.1052 37.0313 22.1052 39.9001C22.1052 42.769 22.8003 45.4604 24.0129 47.856L29.8985 43.2866Z" fill="#FBBC05"/>
<path d="M39.8508 29.1788C42.4683 29.1788 44.8048 30.0809 46.6533 31.8406L51.7107 26.7832C48.6496 23.9143 44.6421 22.1545 39.8508 22.1545C32.9153 22.1545 26.9262 26.1473 24.0129 31.9442L29.8985 36.5136C31.3034 32.2991 35.2222 29.1788 39.8508 29.1788Z" fill="#EA4335"/>
</svg>
