<svg width="25" height="26" viewBox="0 0 25 26" fill="none" xmlns="http://www.w3.org/2000/svg">
<path d="M13.0524 21.1916L20.9657 13.2783C22.9101 11.334 23.197 8.13517 21.3569 6.09178C20.896 5.57847 20.3354 5.16444 19.7092 4.87496C19.083 4.58549 18.4044 4.42663 17.7148 4.40809C17.0251 4.38954 16.339 4.5117 15.6981 4.7671C15.0573 5.02251 14.4752 5.4058 13.9874 5.8936L12.5 7.38095L11.2158 6.09677C9.27146 4.1524 6.07267 3.86553 4.02928 5.70557C3.51597 6.16647 3.10194 6.72713 2.81246 7.35332C2.52299 7.97952 2.36413 8.65813 2.34559 9.34775C2.32704 10.0374 2.4492 10.7235 2.7046 11.3644C2.96001 12.0052 3.3433 12.5873 3.8311 13.0752L11.9476 21.1916C12.0941 21.3381 12.2928 21.4205 12.5 21.4205C12.7072 21.4205 12.9059 21.3381 13.0524 21.1916V21.1916Z" stroke="white" stroke-width="2" stroke-linecap="round" stroke-linejoin="round"/>
</svg>
