<svg width="23" height="20" viewBox="0 0 23 20" fill="none" xmlns="http://www.w3.org/2000/svg">
<path d="M12.0524 18.1916L19.9657 10.2783C21.9101 8.33396 22.197 5.13517 20.3569 3.09178C19.896 2.57847 19.3354 2.16444 18.7092 1.87496C18.083 1.58549 17.4044 1.42663 16.7148 1.40809C16.0251 1.38954 15.339 1.5117 14.6981 1.7671C14.0573 2.02251 13.4752 2.4058 12.9874 2.8936L11.5 4.38095L10.2158 3.09677C8.27146 1.1524 5.07267 0.865534 3.02928 2.70557C2.51597 3.16647 2.10194 3.72713 1.81246 4.35332C1.52299 4.97952 1.36413 5.65813 1.34559 6.34775C1.32704 7.03737 1.4492 7.72354 1.7046 8.36439C1.96001 9.00524 2.3433 9.58733 2.8311 10.0752L10.9476 18.1916C11.0941 18.3381 11.2928 18.4205 11.5 18.4205C11.7072 18.4205 11.9059 18.3381 12.0524 18.1916Z" fill="#FF511B" stroke="#FF511B" stroke-width="2" stroke-linecap="round" stroke-linejoin="round"/>
</svg>
