<svg width="200" height="62" viewBox="0 0 200 62" fill="none" xmlns="http://www.w3.org/2000/svg">
<rect y="1.91431" width="53.6" height="53.6" fill="#FF511B"/>
<path d="M88.4209 52.3125C85.866 52.3125 83.6097 51.8148 81.652 50.8193C79.7275 49.8239 78.2178 48.4303 77.1228 46.6385C76.061 44.8136 75.5301 42.7232 75.5301 40.3673V17.6716C75.5301 17.5057 75.5799 17.3729 75.6794 17.2734C75.8122 17.1407 75.9615 17.0743 76.1274 17.0743H81.9506C82.1165 17.0743 82.2493 17.1407 82.3488 17.2734C82.4815 17.3729 82.5479 17.5057 82.5479 17.6716V40.4171C82.5479 42.1757 83.0788 43.6025 84.1406 44.6974C85.2356 45.7592 86.6623 46.2901 88.4209 46.2901C90.1795 46.2901 91.5897 45.7592 92.6515 44.6974C93.7465 43.6025 94.294 42.1757 94.294 40.4171V17.6716C94.294 17.5057 94.3437 17.3729 94.4433 17.2734C94.576 17.1407 94.7253 17.0743 94.8912 17.0743H100.714C100.88 17.0743 101.013 17.1407 101.113 17.2734C101.245 17.3729 101.312 17.5057 101.312 17.6716V40.3673C101.312 42.7232 100.764 44.8136 99.6693 46.6385C98.6075 48.4303 97.0977 49.8239 95.1401 50.8193C93.2156 51.8148 90.9759 52.3125 88.4209 52.3125ZM129.478 33.2002C130.075 34.8925 130.374 36.8833 130.374 39.1728C130.374 41.4623 130.058 43.5361 129.428 45.3942C128.665 47.5178 127.454 49.2101 125.795 50.4709C124.169 51.6986 122.145 52.3125 119.722 52.3125C117.333 52.3125 115.475 51.483 114.148 49.8239C114.082 49.7244 114.015 49.6912 113.949 49.7244C113.883 49.7575 113.849 49.8239 113.849 49.9234V60.5745C113.849 60.7404 113.783 60.8732 113.65 60.9727C113.551 61.1054 113.418 61.1718 113.252 61.1718H107.429C107.263 61.1718 107.114 61.1054 106.981 60.9727C106.881 60.8732 106.832 60.7404 106.832 60.5745V26.929C106.832 26.7631 106.881 26.6304 106.981 26.5309C107.114 26.3982 107.263 26.3318 107.429 26.3318H113.252C113.418 26.3318 113.551 26.3982 113.65 26.5309C113.783 26.6304 113.849 26.7631 113.849 26.929V28.5715C113.849 28.671 113.883 28.7374 113.949 28.7706C114.015 28.7706 114.082 28.7374 114.148 28.671C115.542 26.8461 117.466 25.9336 119.922 25.9336C122.211 25.9336 124.185 26.5806 125.844 27.8747C127.537 29.1356 128.748 30.9108 129.478 33.2002ZM121.863 44.349C122.692 43.055 123.107 41.2964 123.107 39.0733C123.107 36.9829 122.759 35.3238 122.062 34.0961C121.299 32.6694 120.071 31.956 118.379 31.956C116.852 31.956 115.708 32.6694 114.944 34.0961C114.248 35.2906 113.899 36.9663 113.899 39.123C113.899 41.3462 114.264 43.0716 114.994 44.2993C115.757 45.6265 116.886 46.2901 118.379 46.2901C119.872 46.2901 121.033 45.6431 121.863 44.349ZM150.549 26.929C150.549 26.7631 150.599 26.6304 150.698 26.5309C150.831 26.3982 150.98 26.3318 151.146 26.3318H156.969C157.135 26.3318 157.268 26.3982 157.368 26.5309C157.5 26.6304 157.567 26.7631 157.567 26.929V49.6248C157.567 53.9715 156.306 57.0739 153.784 58.9321C151.295 60.7902 148.077 61.7193 144.128 61.7193C142.967 61.7193 141.673 61.6363 140.246 61.4704C139.914 61.4372 139.748 61.2216 139.748 60.8234L139.948 55.6969C139.948 55.2656 140.18 55.0831 140.644 55.1494C141.839 55.3485 142.934 55.4481 143.929 55.4481C146.053 55.4481 147.679 54.9835 148.807 54.0545C149.968 53.1254 150.549 51.6323 150.549 49.575C150.549 49.4755 150.516 49.4257 150.449 49.4257C150.383 49.3926 150.317 49.4091 150.25 49.4755C148.989 50.8359 147.148 51.5161 144.726 51.5161C142.569 51.5161 140.578 51.0018 138.753 49.9732C136.961 48.9114 135.684 47.2192 134.921 44.8965C134.423 43.3702 134.174 41.3959 134.174 38.9737C134.174 36.3856 134.473 34.2786 135.07 32.6528C135.767 30.6287 136.945 29.0029 138.604 27.7752C140.263 26.5475 142.187 25.9336 144.377 25.9336C146.932 25.9336 148.89 26.6968 150.25 28.2231C150.317 28.2895 150.383 28.3226 150.449 28.3226C150.516 28.2895 150.549 28.2231 150.549 28.1236V26.929ZM150.151 43.0052C150.416 42.0098 150.549 40.6494 150.549 38.924C150.549 37.8954 150.516 37.099 150.449 36.5349C150.383 35.9709 150.267 35.44 150.101 34.9422C149.802 34.0464 149.305 33.333 148.608 32.8021C147.911 32.238 147.048 31.956 146.02 31.956C145.024 31.956 144.178 32.238 143.481 32.8021C142.785 33.333 142.27 34.0464 141.938 34.9422C141.474 35.9377 141.242 37.2815 141.242 38.9737C141.242 40.8319 141.441 42.1591 141.839 42.9554C142.138 43.8513 142.652 44.5813 143.382 45.1454C144.145 45.6763 145.041 45.9417 146.069 45.9417C147.131 45.9417 148.011 45.6763 148.707 45.1454C149.404 44.5813 149.885 43.8679 150.151 43.0052ZM163.174 51.9143C163.008 51.9143 162.859 51.8645 162.726 51.765C162.627 51.6323 162.577 51.483 162.577 51.317V17.6716C162.577 17.5057 162.627 17.3729 162.726 17.2734C162.859 17.1407 163.008 17.0743 163.174 17.0743H168.997C169.163 17.0743 169.296 17.1407 169.396 17.2734C169.528 17.3729 169.595 17.5057 169.595 17.6716V51.317C169.595 51.483 169.528 51.6323 169.396 51.765C169.296 51.8645 169.163 51.9143 168.997 51.9143H163.174ZM197.374 36.4852C197.573 37.746 197.64 39.1562 197.573 40.7157C197.54 41.1139 197.324 41.313 196.926 41.313H181.547C181.348 41.313 181.281 41.3959 181.348 41.5618C181.447 42.2255 181.63 42.8891 181.895 43.5527C182.758 45.4108 184.516 46.3399 187.171 46.3399C189.295 46.3067 190.97 45.444 192.198 43.7518C192.331 43.5527 192.48 43.4532 192.646 43.4532C192.745 43.4532 192.861 43.5195 192.994 43.6522L196.578 47.186C196.744 47.3519 196.827 47.5012 196.827 47.634C196.827 47.7003 196.76 47.833 196.628 48.0321C195.533 49.3926 194.122 50.4543 192.397 51.2175C190.672 51.9475 188.78 52.3125 186.723 52.3125C183.869 52.3125 181.447 51.6654 179.456 50.3714C177.499 49.0773 176.089 47.269 175.226 44.9463C174.529 43.2873 174.181 41.1139 174.181 38.4262C174.181 36.6013 174.429 34.992 174.927 33.5984C175.69 31.2426 177.018 29.3678 178.909 27.9742C180.833 26.5806 183.106 25.8838 185.728 25.8838C189.046 25.8838 191.7 26.8461 193.691 28.7706C195.715 30.6951 196.943 33.2666 197.374 36.4852ZM185.777 31.956C183.687 31.956 182.31 32.9348 181.646 34.8925C181.514 35.3238 181.397 35.8547 181.298 36.4852C181.298 36.6511 181.381 36.734 181.547 36.734H190.157C190.356 36.734 190.423 36.6511 190.356 36.4852C190.19 35.5229 190.107 35.0584 190.107 35.0916C189.809 34.0961 189.278 33.333 188.515 32.8021C187.785 32.238 186.872 31.956 185.777 31.956Z" fill="white"/>
</svg>
