<svg width="105" height="33" viewBox="0 0 105 33" fill="none" xmlns="http://www.w3.org/2000/svg">
<path d="M28 1H0V29H28V1Z" fill="#FF511B"/>
<path d="M19.1313 4.075L15.5613 9.625C15.4913 9.725 15.5713 9.865 15.6913 9.865H22.8413C22.9613 9.865 23.0413 9.725 22.9713 9.625L19.4013 4.075C19.3313 3.975 19.1913 3.975 19.1313 4.075Z" fill="white"/>
<path d="M20.8209 7.20498C20.7709 7.13498 20.7009 7.10498 20.6109 7.10498H17.5709C17.4809 7.10498 17.4109 7.13498 17.3409 7.20498C17.2909 7.25498 17.2609 7.32498 17.2609 7.40498V19.005C17.2609 19.905 16.9709 20.625 16.4009 21.185C15.8509 21.725 15.1109 21.995 14.1909 21.995C13.2709 21.995 12.5309 21.725 11.9509 21.185C11.4009 20.625 11.1209 19.895 11.1209 19.005V11.745V10.105C11.1209 9.97498 11.0209 9.87498 10.8909 9.87498H7.69094C7.56094 9.87498 7.46094 9.97498 7.46094 10.105V18.985C7.46094 20.185 7.74094 21.255 8.29094 22.185C8.86094 23.095 9.65094 23.805 10.6609 24.315C11.6809 24.825 12.8609 25.075 14.2009 25.075C15.5409 25.075 16.7009 24.825 17.7109 24.315C18.7309 23.805 19.5209 23.095 20.0809 22.185C20.6509 21.255 20.9409 20.185 20.9409 18.985V7.40498C20.9209 7.32498 20.8909 7.25498 20.8209 7.20498Z" fill="white"/>
<path d="M46.19 27.208C44.8553 27.208 43.6767 26.948 42.654 26.428C41.6487 25.908 40.86 25.18 40.288 24.244C39.7333 23.2907 39.456 22.1987 39.456 20.968V9.112C39.456 9.02533 39.482 8.956 39.534 8.904C39.6033 8.83467 39.6813 8.8 39.768 8.8H42.81C42.8967 8.8 42.966 8.83467 43.018 8.904C43.0873 8.956 43.122 9.02533 43.122 9.112V20.994C43.122 21.9127 43.3993 22.658 43.954 23.23C44.526 23.7847 45.2713 24.062 46.19 24.062C47.1087 24.062 47.8453 23.7847 48.4 23.23C48.972 22.658 49.258 21.9127 49.258 20.994V9.112C49.258 9.02533 49.284 8.956 49.336 8.904C49.4053 8.83467 49.4833 8.8 49.57 8.8H52.612C52.6987 8.8 52.768 8.83467 52.82 8.904C52.8893 8.956 52.924 9.02533 52.924 9.112V20.968C52.924 22.1987 52.638 23.2907 52.066 24.244C51.5113 25.18 50.7227 25.908 49.7 26.428C48.6947 26.948 47.5247 27.208 46.19 27.208ZM67.6376 17.224C67.9496 18.108 68.1056 19.148 68.1056 20.344C68.1056 21.54 67.9409 22.6233 67.6116 23.594C67.2129 24.7033 66.5802 25.5873 65.7136 26.246C64.8642 26.8873 63.8069 27.208 62.5416 27.208C61.2936 27.208 60.3229 26.7747 59.6296 25.908C59.5949 25.856 59.5602 25.8387 59.5256 25.856C59.4909 25.8733 59.4736 25.908 59.4736 25.96V31.524C59.4736 31.6107 59.4389 31.68 59.3696 31.732C59.3176 31.8013 59.2482 31.836 59.1616 31.836H56.1196C56.0329 31.836 55.9549 31.8013 55.8856 31.732C55.8336 31.68 55.8076 31.6107 55.8076 31.524V13.948C55.8076 13.8613 55.8336 13.792 55.8856 13.74C55.9549 13.6707 56.0329 13.636 56.1196 13.636H59.1616C59.2482 13.636 59.3176 13.6707 59.3696 13.74C59.4389 13.792 59.4736 13.8613 59.4736 13.948V14.806C59.4736 14.858 59.4909 14.8927 59.5256 14.91C59.5602 14.91 59.5949 14.8927 59.6296 14.858C60.3576 13.9047 61.3629 13.428 62.6456 13.428C63.8416 13.428 64.8729 13.766 65.7396 14.442C66.6236 15.1007 67.2562 16.028 67.6376 17.224ZM63.6596 23.048C64.0929 22.372 64.3096 21.4533 64.3096 20.292C64.3096 19.2 64.1276 18.3333 63.7636 17.692C63.3649 16.9467 62.7236 16.574 61.8396 16.574C61.0422 16.574 60.4442 16.9467 60.0456 17.692C59.6816 18.316 59.4996 19.1913 59.4996 20.318C59.4996 21.4793 59.6902 22.3807 60.0716 23.022C60.4702 23.7153 61.0596 24.062 61.8396 24.062C62.6196 24.062 63.2262 23.724 63.6596 23.048ZM78.6449 13.948C78.6449 13.8613 78.6709 13.792 78.7229 13.74C78.7922 13.6707 78.8702 13.636 78.9569 13.636H81.9989C82.0856 13.636 82.1549 13.6707 82.2069 13.74C82.2762 13.792 82.3109 13.8613 82.3109 13.948V25.804C82.3109 28.0747 81.6522 29.6953 80.3349 30.666C79.0349 31.6367 77.3536 32.122 75.2909 32.122C74.6842 32.122 74.0082 32.0787 73.2629 31.992C73.0896 31.9747 73.0029 31.862 73.0029 31.654L73.1069 28.976C73.1069 28.7507 73.2282 28.6553 73.4709 28.69C74.0949 28.794 74.6669 28.846 75.1869 28.846C76.2962 28.846 77.1456 28.6033 77.7349 28.118C78.3416 27.6327 78.6449 26.8527 78.6449 25.778C78.6449 25.726 78.6276 25.7 78.5929 25.7C78.5582 25.6827 78.5236 25.6913 78.4889 25.726C77.8302 26.4367 76.8682 26.792 75.6029 26.792C74.4762 26.792 73.4362 26.5233 72.4829 25.986C71.5469 25.4313 70.8796 24.5473 70.4809 23.334C70.2209 22.5367 70.0909 21.5053 70.0909 20.24C70.0909 18.888 70.2469 17.7873 70.5589 16.938C70.9229 15.8807 71.5382 15.0313 72.4049 14.39C73.2716 13.7487 74.2769 13.428 75.4209 13.428C76.7556 13.428 77.7782 13.8267 78.4889 14.624C78.5236 14.6587 78.5582 14.676 78.5929 14.676C78.6276 14.6587 78.6449 14.624 78.6449 14.572V13.948ZM78.4369 22.346C78.5756 21.826 78.6449 21.1153 78.6449 20.214C78.6449 19.6767 78.6276 19.2607 78.5929 18.966C78.5582 18.6713 78.4976 18.394 78.4109 18.134C78.2549 17.666 77.9949 17.2933 77.6309 17.016C77.2669 16.7213 76.8162 16.574 76.2789 16.574C75.7589 16.574 75.3169 16.7213 74.9529 17.016C74.5889 17.2933 74.3202 17.666 74.1469 18.134C73.9042 18.654 73.7829 19.356 73.7829 20.24C73.7829 21.2107 73.8869 21.904 74.0949 22.32C74.2509 22.788 74.5196 23.1693 74.9009 23.464C75.2996 23.7413 75.7676 23.88 76.3049 23.88C76.8596 23.88 77.3189 23.7413 77.6829 23.464C78.0469 23.1693 78.2982 22.7967 78.4369 22.346ZM85.2402 27C85.1535 27 85.0755 26.974 85.0062 26.922C84.9542 26.8527 84.9282 26.7747 84.9282 26.688V9.112C84.9282 9.02533 84.9542 8.956 85.0062 8.904C85.0755 8.83467 85.1535 8.8 85.2402 8.8H88.2822C88.3688 8.8 88.4382 8.83467 88.4902 8.904C88.5595 8.956 88.5942 9.02533 88.5942 9.112V26.688C88.5942 26.7747 88.5595 26.8527 88.4902 26.922C88.4382 26.974 88.3688 27 88.2822 27H85.2402ZM103.106 18.94C103.21 19.5987 103.244 20.3353 103.21 21.15C103.192 21.358 103.08 21.462 102.872 21.462H94.8378C94.7338 21.462 94.6992 21.5053 94.7338 21.592C94.7858 21.9387 94.8812 22.2853 95.0198 22.632C95.4705 23.6027 96.3892 24.088 97.7758 24.088C98.8852 24.0707 99.7605 23.62 100.402 22.736C100.471 22.632 100.549 22.58 100.636 22.58C100.688 22.58 100.748 22.6147 100.818 22.684L102.69 24.53C102.776 24.6167 102.82 24.6947 102.82 24.764C102.82 24.7987 102.785 24.868 102.716 24.972C102.144 25.6827 101.407 26.2373 100.506 26.636C99.6045 27.0173 98.6165 27.208 97.5418 27.208C96.0512 27.208 94.7858 26.87 93.7458 26.194C92.7232 25.518 91.9865 24.5733 91.5358 23.36C91.1718 22.4933 90.9898 21.358 90.9898 19.954C90.9898 19.0007 91.1198 18.16 91.3798 17.432C91.7785 16.2013 92.4718 15.222 93.4598 14.494C94.4652 13.766 95.6525 13.402 97.0218 13.402C98.7552 13.402 100.142 13.9047 101.182 14.91C102.239 15.9153 102.88 17.2587 103.106 18.94ZM97.0478 16.574C95.9558 16.574 95.2365 17.0853 94.8898 18.108C94.8205 18.3333 94.7598 18.6107 94.7078 18.94C94.7078 19.0267 94.7512 19.07 94.8378 19.07H99.3358C99.4398 19.07 99.4745 19.0267 99.4398 18.94C99.3532 18.4373 99.3098 18.1947 99.3098 18.212C99.1538 17.692 98.8765 17.2933 98.4778 17.016C98.0965 16.7213 97.6198 16.574 97.0478 16.574Z" fill="white"/>
</svg>
