<svg width="153" height="36" viewBox="0 0 153 36" fill="none" xmlns="http://www.w3.org/2000/svg">
<rect y="3.90918" width="28" height="28" fill="#FF511B"/>
<path d="M46.19 30.1172C44.8553 30.1172 43.6767 29.8572 42.654 29.3372C41.6487 28.8172 40.86 28.0892 40.288 27.1532C39.7333 26.1998 39.456 25.1078 39.456 23.8772V12.0212C39.456 11.9345 39.482 11.8652 39.534 11.8132C39.6033 11.7438 39.6813 11.7092 39.768 11.7092H42.81C42.8967 11.7092 42.966 11.7438 43.018 11.8132C43.0873 11.8652 43.122 11.9345 43.122 12.0212V23.9032C43.122 24.8218 43.3993 25.5672 43.954 26.1392C44.526 26.6938 45.2713 26.9712 46.19 26.9712C47.1087 26.9712 47.8453 26.6938 48.4 26.1392C48.972 25.5672 49.258 24.8218 49.258 23.9032V12.0212C49.258 11.9345 49.284 11.8652 49.336 11.8132C49.4053 11.7438 49.4833 11.7092 49.57 11.7092H52.612C52.6987 11.7092 52.768 11.7438 52.82 11.8132C52.8893 11.8652 52.924 11.9345 52.924 12.0212V23.8772C52.924 25.1078 52.638 26.1998 52.066 27.1532C51.5113 28.0892 50.7227 28.8172 49.7 29.3372C48.6947 29.8572 47.5247 30.1172 46.19 30.1172ZM67.6376 20.1332C67.9496 21.0172 68.1056 22.0572 68.1056 23.2532C68.1056 24.4492 67.9409 25.5325 67.6116 26.5032C67.2129 27.6125 66.5802 28.4965 65.7136 29.1552C64.8642 29.7965 63.8069 30.1172 62.5416 30.1172C61.2936 30.1172 60.3229 29.6838 59.6296 28.8172C59.5949 28.7652 59.5602 28.7478 59.5256 28.7652C59.4909 28.7825 59.4736 28.8172 59.4736 28.8692V34.4332C59.4736 34.5198 59.4389 34.5892 59.3696 34.6412C59.3176 34.7105 59.2482 34.7452 59.1616 34.7452H56.1196C56.0329 34.7452 55.9549 34.7105 55.8856 34.6412C55.8336 34.5892 55.8076 34.5198 55.8076 34.4332V16.8572C55.8076 16.7705 55.8336 16.7012 55.8856 16.6492C55.9549 16.5798 56.0329 16.5452 56.1196 16.5452H59.1616C59.2482 16.5452 59.3176 16.5798 59.3696 16.6492C59.4389 16.7012 59.4736 16.7705 59.4736 16.8572V17.7152C59.4736 17.7672 59.4909 17.8018 59.5256 17.8192C59.5602 17.8192 59.5949 17.8018 59.6296 17.7672C60.3576 16.8138 61.3629 16.3372 62.6456 16.3372C63.8416 16.3372 64.8729 16.6752 65.7396 17.3512C66.6236 18.0098 67.2562 18.9372 67.6376 20.1332ZM63.6596 25.9572C64.0929 25.2812 64.3096 24.3625 64.3096 23.2012C64.3096 22.1092 64.1276 21.2425 63.7636 20.6012C63.3649 19.8558 62.7236 19.4832 61.8396 19.4832C61.0422 19.4832 60.4442 19.8558 60.0456 20.6012C59.6816 21.2252 59.4996 22.1005 59.4996 23.2272C59.4996 24.3885 59.6902 25.2898 60.0716 25.9312C60.4702 26.6245 61.0596 26.9712 61.8396 26.9712C62.6196 26.9712 63.2262 26.6332 63.6596 25.9572ZM78.6449 16.8572C78.6449 16.7705 78.6709 16.7012 78.7229 16.6492C78.7922 16.5798 78.8702 16.5452 78.9569 16.5452H81.9989C82.0856 16.5452 82.1549 16.5798 82.2069 16.6492C82.2762 16.7012 82.3109 16.7705 82.3109 16.8572V28.7132C82.3109 30.9838 81.6522 32.6045 80.3349 33.5752C79.0349 34.5458 77.3536 35.0312 75.2909 35.0312C74.6842 35.0312 74.0082 34.9878 73.2629 34.9012C73.0896 34.8838 73.0029 34.7712 73.0029 34.5632L73.1069 31.8852C73.1069 31.6598 73.2282 31.5645 73.4709 31.5992C74.0949 31.7032 74.6669 31.7552 75.1869 31.7552C76.2962 31.7552 77.1456 31.5125 77.7349 31.0272C78.3416 30.5418 78.6449 29.7618 78.6449 28.6872C78.6449 28.6352 78.6276 28.6092 78.5929 28.6092C78.5582 28.5918 78.5236 28.6005 78.4889 28.6352C77.8302 29.3458 76.8682 29.7012 75.6029 29.7012C74.4762 29.7012 73.4362 29.4325 72.4829 28.8952C71.5469 28.3405 70.8796 27.4565 70.4809 26.2432C70.2209 25.4458 70.0909 24.4145 70.0909 23.1492C70.0909 21.7972 70.2469 20.6965 70.5589 19.8472C70.9229 18.7898 71.5382 17.9405 72.4049 17.2992C73.2716 16.6578 74.2769 16.3372 75.4209 16.3372C76.7556 16.3372 77.7782 16.7358 78.4889 17.5332C78.5236 17.5678 78.5582 17.5852 78.5929 17.5852C78.6276 17.5678 78.6449 17.5332 78.6449 17.4812V16.8572ZM78.4369 25.2552C78.5756 24.7352 78.6449 24.0245 78.6449 23.1232C78.6449 22.5858 78.6276 22.1698 78.5929 21.8752C78.5582 21.5805 78.4976 21.3032 78.4109 21.0432C78.2549 20.5752 77.9949 20.2025 77.6309 19.9252C77.2669 19.6305 76.8162 19.4832 76.2789 19.4832C75.7589 19.4832 75.3169 19.6305 74.9529 19.9252C74.5889 20.2025 74.3202 20.5752 74.1469 21.0432C73.9042 21.5632 73.7829 22.2652 73.7829 23.1492C73.7829 24.1198 73.8869 24.8132 74.0949 25.2292C74.2509 25.6972 74.5196 26.0785 74.9009 26.3732C75.2996 26.6505 75.7676 26.7892 76.3049 26.7892C76.8596 26.7892 77.3189 26.6505 77.6829 26.3732C78.0469 26.0785 78.2982 25.7058 78.4369 25.2552ZM85.2402 29.9092C85.1535 29.9092 85.0755 29.8832 85.0062 29.8312C84.9542 29.7618 84.9282 29.6838 84.9282 29.5972V12.0212C84.9282 11.9345 84.9542 11.8652 85.0062 11.8132C85.0755 11.7438 85.1535 11.7092 85.2402 11.7092H88.2822C88.3688 11.7092 88.4382 11.7438 88.4902 11.8132C88.5595 11.8652 88.5942 11.9345 88.5942 12.0212V29.5972C88.5942 29.6838 88.5595 29.7618 88.4902 29.8312C88.4382 29.8832 88.3688 29.9092 88.2822 29.9092H85.2402ZM103.106 21.8492C103.21 22.5078 103.244 23.2445 103.21 24.0592C103.192 24.2672 103.08 24.3712 102.872 24.3712H94.8378C94.7338 24.3712 94.6992 24.4145 94.7338 24.5012C94.7858 24.8478 94.8812 25.1945 95.0198 25.5412C95.4705 26.5118 96.3892 26.9972 97.7758 26.9972C98.8852 26.9798 99.7605 26.5292 100.402 25.6452C100.471 25.5412 100.549 25.4892 100.636 25.4892C100.688 25.4892 100.748 25.5238 100.818 25.5932L102.69 27.4392C102.776 27.5258 102.82 27.6038 102.82 27.6732C102.82 27.7078 102.785 27.7772 102.716 27.8812C102.144 28.5918 101.407 29.1465 100.506 29.5452C99.6045 29.9265 98.6165 30.1172 97.5418 30.1172C96.0512 30.1172 94.7858 29.7792 93.7458 29.1032C92.7232 28.4272 91.9865 27.4825 91.5358 26.2692C91.1718 25.4025 90.9898 24.2672 90.9898 22.8632C90.9898 21.9098 91.1198 21.0692 91.3798 20.3412C91.7785 19.1105 92.4718 18.1312 93.4598 17.4032C94.4652 16.6752 95.6525 16.3112 97.0218 16.3112C98.7552 16.3112 100.142 16.8138 101.182 17.8192C102.239 18.8245 102.88 20.1678 103.106 21.8492ZM97.0478 19.4832C95.9558 19.4832 95.2365 19.9945 94.8898 21.0172C94.8205 21.2425 94.7598 21.5198 94.7078 21.8492C94.7078 21.9358 94.7512 21.9792 94.8378 21.9792H99.3358C99.4398 21.9792 99.4745 21.9358 99.4398 21.8492C99.3532 21.3465 99.3098 21.1038 99.3098 21.1212C99.1538 20.6012 98.8765 20.2025 98.4778 19.9252C98.0965 19.6305 97.6198 19.4832 97.0478 19.4832Z" fill="black"/>
</svg>
