<svg width="150" height="34" viewBox="0 0 150 34" fill="none" xmlns="http://www.w3.org/2000/svg">
<g clip-path="url(#clip0_2043:14998)">
<path d="M28 2.36353H0V30.3635H28V2.36353Z" fill="#FF511B"/>
<path d="M19.1293 5.43853L15.5593 10.9885C15.4893 11.0885 15.5693 11.2285 15.6893 11.2285H22.8393C22.9593 11.2285 23.0393 11.0885 22.9693 10.9885L19.3993 5.43853C19.3293 5.33853 19.1893 5.33853 19.1293 5.43853Z" fill="white"/>
<path d="M20.82 8.56851C20.77 8.49851 20.7 8.46851 20.61 8.46851H17.57C17.48 8.46851 17.41 8.49851 17.34 8.56851C17.29 8.61851 17.26 8.68851 17.26 8.76851V20.3685C17.26 21.2685 16.97 21.9885 16.4 22.5485C15.85 23.0885 15.11 23.3585 14.19 23.3585C13.27 23.3585 12.53 23.0885 11.95 22.5485C11.4 21.9885 11.12 21.2585 11.12 20.3685V13.1085V11.4685C11.12 11.3385 11.02 11.2385 10.89 11.2385H7.68996C7.55996 11.2385 7.45996 11.3385 7.45996 11.4685V20.3485C7.45996 21.5485 7.73996 22.6185 8.28996 23.5485C8.85996 24.4585 9.64996 25.1685 10.66 25.6785C11.68 26.1885 12.86 26.4385 14.2 26.4385C15.54 26.4385 16.7 26.1885 17.71 25.6785C18.73 25.1685 19.52 24.4585 20.08 23.5485C20.65 22.6185 20.94 21.5485 20.94 20.3485V8.76851C20.92 8.68851 20.89 8.61851 20.82 8.56851Z" fill="white"/>
</g>
<path d="M46.19 28.5715C44.8553 28.5715 43.6767 28.3115 42.654 27.7915C41.6487 27.2715 40.86 26.5435 40.288 25.6075C39.7333 24.6542 39.456 23.5622 39.456 22.3315V10.4755C39.456 10.3889 39.482 10.3195 39.534 10.2675C39.6033 10.1982 39.6813 10.1635 39.768 10.1635H42.81C42.8967 10.1635 42.966 10.1982 43.018 10.2675C43.0873 10.3195 43.122 10.3889 43.122 10.4755V22.3575C43.122 23.2762 43.3993 24.0215 43.954 24.5935C44.526 25.1482 45.2713 25.4255 46.19 25.4255C47.1087 25.4255 47.8453 25.1482 48.4 24.5935C48.972 24.0215 49.258 23.2762 49.258 22.3575V10.4755C49.258 10.3889 49.284 10.3195 49.336 10.2675C49.4053 10.1982 49.4833 10.1635 49.57 10.1635H52.612C52.6987 10.1635 52.768 10.1982 52.82 10.2675C52.8893 10.3195 52.924 10.3889 52.924 10.4755V22.3315C52.924 23.5622 52.638 24.6542 52.066 25.6075C51.5113 26.5435 50.7227 27.2715 49.7 27.7915C48.6947 28.3115 47.5247 28.5715 46.19 28.5715ZM67.6376 18.5875C67.9496 19.4715 68.1056 20.5115 68.1056 21.7075C68.1056 22.9035 67.9409 23.9869 67.6116 24.9575C67.2129 26.0669 66.5802 26.9509 65.7136 27.6095C64.8642 28.2509 63.8069 28.5715 62.5416 28.5715C61.2936 28.5715 60.3229 28.1382 59.6296 27.2715C59.5949 27.2195 59.5602 27.2022 59.5256 27.2195C59.4909 27.2369 59.4736 27.2715 59.4736 27.3235V32.8875C59.4736 32.9742 59.4389 33.0435 59.3696 33.0955C59.3176 33.1649 59.2482 33.1995 59.1616 33.1995H56.1196C56.0329 33.1995 55.9549 33.1649 55.8856 33.0955C55.8336 33.0435 55.8076 32.9742 55.8076 32.8875V15.3115C55.8076 15.2249 55.8336 15.1555 55.8856 15.1035C55.9549 15.0342 56.0329 14.9995 56.1196 14.9995H59.1616C59.2482 14.9995 59.3176 15.0342 59.3696 15.1035C59.4389 15.1555 59.4736 15.2249 59.4736 15.3115V16.1695C59.4736 16.2215 59.4909 16.2562 59.5256 16.2735C59.5602 16.2735 59.5949 16.2562 59.6296 16.2215C60.3576 15.2682 61.3629 14.7915 62.6456 14.7915C63.8416 14.7915 64.8729 15.1295 65.7396 15.8055C66.6236 16.4642 67.2562 17.3915 67.6376 18.5875ZM63.6596 24.4115C64.0929 23.7355 64.3096 22.8169 64.3096 21.6555C64.3096 20.5635 64.1276 19.6969 63.7636 19.0555C63.3649 18.3102 62.7236 17.9375 61.8396 17.9375C61.0422 17.9375 60.4442 18.3102 60.0456 19.0555C59.6816 19.6795 59.4996 20.5549 59.4996 21.6815C59.4996 22.8429 59.6902 23.7442 60.0716 24.3855C60.4702 25.0789 61.0596 25.4255 61.8396 25.4255C62.6196 25.4255 63.2262 25.0875 63.6596 24.4115ZM78.6449 15.3115C78.6449 15.2249 78.6709 15.1555 78.7229 15.1035C78.7922 15.0342 78.8702 14.9995 78.9569 14.9995H81.9989C82.0856 14.9995 82.1549 15.0342 82.2069 15.1035C82.2762 15.1555 82.3109 15.2249 82.3109 15.3115V27.1675C82.3109 29.4382 81.6522 31.0589 80.3349 32.0295C79.0349 33.0002 77.3536 33.4855 75.2909 33.4855C74.6842 33.4855 74.0082 33.4422 73.2629 33.3555C73.0896 33.3382 73.0029 33.2255 73.0029 33.0175L73.1069 30.3395C73.1069 30.1142 73.2282 30.0189 73.4709 30.0535C74.0949 30.1575 74.6669 30.2095 75.1869 30.2095C76.2962 30.2095 77.1456 29.9669 77.7349 29.4815C78.3416 28.9962 78.6449 28.2162 78.6449 27.1415C78.6449 27.0895 78.6276 27.0635 78.5929 27.0635C78.5582 27.0462 78.5236 27.0549 78.4889 27.0895C77.8302 27.8002 76.8682 28.1555 75.6029 28.1555C74.4762 28.1555 73.4362 27.8869 72.4829 27.3495C71.5469 26.7949 70.8796 25.9109 70.4809 24.6975C70.2209 23.9002 70.0909 22.8689 70.0909 21.6035C70.0909 20.2515 70.2469 19.1509 70.5589 18.3015C70.9229 17.2442 71.5382 16.3949 72.4049 15.7535C73.2716 15.1122 74.2769 14.7915 75.4209 14.7915C76.7556 14.7915 77.7782 15.1902 78.4889 15.9875C78.5236 16.0222 78.5582 16.0395 78.5929 16.0395C78.6276 16.0222 78.6449 15.9875 78.6449 15.9355V15.3115ZM78.4369 23.7095C78.5756 23.1895 78.6449 22.4789 78.6449 21.5775C78.6449 21.0402 78.6276 20.6242 78.5929 20.3295C78.5582 20.0349 78.4976 19.7575 78.4109 19.4975C78.2549 19.0295 77.9949 18.6569 77.6309 18.3795C77.2669 18.0849 76.8162 17.9375 76.2789 17.9375C75.7589 17.9375 75.3169 18.0849 74.9529 18.3795C74.5889 18.6569 74.3202 19.0295 74.1469 19.4975C73.9042 20.0175 73.7829 20.7195 73.7829 21.6035C73.7829 22.5742 73.8869 23.2675 74.0949 23.6835C74.2509 24.1515 74.5196 24.5329 74.9009 24.8275C75.2996 25.1049 75.7676 25.2435 76.3049 25.2435C76.8596 25.2435 77.3189 25.1049 77.6829 24.8275C78.0469 24.5329 78.2982 24.1602 78.4369 23.7095ZM85.2402 28.3635C85.1535 28.3635 85.0755 28.3375 85.0062 28.2855C84.9542 28.2162 84.9282 28.1382 84.9282 28.0515V10.4755C84.9282 10.3889 84.9542 10.3195 85.0062 10.2675C85.0755 10.1982 85.1535 10.1635 85.2402 10.1635H88.2822C88.3688 10.1635 88.4382 10.1982 88.4902 10.2675C88.5595 10.3195 88.5942 10.3889 88.5942 10.4755V28.0515C88.5942 28.1382 88.5595 28.2162 88.4902 28.2855C88.4382 28.3375 88.3688 28.3635 88.2822 28.3635H85.2402ZM103.106 20.3035C103.21 20.9622 103.244 21.6989 103.21 22.5135C103.192 22.7215 103.08 22.8255 102.872 22.8255H94.8378C94.7338 22.8255 94.6992 22.8689 94.7338 22.9555C94.7858 23.3022 94.8812 23.6489 95.0198 23.9955C95.4705 24.9662 96.3892 25.4515 97.7758 25.4515C98.8852 25.4342 99.7605 24.9835 100.402 24.0995C100.471 23.9955 100.549 23.9435 100.636 23.9435C100.688 23.9435 100.748 23.9782 100.818 24.0475L102.69 25.8935C102.776 25.9802 102.82 26.0582 102.82 26.1275C102.82 26.1622 102.785 26.2315 102.716 26.3355C102.144 27.0462 101.407 27.6009 100.506 27.9995C99.6045 28.3809 98.6165 28.5715 97.5418 28.5715C96.0512 28.5715 94.7858 28.2335 93.7458 27.5575C92.7232 26.8815 91.9865 25.9369 91.5358 24.7235C91.1718 23.8569 90.9898 22.7215 90.9898 21.3175C90.9898 20.3642 91.1198 19.5235 91.3798 18.7955C91.7785 17.5649 92.4718 16.5855 93.4598 15.8575C94.4652 15.1295 95.6525 14.7655 97.0218 14.7655C98.7552 14.7655 100.142 15.2682 101.182 16.2735C102.239 17.2789 102.88 18.6222 103.106 20.3035ZM97.0478 17.9375C95.9558 17.9375 95.2365 18.4489 94.8898 19.4715C94.8205 19.6969 94.7598 19.9742 94.7078 20.3035C94.7078 20.3902 94.7512 20.4335 94.8378 20.4335H99.3358C99.4398 20.4335 99.4745 20.3902 99.4398 20.3035C99.3532 19.8009 99.3098 19.5582 99.3098 19.5755C99.1538 19.0555 98.8765 18.6569 98.4778 18.3795C98.0965 18.0849 97.6198 17.9375 97.0478 17.9375Z" fill="black"/>
<defs>
<clipPath id="clip0_2043:14998">
<rect width="28" height="28" fill="white" transform="translate(0 2.36353)"/>
</clipPath>
</defs>
</svg>
