<svg width="21" height="22" viewBox="0 0 21 22" fill="none" xmlns="http://www.w3.org/2000/svg">
<path d="M10.5007 0.583984C9.13279 0.583984 7.77823 0.853422 6.51443 1.3769C5.25062 1.90039 4.10229 2.66768 3.13502 3.63495C1.18151 5.58846 0.0840449 8.23799 0.0840449 11.0007C0.0749407 13.406 0.907795 15.7387 2.43821 17.5944L0.354878 19.6777C0.210347 19.8242 0.11243 20.0102 0.0735032 20.2123C0.0345657 20.4144 0.0563573 20.6235 0.136128 20.8132C0.222649 21.0005 0.362909 21.158 0.539097 21.2657C0.715284 21.3733 0.919461 21.426 1.12571 21.4173H10.5007C13.2634 21.4173 15.9129 20.3198 17.8664 18.3664C19.8199 16.4128 20.9174 13.7634 20.9174 11.0007C20.9174 8.23799 19.8199 5.58846 17.8664 3.63495C15.9129 1.68145 13.2634 0.583984 10.5007 0.583984ZM10.5007 19.334H3.63613L4.60488 18.3652C4.79889 18.17 4.90779 17.9061 4.90779 17.6309C4.90779 17.3557 4.79889 17.0917 4.60488 16.8965C3.24091 15.534 2.39152 13.7408 2.20143 11.8223C2.01135 9.90378 2.49233 7.97879 3.56241 6.37515C4.6325 4.77153 6.22549 3.58853 8.07 3.0277C9.91446 2.46689 11.8964 2.56294 13.678 3.29952C15.4597 4.03609 16.9308 5.3676 17.8407 7.0672C18.7507 8.76681 19.0433 10.7293 18.6685 12.6204C18.2938 14.5116 17.275 16.2142 15.7856 17.4384C14.2963 18.6625 12.4286 19.3324 10.5007 19.334ZM13.6257 9.95899H11.5424V7.87565C11.5424 7.59938 11.4326 7.33443 11.2373 7.13908C11.042 6.94373 10.777 6.83398 10.5007 6.83398C10.2245 6.83398 9.95946 6.94373 9.76415 7.13908C9.56884 7.33443 9.45904 7.59938 9.45904 7.87565V9.95899H7.37571C7.09945 9.95899 6.83449 10.0688 6.63915 10.2641C6.44379 10.4594 6.33404 10.7244 6.33404 11.0007C6.33404 11.2769 6.44379 11.5419 6.63915 11.7372C6.83449 11.9325 7.09945 12.0423 7.37571 12.0423H9.45904V14.1257C9.45904 14.4019 9.56884 14.6669 9.76415 14.8622C9.95946 15.0575 10.2245 15.1673 10.5007 15.1673C10.777 15.1673 11.042 15.0575 11.2373 14.8622C11.4326 14.6669 11.5424 14.4019 11.5424 14.1257V12.0423H13.6257C13.902 12.0423 14.167 11.9325 14.3623 11.7372C14.5576 11.5419 14.6674 11.2769 14.6674 11.0007C14.6674 10.7244 14.5576 10.4594 14.3623 10.2641C14.167 10.0688 13.902 9.95899 13.6257 9.95899Z" fill="white"/>
</svg>
