<svg width="26" height="27" viewBox="0 0 26 27" fill="none" xmlns="http://www.w3.org/2000/svg">
<path d="M9.97096 22.1278L5.28376 22.1802C5.07657 22.1825 4.87695 22.1025 4.7288 21.9576C4.58066 21.8127 4.49613 21.615 4.49382 21.4077L4.445 17.0442C4.44385 16.9415 4.46293 16.8397 4.50112 16.7445C4.53932 16.6493 4.5959 16.5625 4.66763 16.4892L16.2546 4.64008C16.3994 4.49194 16.5972 4.40741 16.8044 4.4051C17.0116 4.40278 17.2112 4.48286 17.3593 4.62772L21.7718 8.9425C21.9199 9.08742 22.0045 9.28516 22.0068 9.49233C22.0091 9.69958 21.929 9.89916 21.7841 10.0474L9.97096 22.1278Z" stroke="white" stroke-width="2" stroke-linecap="round" stroke-linejoin="round"/>
<path d="M13.7109 7.24219L19.2405 12.6494" stroke="white" stroke-width="2" stroke-linecap="round" stroke-linejoin="round"/>
<path d="M21.6891 21.9966L9.97104 22.1276L4.4917 16.7695" stroke="white" stroke-width="2" stroke-linecap="round" stroke-linejoin="round"/>
</svg>
