<svg width="24" height="25" viewBox="0 0 24 25" fill="none" xmlns="http://www.w3.org/2000/svg">
<path d="M9 20.7499H4.5C4.30109 20.7499 4.11032 20.6709 3.96967 20.5303C3.82902 20.3896 3.75 20.1988 3.75 19.9999V15.8106C3.75 15.712 3.7694 15.6145 3.80709 15.5236C3.84478 15.4326 3.90003 15.3499 3.96967 15.2803L15.2197 4.03021C15.3603 3.88957 15.5511 3.81055 15.75 3.81055C15.9489 3.81055 16.1397 3.88957 16.2803 4.03021L20.4697 8.21953C20.6103 8.36023 20.6894 8.55095 20.6894 8.74985C20.6894 8.94883 20.6103 9.13955 20.4697 9.28025L9 20.7499Z" stroke="#474747" stroke-width="2" stroke-linecap="round" stroke-linejoin="round"/>
<path d="M12.75 6.5L18 11.75" stroke="#474747" stroke-width="2" stroke-linecap="round" stroke-linejoin="round"/>
<path d="M20.2497 20.7492H8.99966L3.79736 15.5469" stroke="#474747" stroke-width="2" stroke-linecap="round" stroke-linejoin="round"/>
</svg>
