<svg width="200" height="149" viewBox="0 0 200 149" fill="none" xmlns="http://www.w3.org/2000/svg">
<path d="M99.9082 27.7879C89.0882 32.5399 76.3442 29.3199 64.9642 32.4799C59.9975 33.8586 55.4384 36.419 51.6762 39.9424C47.914 43.4657 45.0605 47.8474 43.3595 52.7131C41.6584 57.5788 41.1604 62.7839 41.908 67.8839C42.6555 72.9838 44.6263 77.8271 47.6522 81.9999C54.4522 91.3919 66.1322 96.4639 77.7082 97.1999C89.2842 97.9359 100.796 94.7319 111.472 90.1919C134.736 80.2999 152.972 63.5879 157.156 37.7919C160.168 19.2359 151.584 0.139907 129.044 7.25991C117.344 10.9559 110.96 22.9359 99.9082 27.7879Z" fill="#FF4127"/>
<path opacity="0.9" d="M99.9082 27.7879C89.0882 32.5399 76.3442 29.3199 64.9642 32.4799C59.9975 33.8586 55.4384 36.419 51.6762 39.9424C47.914 43.4657 45.0605 47.8474 43.3595 52.7131C41.6584 57.5788 41.1604 62.7839 41.908 67.8839C42.6555 72.9838 44.6263 77.8271 47.6522 81.9999C54.4522 91.3919 66.1322 96.4639 77.7082 97.1999C89.2842 97.9359 100.796 94.7319 111.472 90.1919C134.736 80.2999 152.972 63.5879 157.156 37.7919C160.168 19.2359 151.584 0.139907 129.044 7.25991C117.344 10.9559 110.96 22.9359 99.9082 27.7879Z" fill="white"/>
<path d="M99.6839 148.624C142.517 148.624 177.24 146.597 177.24 144.096C177.24 141.595 142.517 139.568 99.6839 139.568C56.8509 139.568 22.1279 141.595 22.1279 144.096C22.1279 146.597 56.8509 148.624 99.6839 148.624Z" fill="#F5F5F5"/>
<path d="M75.5693 40.3999C75.5693 40.3999 77.3053 52.3999 80.9893 55.7519C80.9893 55.7519 86.7493 55.7519 91.5853 53.3519L95.6133 52.8919L94.8133 48.0919L90.2053 51.1639C90.2053 51.1639 85.0053 51.7439 82.2333 51.8599C82.2333 51.8599 78.8053 41.4599 78.4613 36.9879L75.5693 40.3999Z" fill="#CE7A63"/>
<path d="M63.4441 41.68C63.2641 44.912 62.4361 52.88 58.3281 52.376C54.3681 51.896 48.0161 46.432 47.5801 46.052C48.0641 45.252 48.6201 44.288 49.1801 43.388C54.2841 46.536 57.5561 47.504 57.5561 47.504L58.5881 41.104C58.5881 41.104 63.6281 38.452 63.4441 41.68Z" fill="#CE7A63"/>
<path d="M92.1204 119.912L88.0004 122.972C88.0004 122.972 76.5644 107.544 73.5004 101.96C70.4364 96.376 69.3804 72.88 69.3804 72.88C69.2844 73.528 69.1924 76.48 69.1004 79.792C68.9884 84.252 68.8844 89.392 68.7884 90.64C67.6764 105.528 68.1804 132.544 68.1804 132.544H63.3804C61.6524 125.628 59.3804 98.896 59.1284 92.512C58.8764 86.128 62.0844 58.996 62.0844 58.996H76.3164C80.4404 68.308 77.2484 86.132 79.5164 93.312C81.7844 100.492 92.1204 119.912 92.1204 119.912Z" fill="#FF4127"/>
<path d="M62.6325 25.9C62.6325 25.9 59.9885 22.564 62.7805 19.9C62.7805 19.9 62.8165 16.976 65.1805 16.736C67.5445 16.496 69.5805 18.26 71.9445 18.336C74.6805 18.404 75.4245 22.248 73.5125 22.488C71.6005 22.728 68.3125 29.0281 66.6645 29.1521C65.0165 29.2761 62.6325 25.9 62.6325 25.9Z" fill="#263238"/>
<path d="M91.6841 127.888C91.6841 127.888 90.7841 126.6 90.2761 126.996C89.7681 127.392 91.6841 127.888 91.6841 127.888Z" stroke="#FF4127" stroke-miterlimit="10"/>
<path d="M92.0091 128.224C92.0091 128.224 90.3371 129.524 90.0371 129.06C89.7371 128.596 92.0091 128.224 92.0091 128.224Z" stroke="#FF4127" stroke-miterlimit="10"/>
<path d="M63.773 139.124C63.773 139.124 63.837 137.104 63.045 137.36C62.253 137.616 63.773 139.124 63.773 139.124Z" stroke="#FF4127" stroke-miterlimit="10"/>
<path d="M63.5804 139.264C63.5804 139.264 62.1644 137.964 61.6564 138.232C61.1484 138.5 62.2124 139.148 63.5804 139.264Z" stroke="#FF4127" stroke-miterlimit="10"/>
<path d="M95.0366 124.968L92.2086 127.256L90.2006 124.556L89.6006 123.752L91.1366 122.212L92.1206 121.224L92.3126 121.468L93.3606 122.816L95.0366 124.968Z" fill="#CE7A63"/>
<path d="M68.108 133.764V138.892L64.52 138.648L64.396 134.66L64.376 133.908L68.108 133.764Z" fill="#CE7A63"/>
<path d="M64.5686 33.3L59.6846 33.84C59.7529 37.9339 60.0414 42.0211 60.5486 46.084C61.3486 51.92 62.0486 59 62.0486 59H76.2806C76.1926 60.8 76.4846 49.436 77.0206 44.264L81.9526 43.484C81.9526 43.484 80.9366 35.632 78.2846 35.188C75.6326 34.744 70.2286 32.06 64.5686 33.3Z" fill="#263238"/>
<path d="M60.5684 44.984L60.4604 44.9L59.7444 44.356L55.4004 41.056C56.3244 33.856 59.6684 33.856 59.7004 33.856L60.2684 41.164L60.5684 44.984Z" fill="#263238"/>
<path d="M74.2931 26.336C73.8211 29.692 72.0891 30.216 70.2011 30.792C70.2011 30.792 70.2011 31.152 70.2491 31.624C70.3331 32.384 70.5451 33.448 71.0931 33.836C71.0931 33.836 70.5171 36.304 67.1571 36.092C63.7971 35.88 64.0611 33.94 64.0611 33.94C64.0611 33.94 66.0051 32.684 66.1611 31.004C66.2405 29.8928 66.1337 28.7761 65.8451 27.7C65.8451 27.7 63.2691 26.284 64.0571 24.76C64.8451 23.236 66.4571 24.864 66.4571 24.864L66.7211 19.62C66.7211 19.62 71.7571 18.82 73.3331 20.46C74.2353 22.278 74.5698 24.3254 74.2931 26.336Z" fill="#CE7A63"/>
<path d="M70.4081 24.544C70.4081 24.804 70.2801 25.012 70.1201 25.012C69.9601 25.012 69.8281 24.804 69.8281 24.544C69.8281 24.284 69.9561 24.072 70.1201 24.072C70.2841 24.072 70.4081 24.284 70.4081 24.544Z" fill="#263238"/>
<path d="M73.3203 24.544C73.3203 24.804 73.1883 25.012 73.0283 25.012C72.8683 25.012 72.7363 24.804 72.7363 24.544C72.7363 24.284 72.8683 24.072 73.0283 24.072C73.1883 24.072 73.3203 24.284 73.3203 24.544Z" fill="#263238"/>
<path d="M71.5361 24.348V26.8C71.932 26.8363 72.3264 26.7172 72.6361 26.468L71.5361 24.348Z" fill="#BA4D3C"/>
<path d="M68.6445 26.8C68.8177 27.0928 69.0649 27.3348 69.3611 27.5019C69.6574 27.669 69.9924 27.7553 70.3325 27.752" stroke="#263238" stroke-linecap="round" stroke-linejoin="round"/>
<path d="M68.6846 22.764C68.8161 22.5487 69.0162 22.3839 69.2527 22.2961C69.4892 22.2083 69.7484 22.2026 69.9886 22.28" stroke="#263238" stroke-linecap="round" stroke-linejoin="round"/>
<path d="M72.5283 22.116C72.7493 22.1314 72.9611 22.2107 73.1379 22.3442C73.3147 22.4777 73.4489 22.6596 73.5243 22.868" stroke="#263238" stroke-linecap="round" stroke-linejoin="round"/>
<path d="M66.7361 19.62C66.7361 19.62 68.6721 22.28 66.4761 24.868L65.8281 22.244L66.7361 19.62Z" fill="#263238"/>
<path opacity="0.2" d="M60.4611 44.9001L59.7451 44.3561L60.2691 41.1481L60.4611 44.9001Z" fill="black"/>
<path d="M66.7363 19.6199C67.5177 20.2142 68.4645 20.5508 69.4456 20.5831C70.4268 20.6153 71.3937 20.3416 72.2123 19.7999C72.2123 19.7999 72.8123 18.0599 69.9163 18.2879C67.0203 18.5159 66.7363 19.6199 66.7363 19.6199Z" fill="#263238"/>
<path d="M63.5371 17.62C63.5371 17.62 65.4371 15.152 69.9371 16.068C73.5371 16.804 74.5051 14.468 75.6211 15.02C76.7371 15.572 76.1491 20.128 72.8411 19.42C69.5331 18.712 63.5371 17.62 63.5371 17.62Z" fill="#263238"/>
<path d="M62.8292 19.736C62.6422 19.5323 62.4009 19.3864 62.1336 19.3155C61.8664 19.2446 61.5845 19.2517 61.3211 19.336L62.8292 19.88L61.0771 20.1C61.0771 20.1 62.5811 20.432 63.0211 20.188C63.4611 19.944 62.8292 19.736 62.8292 19.736Z" fill="#263238"/>
<path d="M49.1606 43.388C49.1606 43.388 48.7046 41.088 46.5406 40.54L45.2286 39.016L43.1846 40.724L44.5206 44.38L47.5806 46.052L49.1606 43.388Z" fill="#CE7A63"/>
<path opacity="0.1" d="M70.2489 31.624C69.4153 31.5194 68.6401 31.1409 68.0449 30.548C68.75 30.7222 69.4747 30.8042 70.2009 30.792C70.2009 30.792 70.2009 31.152 70.2489 31.624Z" fill="black"/>
<path d="M68.9724 141.868L68.6724 138.968C68.6604 138.841 68.6012 138.723 68.5064 138.637C68.4117 138.551 68.2882 138.503 68.1604 138.504H64.2644C64.1679 138.504 64.0735 138.532 63.9924 138.584C63.4724 138.908 61.4404 140.152 60.3284 140.468C59.0404 140.828 58.5684 140.94 58.5684 141.392C58.5684 141.844 58.6844 142.292 59.1244 142.428C59.4964 142.544 66.4204 142.464 68.4684 142.428C68.5392 142.427 68.609 142.412 68.6735 142.383C68.7381 142.353 68.7958 142.311 68.8432 142.259C68.8905 142.206 68.9265 142.144 68.9487 142.077C68.9709 142.01 68.979 141.939 68.9724 141.868Z" fill="#263238"/>
<path d="M97.9133 126.9L95.9413 124.756C95.8554 124.661 95.7371 124.602 95.6098 124.59C95.4824 124.579 95.3553 124.615 95.2533 124.692L92.1293 127.02C92.0526 127.079 91.9932 127.158 91.9573 127.248C91.7373 127.816 90.8533 130.048 90.1453 130.948C89.3453 132.008 89.0173 132.38 89.2893 132.74C89.5613 133.1 89.9253 133.392 90.3533 133.24C90.7813 133.088 96.2253 128.904 97.8493 127.64C97.9032 127.596 97.9477 127.542 97.9802 127.481C98.0127 127.42 98.0325 127.353 98.0385 127.284C98.0445 127.215 98.0365 127.145 98.015 127.079C97.9935 127.013 97.9589 126.952 97.9133 126.9Z" fill="#263238"/>
<path opacity="0.2" d="M93.3606 122.816L90.2006 124.556L89.6006 123.752L91.1366 122.212L92.3126 121.468L93.3606 122.816Z" fill="black"/>
<path opacity="0.2" d="M68.108 133.764V134.868L64.396 134.66L64.376 133.908L68.108 133.764Z" fill="black"/>
<path opacity="0.2" d="M92.1204 119.912L88.0004 122.972C88.0004 122.972 76.5644 107.544 73.5004 101.96C70.4364 96.376 69.3804 72.88 69.3804 72.88C69.2844 73.528 69.1924 76.48 69.1004 79.792C68.9884 84.252 68.8844 89.392 68.7884 90.64C67.6764 105.528 68.1804 132.544 68.1804 132.544H63.3804C61.6524 125.628 59.3804 98.896 59.1284 92.512C58.8764 86.128 62.0844 58.996 62.0844 58.996H76.3164C80.4404 68.308 77.2484 86.132 79.5164 93.312C81.7844 100.492 92.1204 119.912 92.1204 119.912Z" fill="black"/>
<path d="M87.2129 123.296L92.6489 119.392L93.6209 122.02L88.6249 124.588L87.2129 123.296Z" fill="#263238"/>
<path d="M62.6367 132.544L63.1127 134.168L68.5967 134.38L68.9127 132.168L62.6367 132.544Z" fill="#263238"/>
<path d="M94.8086 48.088C94.8366 48.264 98.2446 49.532 98.2446 49.532L98.0086 51.912L95.6086 52.888L94.8086 48.088Z" fill="#CE7A63"/>
<path opacity="0.2" d="M69.3327 73.4079C69.2247 74.1239 69.1247 77.3599 69.0247 81.0079C68.7727 76.7319 68.8767 68.9359 68.8767 68.9359L69.3327 73.4079Z" fill="black"/>
<path d="M139.904 134.44L134.172 135.052C134.172 135.052 124.972 105.216 122.768 97.852C120.564 90.488 119.452 74.8 119.452 74.8C119.232 75.432 118.892 76.624 118.452 78.24C114.832 91.64 104.708 134.428 104.708 134.428L100.104 132.628C100.104 132.628 102.864 99.676 104.152 93.428C105.44 87.18 113.844 57.48 113.844 57.48H129.044C129.044 57.48 130.516 89.372 131.804 96.616C133.092 103.86 139.904 134.44 139.904 134.44Z" fill="#263238"/>
<path d="M111.853 39.368C111.853 39.368 110.397 45.12 108.173 49.668C105.853 54.412 102.737 57.988 101.341 59.668L98.7126 61.668L97.7686 64.612L101.237 65.768C101.237 65.768 104.073 63.036 103.865 61.368L111.117 52.592L115.081 42L111.853 39.368Z" fill="#FFB573"/>
<path d="M125.328 17.924C126.572 18.616 127.164 19.524 128.128 20.588C130.064 22.7787 132.347 24.6367 134.884 26.088C136.7 27.092 138.656 27.812 140.516 28.728C141.381 29.0917 142.14 29.6666 142.724 30.4C143.099 31.0092 143.34 31.6908 143.432 32.4C144.084 36.128 143.032 40.224 140.304 42.856C139.436 43.7201 138.383 44.3765 137.224 44.776C134.972 45.512 132.532 45.016 130.18 44.7C128.67 44.5516 127.169 44.3179 125.684 44C124.193 43.6785 122.817 42.9566 121.704 41.912C120.657 40.7957 119.983 39.3809 119.776 37.864C119.576 36.3537 119.641 34.82 119.968 33.332C120.26 31.848 120.716 30.388 120.856 28.876C120.996 27.364 120.792 25.756 119.892 24.536C119.396 23.864 117.86 23.336 117.492 22.584C116.692 20.956 118.024 18.836 119.612 17.94C120.492 17.472 121.472 17.226 122.468 17.2232C123.465 17.2204 124.446 17.461 125.328 17.924Z" fill="#263238"/>
<path d="M134.732 39.6359L129.764 43.124L128.992 58.3239C124.216 59.228 113.844 57.464 113.844 57.464L112.644 42.264L111.936 41.744L110.26 40.52C110.26 40.52 111.812 36.1839 112.712 35.2159C113.612 34.2479 118.712 33.424 118.712 33.424C118.712 33.424 128.312 34.364 130.452 35.076C132.592 35.788 134.732 39.6359 134.732 39.6359Z" fill="#FF4127"/>
<path d="M133.096 40.8001L136.512 47.0401C136.512 47.0401 139.312 43.4921 140.748 41.6081L139.984 39.0281L141.304 35.9041L143.592 36.1161C144.09 37.1163 144.263 38.2467 144.088 39.3501C143.913 40.4534 143.399 41.4748 142.616 42.2721C142.616 42.2721 140.516 48.2361 136.684 50.4681C133.768 52.1681 130.488 42.6321 130.488 42.6321L133.096 40.8001Z" fill="#FFB573"/>
<path d="M124.328 27.516C123.664 29.408 122.76 32.924 123.928 34.424C123.928 34.424 123.128 36.324 119.488 35.796C115.488 35.216 117.888 33.54 117.888 33.54C120.136 33.34 120.316 31.72 120.16 30.148L124.328 27.516Z" fill="#FFB573"/>
<path opacity="0.2" d="M122.624 28.592L120.148 30.132C120.193 30.4983 120.204 30.8678 120.18 31.236C121.028 31.236 122.3 30.488 122.516 29.636C122.617 29.2977 122.653 28.9437 122.624 28.592Z" fill="black"/>
<path d="M125.6 22.732C125.532 26.024 125.568 27.416 123.972 29.168C121.572 31.8 117.572 30.992 116.636 27.74C115.836 24.816 116.076 19.92 119.244 18.488C120.327 17.9929 121.563 17.9482 122.679 18.3637C123.795 18.7793 124.701 19.6211 125.196 20.704C125.49 21.3383 125.629 22.0335 125.6 22.732Z" fill="#FFB573"/>
<path d="M118.213 19.1561C118.185 19.2201 122.105 25.0321 125.577 25.1081C126.445 24.1401 126.601 20.7081 125.413 19.8241C124.225 18.9401 123.181 17.1361 121.861 17.2681C119.881 17.4641 118.213 19.1561 118.213 19.1561Z" fill="#263238"/>
<path d="M120.393 23.8159C120.393 24.0839 120.269 24.3079 120.097 24.3159C119.925 24.3239 119.769 24.1079 119.753 23.8559C119.737 23.6039 119.877 23.3639 120.049 23.3559C120.221 23.3479 120.389 23.5519 120.393 23.8159Z" fill="#263238"/>
<path d="M117.373 23.936C117.373 24.204 117.249 24.424 117.077 24.428C116.905 24.432 116.749 24.224 116.733 23.968C116.717 23.712 116.857 23.48 117.033 23.472C117.209 23.464 117.365 23.668 117.373 23.936Z" fill="#263238"/>
<path d="M117.117 23.472L116.465 23.312C116.465 23.312 116.817 23.8 117.117 23.472Z" fill="#263238"/>
<path d="M118.325 24.4C118.108 25.0185 117.809 25.6051 117.437 26.144C117.577 26.235 117.736 26.2946 117.901 26.3188C118.067 26.343 118.236 26.3311 118.397 26.284L118.325 24.4Z" fill="#ED893E"/>
<path d="M119.892 27.256C119.76 27.2807 119.626 27.2954 119.492 27.3C119.472 27.3001 119.453 27.2928 119.438 27.2795C119.423 27.2661 119.414 27.2478 119.412 27.228C119.412 27.207 119.42 27.1868 119.434 27.1712C119.448 27.1557 119.467 27.146 119.488 27.144C119.822 27.1394 120.149 27.0558 120.444 26.9001C120.739 26.7443 120.992 26.5208 121.184 26.248C121.196 26.2308 121.213 26.2188 121.233 26.2143C121.253 26.2098 121.274 26.2133 121.292 26.224C121.301 26.2289 121.309 26.2356 121.315 26.2436C121.321 26.2517 121.325 26.2609 121.327 26.2707C121.329 26.2805 121.33 26.2906 121.328 26.3005C121.326 26.3104 121.322 26.3197 121.316 26.328C121.153 26.5706 120.944 26.7779 120.699 26.9374C120.454 27.0968 120.18 27.2052 119.892 27.256Z" fill="#263238"/>
<path d="M126.608 25.72C126.51 26.0195 126.353 26.2966 126.147 26.5354C125.941 26.7743 125.69 26.9702 125.408 27.112C124.648 27.484 124.112 26.844 124.208 26.052C124.28 25.336 124.764 24.276 125.584 24.236C125.764 24.2292 125.943 24.2677 126.104 24.3479C126.266 24.4282 126.404 24.5476 126.507 24.6953C126.61 24.843 126.675 25.0142 126.695 25.1932C126.714 25.3723 126.689 25.5534 126.62 25.72H126.608Z" fill="#FFB573"/>
<path d="M121.588 23.156C121.555 23.1616 121.521 23.1569 121.49 23.1426C121.459 23.1284 121.434 23.1051 121.416 23.076C121.064 22.44 120.136 22.336 120.124 22.332C120.083 22.3261 120.046 22.3044 120.021 22.2715C119.995 22.2387 119.984 22.1973 119.988 22.156C119.99 22.1355 119.996 22.1156 120.006 22.0974C120.016 22.0792 120.029 22.0632 120.045 22.0501C120.061 22.0371 120.079 22.0274 120.099 22.0216C120.119 22.0157 120.14 22.0138 120.16 22.016C120.204 22.016 121.264 22.144 121.692 22.924C121.713 22.9596 121.718 23.0019 121.708 23.0415C121.697 23.0812 121.672 23.1152 121.636 23.136L121.588 23.156Z" fill="#263238"/>
<path d="M116.413 22.572C116.386 22.5781 116.358 22.5765 116.331 22.5673C116.305 22.5581 116.282 22.5417 116.265 22.52C116.24 22.4886 116.229 22.4488 116.233 22.4091C116.238 22.3695 116.258 22.3332 116.289 22.308C116.47 22.1345 116.691 22.0074 116.932 21.9377C117.173 21.8681 117.427 21.8579 117.673 21.908C117.712 21.9193 117.745 21.9451 117.765 21.9802C117.785 22.0153 117.791 22.0568 117.781 22.096C117.776 22.1161 117.767 22.1349 117.754 22.1514C117.742 22.1679 117.726 22.1818 117.708 22.1922C117.69 22.2027 117.671 22.2094 117.65 22.2121C117.63 22.2149 117.609 22.2135 117.589 22.208C117.395 22.1676 117.194 22.1756 117.005 22.2314C116.815 22.2872 116.642 22.3891 116.501 22.528C116.477 22.5516 116.446 22.567 116.413 22.572Z" fill="#263238"/>
<path d="M120.14 23.356L119.488 23.196C119.488 23.196 119.84 23.684 120.14 23.356Z" fill="#263238"/>
<path d="M104.153 133.824L104.085 134.16L103.737 135.872L103.053 139.204L100.001 138.152L100.669 134.788L101.017 133.028L102.301 133.352L102.313 133.356L104.153 133.824Z" fill="#FFB573"/>
<path d="M139.617 139.592L136.541 140.096L135.921 136.844L135.637 135.356H138.913L138.953 135.596L139.157 136.844L139.617 139.592Z" fill="#FFB573"/>
<path opacity="0.2" d="M119.453 70.1759V74.7999C119.233 75.4319 118.893 76.6239 118.453 78.2399L119.453 70.1759Z" fill="black"/>
<path d="M141.005 142.376L140.313 139.6C140.282 139.479 140.207 139.374 140.103 139.304C139.999 139.235 139.873 139.206 139.749 139.224L135.973 139.76C135.878 139.773 135.789 139.814 135.717 139.876C135.257 140.276 133.461 141.752 132.421 142.208C131.221 142.736 130.781 142.912 130.845 143.352C130.909 143.792 131.085 144.208 131.525 144.28C131.905 144.34 138.609 143.304 140.593 142.992C140.662 142.981 140.727 142.956 140.786 142.919C140.845 142.881 140.895 142.832 140.934 142.774C140.973 142.716 140.999 142.651 141.011 142.583C141.023 142.514 141.021 142.444 141.005 142.376Z" fill="#263238"/>
<path d="M103.621 142L104.021 139.172C104.035 139.046 104.003 138.918 103.929 138.815C103.855 138.711 103.745 138.639 103.621 138.612L99.9085 137.724C99.8173 137.696 99.7198 137.696 99.6285 137.724C99.0605 137.912 96.8285 138.636 95.7085 138.68C94.4005 138.728 93.9245 138.728 93.8205 139.156C93.7165 139.584 93.7285 140.044 94.1125 140.272C94.4965 140.5 101.057 141.976 103.013 142.416C103.08 142.432 103.15 142.433 103.218 142.42C103.286 142.408 103.351 142.381 103.408 142.342C103.465 142.302 103.514 142.252 103.55 142.193C103.587 142.134 103.611 142.069 103.621 142Z" fill="#263238"/>
<path opacity="0.2" d="M139.157 136.844H135.921L135.637 135.356H137.085L138.953 135.596L139.157 136.844Z" fill="black"/>
<path d="M133.517 134.144H140.625V136.16L133.869 135.908L133.517 134.144Z" fill="#FF4127"/>
<path opacity="0.2" d="M104.084 134.16L103.736 135.872L100.668 134.788L101.016 133.028L102.3 133.352L102.312 133.356L104.084 134.16Z" fill="black"/>
<path d="M105.38 135.852L106.028 134.12L99.6439 131.704L99.5439 133.62L105.38 135.852Z" fill="#FF4127"/>
<path d="M129.393 56.62L128.993 58.336C128.024 58.4954 127.046 58.5889 126.065 58.616H125.665C124.821 58.64 123.825 58.64 122.685 58.592H122.285C121.229 58.536 120.057 58.44 118.777 58.284L118.377 58.236C117.621 58.14 116.833 58.024 116.005 57.884L115.605 57.816C115.033 57.712 114.445 57.6 113.841 57.476L113.709 55.764L115.685 55.872H116.085L118.465 56.004L118.865 56.024L122.373 56.216L122.773 56.24L125.749 56.4L126.149 56.424L129.393 56.62Z" fill="white"/>
<path d="M116.085 55.892L116.001 57.892L115.601 57.824L115.681 55.88L116.085 55.892Z" fill="#FF4127"/>
<path d="M118.884 56.044L118.788 58.2841L118.388 58.236L118.48 56.024L118.884 56.044Z" fill="#FF4127"/>
<path d="M122.776 56.2601L122.68 58.6081H122.28L122.376 56.2521L122.776 56.2601Z" fill="#FF4127"/>
<path d="M126.153 56.4441L126.065 58.6161H125.665L125.757 56.4041L126.153 56.4441Z" fill="#FF4127"/>
</svg>
