<svg width="25" height="25" viewBox="0 0 25 25" fill="none" xmlns="http://www.w3.org/2000/svg">
<rect width="24.3749" height="24.3746" rx="12.1873" fill="white" fill-opacity="0.7"/>
<path fill-rule="evenodd" clip-rule="evenodd" d="M9 8C9 7.44772 8.55228 7 8 7C7.44772 7 7 7.44772 7 8V11.664C7 12.4845 7.32593 13.2713 7.9061 13.8515C8.4863 14.4317 9.27321 14.7577 10.0937 14.7577H13.9605L13.0507 15.6675C12.6601 16.058 12.6601 16.6912 13.0507 17.0817C13.4412 17.4722 14.0744 17.4722 14.4649 17.0817L17.0728 14.4738C17.1039 14.4434 17.1331 14.4111 17.16 14.3769C17.224 14.296 17.2737 14.2075 17.3091 14.1149C17.3339 14.05 17.3522 13.9819 17.363 13.9114C17.4102 13.607 17.3166 13.2849 17.082 13.0503L14.4649 10.4332C14.0744 10.0427 13.4412 10.0427 13.0507 10.4332C12.6601 10.8237 12.6601 11.4569 13.0507 11.8474L13.9609 12.7577H10.0937C9.80362 12.7577 9.52545 12.6424 9.32036 12.4373L9.32032 12.4373C9.11523 12.2322 9 11.9541 9 11.664V8Z" fill="#5F5F5F"/>
</svg>
