<svg width="92" height="28" viewBox="0 0 92 28" fill="none" xmlns="http://www.w3.org/2000/svg">
<path d="M13.5 26.375C20.4035 26.375 26 20.7785 26 13.875C26 6.9715 20.4035 1.375 13.5 1.375C6.59644 1.375 1 6.9715 1 13.875C1 20.7785 6.59644 26.375 13.5 26.375Z" stroke="#04BD9E" stroke-width="2" stroke-linecap="round" stroke-linejoin="round"/>
<path d="M8.5 17.625H18.5" stroke="#04BD9E" stroke-width="2" stroke-linecap="round" stroke-linejoin="round"/>
<path d="M17.25 10.125H17.2625" stroke="#04BD9E" stroke-width="2" stroke-linecap="round" stroke-linejoin="round"/>
<path d="M9.75 10.125H9.7625" stroke="#04BD9E" stroke-width="2" stroke-linecap="round" stroke-linejoin="round"/>
<path d="M39.144 12.503H43.872V14.051H39.144V12.503ZM42.3 17.339V15.311H45.432V9.539H43.872V11.255H39.144V9.539H37.572V15.311H40.716V17.339H36.516V18.623H46.524V17.339H42.3ZM52.5231 18.755C50.9991 18.755 50.2911 18.551 50.2911 18.095C50.2911 17.639 50.9991 17.447 52.5231 17.447C54.0591 17.447 54.7671 17.639 54.7671 18.095C54.7671 18.551 54.0591 18.755 52.5231 18.755ZM52.5231 16.283C50.0991 16.283 48.6951 16.907 48.6951 18.095C48.6951 19.271 50.0991 19.907 52.5231 19.907C54.9591 19.907 56.3631 19.271 56.3631 18.095C56.3631 16.907 54.9591 16.283 52.5231 16.283ZM53.3271 14.555V13.871H56.4831V12.671H50.3631V12.071H56.1471V10.919H50.3631V10.343H56.3991V9.143H48.7911V13.871H51.7431V14.555H47.5431V15.791H57.5391V14.555H53.3271ZM66.1661 8.843V19.931H67.7501V8.843H66.1661ZM61.8101 9.623C60.1421 9.623 58.9061 11.135 58.9061 13.559C58.9061 15.995 60.1421 17.519 61.8101 17.519C63.4781 17.519 64.7141 15.995 64.7141 13.559C64.7141 11.135 63.4781 9.623 61.8101 9.623ZM61.8101 11.051C62.6261 11.051 63.1901 11.927 63.1901 13.559C63.1901 15.203 62.6261 16.079 61.8101 16.079C60.9941 16.079 60.4301 15.203 60.4301 13.559C60.4301 11.927 60.9941 11.051 61.8101 11.051ZM72.1172 16.175C71.5172 16.175 71.1572 15.347 71.1572 13.643C71.1572 11.951 71.5172 11.123 72.1172 11.123C72.7292 11.123 73.0772 11.951 73.0772 13.643C73.0772 15.347 72.7292 16.175 72.1172 16.175ZM75.3692 12.923H74.4932C74.3132 10.859 73.4252 9.635 72.1172 9.635C70.6532 9.635 69.7292 11.147 69.7292 13.643C69.7292 16.151 70.6532 17.663 72.1172 17.663C73.4612 17.663 74.3612 16.367 74.5052 14.207H75.3692V19.415H76.8452V9.035H75.3692V12.923ZM77.6132 8.843V19.895H79.1132V8.843H77.6132ZM84.4523 15.227C84.8363 15.299 85.2323 15.335 85.6643 15.335C86.0963 15.335 86.5043 15.299 86.8883 15.227V17.339H84.4523V15.227ZM85.6643 10.643C87.2003 10.643 88.2323 11.267 88.2323 12.371C88.2323 13.463 87.2003 14.099 85.6643 14.099C84.1283 14.099 83.1083 13.463 83.1083 12.371C83.1083 11.267 84.1283 10.643 85.6643 10.643ZM88.4603 17.339V14.639C89.2883 14.123 89.7923 13.331 89.7923 12.371C89.7923 10.559 88.0523 9.395 85.6643 9.395C83.2883 9.395 81.5483 10.559 81.5483 12.371C81.5363 13.331 82.0403 14.123 82.8803 14.639V17.339H80.6723V18.623H90.6803V17.339H88.4603Z" fill="#04BD9E"/>
</svg>
