<svg width="78" height="19" viewBox="0 0 78 19" fill="none" xmlns="http://www.w3.org/2000/svg">
<path d="M14.3 0.279999V7.34H12.8V0.579999H10.34V12.5C7.62 11.08 6.7 8.02 6.7 4.8V4.3H9.46V2.16H1.12V4.3H4.14V4.8C4.14 8.34 3.26 11.6 0.52 13.2L2.1 15.2C3.82 14.16 4.9 12.44 5.5 10.32C6.14 12.16 7.22 13.64 8.86 14.52L10.34 12.54V17.88H12.8V9.5H14.3V18.7H16.8V0.279999H14.3ZM34.2284 4.88H24.1484V0.619999H21.5084V6.98H34.2284V4.88ZM27.6884 16.66C25.2284 16.66 23.9684 16.22 23.9684 15.26C23.9684 14.3 25.2284 13.86 27.6884 13.86C30.1484 13.86 31.4084 14.3 31.4084 15.26C31.4084 16.22 30.1484 16.66 27.6884 16.66ZM27.6884 11.84C23.7084 11.84 21.3084 13.1 21.3084 15.26C21.3084 17.42 23.7084 18.68 27.6884 18.68C31.6684 18.68 34.0884 17.42 34.0884 15.26C34.0884 13.1 31.6684 11.84 27.6884 11.84ZM19.4284 8.54V10.64H36.0884V8.54H19.4284ZM54.3222 8.5C51.4022 7.78 50.1222 5.94 50.0622 4.14H53.7022V2.06H50.0622V0.239999H47.4222V2.06H43.8222V4.14H47.4222C47.3622 6.1 46.0622 8.02 43.1622 8.8L44.3822 10.86C46.5022 10.28 47.9622 9.02 48.7822 7.42C49.6222 8.86 51.0422 9.98 53.1422 10.54L54.3222 8.5ZM58.0422 13.66V11.58H45.7022V13.66H50.3222C49.8622 15.02 48.1222 16.3 44.9022 16.66L45.8422 18.66C48.7822 18.28 50.8222 17.14 51.8822 15.58C52.9222 17.14 54.9622 18.32 57.8822 18.68L58.8422 16.68C55.6622 16.3 53.9022 14.98 53.4022 13.66H58.0422ZM57.8022 4.42V0.299999H55.1622V10.78H57.8022V6.6H60.2422V4.42H57.8022ZM62.8706 2.2V4.3H69.0106C68.6306 8.38 66.5906 11.26 61.8906 13.52L63.2706 15.6C69.8106 12.44 71.7106 7.84 71.7106 2.2H62.8706ZM74.5306 0.279999V18.7H77.1906V0.279999H74.5306Z" fill="white"/>
</svg>
