<svg width="19" height="20" viewBox="0 0 19 20" fill="none" xmlns="http://www.w3.org/2000/svg">
<path d="M18.9429 17.6797L12.7751 11.5119C13.7322 10.2745 14.2499 8.76162 14.2499 7.17038C14.2499 5.26564 13.5066 3.47965 12.1623 2.13303C10.8181 0.786407 9.02734 0.0454102 7.12497 0.0454102C5.2226 0.0454102 3.43186 0.788782 2.08762 2.13303C0.740997 3.47727 0 5.26564 0 7.17038C0 9.07275 0.743372 10.8635 2.08762 12.2077C3.43186 13.5544 5.22023 14.2953 7.12497 14.2953C8.71621 14.2953 10.2267 13.7776 11.4641 12.8229L17.6319 18.9883C17.65 19.0064 17.6715 19.0208 17.6951 19.0306C17.7188 19.0404 17.7441 19.0454 17.7697 19.0454C17.7953 19.0454 17.8206 19.0404 17.8442 19.0306C17.8679 19.0208 17.8893 19.0064 17.9074 18.9883L18.9429 17.9552C18.961 17.9371 18.9754 17.9156 18.9852 17.892C18.995 17.8684 19 17.843 19 17.8175C19 17.7919 18.995 17.7665 18.9852 17.7429C18.9754 17.7193 18.961 17.6978 18.9429 17.6797ZM10.887 10.9324C9.87996 11.937 8.54521 12.4904 7.12497 12.4904C5.70473 12.4904 4.36998 11.937 3.36299 10.9324C2.35837 9.92537 1.80499 8.59062 1.80499 7.17038C1.80499 5.75014 2.35837 4.41302 3.36299 3.4084C4.36998 2.40378 5.70473 1.8504 7.12497 1.8504C8.54521 1.8504 9.88233 2.4014 10.887 3.4084C11.8916 4.41539 12.4449 5.75014 12.4449 7.17038C12.4449 8.59062 11.8916 9.92774 10.887 10.9324Z" fill="black"/>
</svg>
