<svg width="78" height="19" viewBox="0 0 78 19" fill="none" xmlns="http://www.w3.org/2000/svg">
<path d="M8 1.72H5.36V4.4C5.36 7.98 3.84 11.54 0.62 12.92L2.2 15.1C4.4 14.06 5.9 12.08 6.72 9.62C7.54 11.88 8.96 13.7 11.08 14.66L12.58 12.52C9.46 11.18 8 7.82 8 4.4V1.72ZM13.48 0.279999V18.76H16.12V0.279999H13.48ZM30.4084 8.72C27.5084 7.78 26.2484 5.6 26.1884 3.48H29.7884V1.38H19.8284V3.48H23.4884C23.4284 5.76 22.1284 8.06 19.1284 9.04L20.5084 11.1C22.6284 10.4 24.0684 8.98 24.8884 7.2C25.6884 8.82 27.0684 10.12 29.0684 10.76L30.4084 8.72ZM21.6084 14.32H31.2684V18.74H33.9084V12.22H21.6084V14.32ZM36.3484 4.74H33.9084V0.299999H31.2684V11.4H33.9084V6.92H36.3484V4.74ZM48.6222 12.8C47.3822 12.8 46.4622 11.96 46.4622 10.56C46.4622 9.16 47.3822 8.3 48.6222 8.3C49.8622 8.3 50.7622 9.16 50.7622 10.54C50.7622 11.96 49.8622 12.8 48.6222 12.8ZM48.6222 6.16C45.9422 6.16 43.9422 7.98 43.9422 10.54C43.9422 13.14 45.9422 14.96 48.6222 14.96C51.2822 14.96 53.2622 13.14 53.2622 10.54C53.2622 7.98 51.2822 6.16 48.6222 6.16ZM49.9222 0.619999H47.2822V3.02H43.2022V5.12H53.9222V3.02H49.9222V0.619999ZM60.4022 7.5H57.7622V0.299999H55.1222V18.72H57.7622V9.68H60.4022V7.5ZM62.8706 2.2V4.3H69.0106C68.6306 8.38 66.5906 11.26 61.8906 13.52L63.2706 15.6C69.8106 12.44 71.7106 7.84 71.7106 2.2H62.8706ZM74.5306 0.279999V18.7H77.1906V0.279999H74.5306Z" fill="white"/>
</svg>
