<svg width="12" height="12" viewBox="0 0 12 12" fill="none" xmlns="http://www.w3.org/2000/svg">
<path fill-rule="evenodd" clip-rule="evenodd" d="M1.125 6C1.125 4.70707 1.63862 3.46709 2.55286 2.55286C3.46709 1.63862 4.70707 1.125 6 1.125C7.29293 1.125 8.5329 1.63862 9.44715 2.55286C10.3614 3.46709 10.875 4.70707 10.875 6C10.875 7.29293 10.3614 8.5329 9.44715 9.44715C8.5329 10.3614 7.29293 10.875 6 10.875C4.70707 10.875 3.46709 10.3614 2.55286 9.44715C1.63862 8.5329 1.125 7.29293 1.125 6ZM6 0C4.4087 0 2.88258 0.632141 1.75736 1.75736C0.632141 2.88258 0 4.4087 0 6C0 7.59128 0.632141 9.11745 1.75736 10.2427C2.88258 11.3678 4.4087 12 6 12C7.59128 12 9.11745 11.3678 10.2427 10.2427C11.3678 9.11745 12 7.59128 12 6C12 4.4087 11.3678 2.88258 10.2427 1.75736C9.11745 0.632141 7.59128 0 6 0ZM6.375 3.5625C6.375 3.41332 6.31573 3.27024 6.21025 3.16475C6.10476 3.05926 5.96168 3 5.8125 3C5.66332 3 5.52024 3.05926 5.41475 3.16475C5.30926 3.27024 5.25 3.41332 5.25 3.5625V6.1875C5.25002 6.29984 5.28369 6.40959 5.34664 6.50263C5.40961 6.59566 5.49898 6.66771 5.60325 6.7095L7.47825 7.4595C7.61557 7.50968 7.76707 7.50435 7.90057 7.44475C8.03407 7.38513 8.13915 7.27586 8.19345 7.1401C8.24775 7.00435 8.24708 6.85279 8.19158 6.71752C8.13608 6.58225 8.03002 6.47393 7.896 6.4155L6.375 5.8065V3.5625Z" fill="#5F5F5F"/>
</svg>
