<svg width="25" height="26" viewBox="0 0 25 26" fill="none" xmlns="http://www.w3.org/2000/svg">
<path d="M17.1875 5.96875H21.875" stroke="white" stroke-width="2" stroke-linecap="round" stroke-linejoin="round"/>
<path d="M19.5312 3.625V8.3125" stroke="white" stroke-width="2" stroke-linecap="round" stroke-linejoin="round"/>
<path d="M3.02625 21.5928C3.98675 19.9303 5.36786 18.5498 7.03082 17.59C8.69378 16.6302 10.58 16.125 12.5001 16.125C14.4201 16.125 16.3064 16.6303 17.9693 17.5901C19.6323 18.5499 21.0133 19.9305 21.9738 21.593" stroke="white" stroke-width="2" stroke-linecap="round" stroke-linejoin="round"/>
<path d="M18.3644 12.0413C17.9466 13.1693 17.212 14.1527 16.2489 14.8733C15.2858 15.594 14.1351 16.0212 12.935 16.1037C11.735 16.1863 10.5366 15.9205 9.48392 15.3385C8.43122 14.7565 7.56896 13.8829 7.00072 12.8227C6.43248 11.7625 6.18243 10.5607 6.28061 9.36187C6.37879 8.163 6.82102 7.01797 7.55418 6.06435C8.28734 5.11072 9.28024 4.38905 10.4136 3.98603C11.547 3.58302 12.7726 3.51581 13.9432 3.79247" stroke="white" stroke-width="2" stroke-linecap="round" stroke-linejoin="round"/>
</svg>
